<?xml version="1.0" encoding="UTF-8" standalone="no"?>
<!-- Created with Inkscape (http://www.inkscape.org/) -->

<svg
   width="194.00116mm"
   height="193.82785mm"
   viewBox="0 0 194.00116 193.82785"
   version="1.1"
   id="svg6218"
   xml:space="preserve"
   inkscape:version="1.2.1 (9c6d41e, 2022-07-14)"
   sodipodi:docname="logo2.svg"
   xmlns:inkscape="http://www.inkscape.org/namespaces/inkscape"
   xmlns:sodipodi="http://sodipodi.sourceforge.net/DTD/sodipodi-0.dtd"
   xmlns="http://www.w3.org/2000/svg"
   xmlns:svg="http://www.w3.org/2000/svg"><sodipodi:namedview
     id="namedview6220"
     pagecolor="#ffffff"
     bordercolor="#000000"
     borderopacity="0.25"
     inkscape:showpageshadow="2"
     inkscape:pageopacity="0.0"
     inkscape:pagecheckerboard="0"
     inkscape:deskcolor="#d1d1d1"
     inkscape:document-units="mm"
     showgrid="false"
     inkscape:zoom="0.6223825"
     inkscape:cx="270.73383"
     inkscape:cy="463.54131"
     inkscape:window-width="1512"
     inkscape:window-height="831"
     inkscape:window-x="0"
     inkscape:window-y="38"
     inkscape:window-maximized="0"
     inkscape:current-layer="layer1" /><defs
     id="defs6215"><clipPath
       clipPathUnits="userSpaceOnUse"
       id="clipEmfPath1-4"><path
         d="M 0,0 V 0 520.09523 H 520.09523 V 0"
         id="path3539" /></clipPath><rect
       x="31.58382"
       y="729.05988"
       width="0"
       height="24.565193"
       id="rect3395" /></defs><g
     inkscape:label="Layer 1"
     inkscape:groupmode="layer"
     id="layer1"
     transform="translate(17.367,-25.070217)"><text
       xml:space="preserve"
       style="font-size:10.0303px;font-family:Helvetica;-inkscape-font-specification:Helvetica;text-align:start;text-anchor:start;fill:#000000;stroke:none;stroke-width:3.15912"
       x="120.8801"
       y="56.660454"
       id="text3289"
       transform="scale(0.89874715,1.11266)"><tspan
         sodipodi:role="line"
         id="tspan3287"
         style="font-style:normal;font-variant:normal;font-weight:bold;font-stretch:normal;font-family:'Source Code Pro';-inkscape-font-specification:'Source Code Pro Bold';text-align:start;text-anchor:start;fill:#000000;stroke:none;stroke-width:3.15912"
         x="120.8801"
         y="56.660454">lattice</tspan><tspan
         sodipodi:role="line"
         style="font-style:normal;font-variant:normal;font-weight:bold;font-stretch:normal;font-family:'Source Code Pro';-inkscape-font-specification:'Source Code Pro Bold';text-align:start;text-anchor:start;fill:#000000;stroke:none;stroke-width:3.15912"
         x="120.8801"
         y="69.524017"
         id="tspan6527">virtual</tspan><tspan
         sodipodi:role="line"
         style="font-style:normal;font-variant:normal;font-weight:bold;font-stretch:normal;font-family:'Source Code Pro';-inkscape-font-specification:'Source Code Pro Bold';text-align:start;text-anchor:start;fill:#000000;stroke:none;stroke-width:3.15912"
         x="120.8801"
         y="82.387581"
         id="tspan6529">academy</tspan></text><text
       xml:space="preserve"
       transform="matrix(0.26458333,0,0,0.26458333,-282.9297,-32.358652)"
       id="text3393"
       style="font-style:normal;font-variant:normal;font-weight:normal;font-stretch:normal;font-family:'Source Code Pro for Powerline';-inkscape-font-specification:'Source Code Pro for Powerline';text-align:center;white-space:pre;shape-inside:url(#rect3395);display:inline;fill:#003380;stroke:none;stroke-width:3.77953" /><path
       id="path6508"
       style="fill:#000000;stroke-width:1.28389"
       d="M -15.933,122.00218 V 49.396433 H -5.8110186 V 112.07486 H 32.73037 l -2.5305,9.73267 z M 47.645629,61.756902 32.568513,121.80751 h 8.60671 0.187586 l 3.626652,-14.9009 h 22.574332 l 3.626652,14.9009 h 0.187586 8.606709 L 64.907625,61.756902 h -0.09354 -8.281665 -0.09353 -0.324528 -0.09405 -8.281148 z m 6.375322,8.851139 h 4.511352 l 7.082255,28.736744 H 46.938179 Z"
       sodipodi:nodetypes="ccccccccccccccccccccccccccccc" /><path
       id="path685"
       style="fill:#000000;stroke-width:1.31796"
       d="m 130.66541,145.42472 -19.27789,72.11935 h 10.3234 l 4.70927,-19.23008 h 28.15901 l 4.70927,19.23008 h 10.3234 l -19.27789,-72.11935 z m 7.82278,8.49227 h 4.02301 l 9.92859,34.87113 h -23.8802 z m -87.305661,-8.49232 19.466801,72.11971 h 18.99593 l 19.4668,-72.11971 h -9.890258 l -16.95481,63.36624 H 78.02815 L 61.07334,145.42467 Z" /><rect
       style="fill:none;stroke:#000000;stroke-width:0.797504;stroke-dasharray:none"
       id="rect740"
       width="95.966339"
       height="95.966339"
       x="80.269066"
       y="25.468969" /><path
       id="path4427"
       clip-path="url(#clipEmfPath1-4)"
       style="fill:#000000;fill-opacity:1;fill-rule:nonzero;stroke:none"
       transform="matrix(0.23760984,0,0,0.23760984,-17.367,95.50844)"
       d="m 83.215238,28.905293 v 0 c 1.800329,0 3.200586,1.400256 3.200586,3.100568 0,1.800329 -1.400257,3.200586 -3.200586,3.200586 -1.700312,0 -3.200587,-1.400257 -3.200587,-3.200586 0,-1.700312 1.500275,-3.100568 3.200587,-3.100568 z m 0,-23.4042857 v 0 c 0.700128,0 1.300238,0.6001099 1.300238,1.3002381 0,0.7001282 -0.60011,1.3002381 -1.300238,1.3002381 -0.700129,0 -1.300239,-0.6001099 -1.300239,-1.3002381 0,-0.7001282 0.60011,-1.3002381 1.300239,-1.3002381 z m 0,48.6089007 v 0 c 1.800329,0 3.200586,1.400256 3.200586,3.200586 0,1.700311 -1.400257,3.100568 -3.200586,3.100568 -1.700312,0 -3.200587,-1.400257 -3.200587,-3.100568 0,-1.80033 1.500275,-3.200586 3.200587,-3.200586 z m 0,25.204615 v 0 c 1.800329,0 3.200586,1.500275 3.200586,3.200586 0,1.80033 -1.400257,3.200586 -3.200586,3.200586 -1.700312,0 -3.200587,-1.400256 -3.200587,-3.200586 0,-1.700311 1.500275,-3.200586 3.200587,-3.200586 z m 0,27.204977 v 0 c 0.700128,0 1.300238,0.60011 1.300238,1.30024 0,0.70013 -0.60011,1.20022 -1.300238,1.20022 -0.700129,0 -1.300239,-0.50009 -1.300239,-1.20022 0,-0.70013 0.60011,-1.30024 1.300239,-1.30024 z M 58.010622,28.905293 v 0 c 1.700312,0 3.100568,1.400256 3.100568,3.100568 0,1.800329 -1.400256,3.200586 -3.100568,3.200586 -1.800329,0 -3.200586,-1.400257 -3.200586,-3.200586 0,-1.700312 1.400257,-3.100568 3.200586,-3.100568 z m 0,-23.4042857 v 0 c 0.700129,0 1.20022,0.6001099 1.20022,1.3002381 0,0.7001282 -0.500091,1.3002381 -1.20022,1.3002381 -0.700128,0 -1.300238,-0.6001099 -1.300238,-1.3002381 0,-0.7001282 0.60011,-1.3002381 1.300238,-1.3002381 z m 0,48.6089007 v 0 c 1.700312,0 3.100568,1.400256 3.100568,3.200586 0,1.700311 -1.400256,3.100568 -3.100568,3.100568 -1.800329,0 -3.200586,-1.400257 -3.200586,-3.100568 0,-1.80033 1.400257,-3.200586 3.200586,-3.200586 z m 0,25.204615 v 0 c 1.700312,0 3.100568,1.500275 3.100568,3.200586 0,1.80033 -1.400256,3.200586 -3.100568,3.200586 -1.800329,0 -3.200586,-1.400256 -3.200586,-3.200586 0,-1.700311 1.400257,-3.200586 3.200586,-3.200586 z m 0,27.204977 v 0 c 0.700129,0 1.20022,0.60011 1.20022,1.30024 0,0.70013 -0.500091,1.20022 -1.20022,1.20022 -0.700128,0 -1.300238,-0.50009 -1.300238,-1.20022 0,-0.70013 0.60011,-1.30024 1.300238,-1.30024 z M 32.705989,28.905293 v 0 c 1.800329,0 3.200586,1.400256 3.200586,3.100568 0,1.800329 -1.400257,3.200586 -3.200586,3.200586 -1.700312,0 -3.100568,-1.400257 -3.100568,-3.200586 0,-1.700312 1.400256,-3.100568 3.100568,-3.100568 z m 0,-23.4042857 v 0 c 0.700128,0 1.300238,0.6001099 1.300238,1.3002381 0,0.7001282 -0.60011,1.3002381 -1.300238,1.3002381 -0.700128,0 -1.20022,-0.6001099 -1.20022,-1.3002381 0,-0.7001282 0.500092,-1.3002381 1.20022,-1.3002381 z m 0,48.6089007 v 0 c 1.800329,0 3.200586,1.400256 3.200586,3.200586 0,1.700311 -1.400257,3.100568 -3.200586,3.100568 -1.700312,0 -3.100568,-1.400257 -3.100568,-3.100568 0,-1.80033 1.400256,-3.200586 3.100568,-3.200586 z m 0,25.204615 v 0 c 1.800329,0 3.200586,1.500275 3.200586,3.200586 0,1.80033 -1.400257,3.200586 -3.200586,3.200586 -1.700312,0 -3.100568,-1.400256 -3.100568,-3.200586 0,-1.700311 1.400256,-3.200586 3.100568,-3.200586 z m 0,27.204977 v 0 c 0.700128,0 1.300238,0.60011 1.300238,1.30024 0,0.70013 -0.60011,1.20022 -1.300238,1.20022 -0.700128,0 -1.20022,-0.50009 -1.20022,-1.20022 0,-0.70013 0.500092,-1.30024 1.20022,-1.30024 z M 7.5013736,30.805641 v 0 c 0.7001282,0 1.3002381,0.500091 1.3002381,1.20022 0,0.700128 -0.6001099,1.300238 -1.3002381,1.300238 -0.7001282,0 -1.3002381,-0.60011 -1.3002381,-1.300238 0,-0.700129 0.6001099,-1.20022 1.3002381,-1.20022 z m 0,-31.40575089 v 0 c 4.2007694,0 7.5013734,3.20058609 7.5013734,7.40135529 0,4.2007696 -3.300604,7.5013736 -7.5013734,7.5013736 C 3.3006044,14.302619 0,11.002015 0,6.8012454 0,2.6004762 3.3006044,-0.60010989 7.5013736,-0.60010989 Z m 0,56.61036589 v 0 c 0.7001282,0 1.3002381,0.60011 1.3002381,1.300238 0,0.700128 -0.6001099,1.20022 -1.3002381,1.20022 -0.7001282,0 -1.3002381,-0.500092 -1.3002381,-1.20022 0,-0.700128 0.6001099,-1.300238 1.3002381,-1.300238 z m 0,25.204615 v 0 c 0.7001282,0 1.3002381,0.60011 1.3002381,1.300238 0,0.700129 -0.6001099,1.300238 -1.3002381,1.300238 -0.7001282,0 -1.3002381,-0.600109 -1.3002381,-1.300238 0,-0.700128 0.6001099,-1.300238 1.3002381,-1.300238 z m 0,19.003479 v 0 c 4.2007694,0 7.5013734,3.40062 7.5013734,7.60139 0,4.10075 -3.300604,7.50138 -7.5013734,7.50138 C 3.3006044,115.32112 0,111.92049 0,107.81974 c 0,-4.20077 3.3006044,-7.60139 7.5013736,-7.60139 z M 184.23374,28.905293 v 0 c 1.70031,0 3.10056,1.400256 3.10056,3.100568 0,1.800329 -1.40025,3.200586 -3.10056,3.200586 -1.80033,0 -3.20059,-1.400257 -3.20059,-3.200586 0,-1.700312 1.40026,-3.100568 3.20059,-3.100568 z m 0,-23.4042857 v 0 c 0.70012,0 1.20021,0.6001099 1.20021,1.3002381 0,0.7001282 -0.50009,1.3002381 -1.20021,1.3002381 -0.70013,0 -1.30024,-0.6001099 -1.30024,-1.3002381 0,-0.7001282 0.60011,-1.3002381 1.30024,-1.3002381 z m 0,48.6089007 v 0 c 1.70031,0 3.10056,1.400256 3.10056,3.200586 0,1.700311 -1.40025,3.100568 -3.10056,3.100568 -1.80033,0 -3.20059,-1.400257 -3.20059,-3.100568 0,-1.80033 1.40026,-3.200586 3.20059,-3.200586 z m 0,25.204615 v 0 c 1.70031,0 3.10056,1.500275 3.10056,3.200586 0,1.80033 -1.40025,3.200586 -3.10056,3.200586 -1.80033,0 -3.20059,-1.400256 -3.20059,-3.200586 0,-1.700311 1.40026,-3.200586 3.20059,-3.200586 z m 0,27.204977 v 0 c 0.70012,0 1.20021,0.60011 1.20021,1.30024 0,0.70013 -0.50009,1.20022 -1.20021,1.20022 -0.70013,0 -1.30024,-0.50009 -1.30024,-1.20022 0,-0.70013 0.60011,-1.30024 1.30024,-1.30024 z M 158.9291,28.905293 v 0 c 1.80033,0 3.20059,1.400256 3.20059,3.100568 0,1.800329 -1.40026,3.200586 -3.20059,3.200586 -1.70031,0 -3.10057,-1.400257 -3.10057,-3.200586 0,-1.700312 1.40026,-3.100568 3.10057,-3.100568 z m 0,-23.4042857 v 0 c 0.70013,0 1.30024,0.6001099 1.30024,1.3002381 0,0.7001282 -0.60011,1.3002381 -1.30024,1.3002381 -0.70013,0 -1.20022,-0.6001099 -1.20022,-1.3002381 0,-0.7001282 0.50009,-1.3002381 1.20022,-1.3002381 z m 0,48.6089007 v 0 c 1.80033,0 3.20059,1.400256 3.20059,3.200586 0,1.700311 -1.40026,3.100568 -3.20059,3.100568 -1.70031,0 -3.10057,-1.400257 -3.10057,-3.100568 0,-1.80033 1.40026,-3.200586 3.10057,-3.200586 z m 0,25.204615 v 0 c 1.80033,0 3.20059,1.500275 3.20059,3.200586 0,1.80033 -1.40026,3.200586 -3.20059,3.200586 -1.70031,0 -3.10057,-1.400256 -3.10057,-3.200586 0,-1.700311 1.40026,-3.200586 3.10057,-3.200586 z m 0,27.204977 v 0 c 0.70013,0 1.30024,0.60011 1.30024,1.30024 0,0.70013 -0.60011,1.20022 -1.30024,1.20022 -0.70013,0 -1.20022,-0.50009 -1.20022,-1.20022 0,-0.70013 0.50009,-1.30024 1.20022,-1.30024 z M 133.72449,28.905293 v 0 c 1.70031,0 3.20058,1.400256 3.20058,3.100568 0,1.800329 -1.50027,3.200586 -3.20058,3.200586 -1.80033,0 -3.20059,-1.400257 -3.20059,-3.200586 0,-1.700312 1.40026,-3.100568 3.20059,-3.100568 z m 0,-23.4042857 v 0 c 0.70012,0 1.30023,0.6001099 1.30023,1.3002381 0,0.7001282 -0.60011,1.3002381 -1.30023,1.3002381 -0.70013,0 -1.30024,-0.6001099 -1.30024,-1.3002381 0,-0.7001282 0.60011,-1.3002381 1.30024,-1.3002381 z m 0,48.6089007 v 0 c 1.70031,0 3.20058,1.400256 3.20058,3.200586 0,1.700311 -1.50027,3.100568 -3.20058,3.100568 -1.80033,0 -3.20059,-1.400257 -3.20059,-3.100568 0,-1.80033 1.40026,-3.200586 3.20059,-3.200586 z m 0,25.204615 v 0 c 1.70031,0 3.20058,1.500275 3.20058,3.200586 0,1.80033 -1.50027,3.200586 -3.20058,3.200586 -1.80033,0 -3.20059,-1.400256 -3.20059,-3.200586 0,-1.700311 1.40026,-3.200586 3.20059,-3.200586 z m 0,27.204977 v 0 c 0.70012,0 1.30023,0.60011 1.30023,1.30024 0,0.70013 -0.60011,1.20022 -1.30023,1.20022 -0.70013,0 -1.30024,-0.50009 -1.30024,-1.20022 0,-0.70013 0.60011,-1.30024 1.30024,-1.30024 z M 108.51987,30.805641 v 0 c 0.70013,0 1.20022,0.500091 1.20022,1.20022 0,0.700128 -0.50009,1.300238 -1.20022,1.300238 -0.70013,0 -1.30024,-0.60011 -1.30024,-1.300238 0,-0.700129 0.60011,-1.20022 1.30024,-1.20022 z m 0,-31.40575089 v 0 c 4.10075,0 7.50137,3.20058609 7.50137,7.40135529 0,4.2007696 -3.40062,7.5013736 -7.50137,7.5013736 -4.20077,0 -7.60139,-3.300604 -7.60139,-7.5013736 0,-4.2007692 3.40062,-7.40135529 7.60139,-7.40135529 z m 0,56.61036589 v 0 c 0.70013,0 1.20022,0.60011 1.20022,1.300238 0,0.700128 -0.50009,1.20022 -1.20022,1.20022 -0.70013,0 -1.30024,-0.500092 -1.30024,-1.20022 0,-0.700128 0.60011,-1.300238 1.30024,-1.300238 z m 0,25.204615 v 0 c 0.70013,0 1.20022,0.60011 1.20022,1.300238 0,0.700129 -0.50009,1.300238 -1.20022,1.300238 -0.70013,0 -1.30024,-0.600109 -1.30024,-1.300238 0,-0.700128 0.60011,-1.300238 1.30024,-1.300238 z M 83.215238,432.77925 v 0 c 1.800329,0 3.200586,1.40025 3.200586,3.20058 0,1.70031 -1.400257,3.10057 -3.200586,3.10057 -1.700312,0 -3.200587,-1.40026 -3.200587,-3.10057 0,-1.80033 1.500275,-3.20058 3.200587,-3.20058 z m 0,25.20461 v 0 c 1.800329,0 3.200586,1.50028 3.200586,3.20059 0,1.80033 -1.400257,3.20058 -3.200586,3.20058 -1.700312,0 -3.200587,-1.40025 -3.200587,-3.20058 0,-1.70031 1.500275,-3.20059 3.200587,-3.20059 z m 0,25.30463 v 0 c 1.800329,0 3.200586,1.40026 3.200586,3.20059 0,1.70031 -1.400257,3.10057 -3.200586,3.10057 -1.700312,0 -3.200587,-1.40026 -3.200587,-3.10057 0,-1.80033 1.500275,-3.20059 3.200587,-3.20059 z m 0,27.10497 v 0 c 0.700128,0 1.300238,0.60011 1.300238,1.30024 0,0.70012 -0.60011,1.30023 -1.300238,1.30023 -0.700129,0 -1.300239,-0.60011 -1.300239,-1.30023 0,-0.70013 0.60011,-1.30024 1.300239,-1.30024 z M 58.010622,432.77925 v 0 c 1.700312,0 3.100568,1.40025 3.100568,3.20058 0,1.70031 -1.400256,3.10057 -3.100568,3.10057 -1.800329,0 -3.200586,-1.40026 -3.200586,-3.10057 0,-1.80033 1.400257,-3.20058 3.200586,-3.20058 z m 0,25.20461 v 0 c 1.700312,0 3.100568,1.50028 3.100568,3.20059 0,1.80033 -1.400256,3.20058 -3.100568,3.20058 -1.800329,0 -3.200586,-1.40025 -3.200586,-3.20058 0,-1.70031 1.400257,-3.20059 3.200586,-3.20059 z m 0,25.30463 v 0 c 1.700312,0 3.100568,1.40026 3.100568,3.20059 0,1.70031 -1.400256,3.10057 -3.100568,3.10057 -1.800329,0 -3.200586,-1.40026 -3.200586,-3.10057 0,-1.80033 1.400257,-3.20059 3.200586,-3.20059 z m 0,27.10497 v 0 c 0.700129,0 1.20022,0.60011 1.20022,1.30024 0,0.70012 -0.500091,1.30023 -1.20022,1.30023 -0.700128,0 -1.300238,-0.60011 -1.300238,-1.30023 0,-0.70013 0.60011,-1.30024 1.300238,-1.30024 z M 32.705989,432.77925 v 0 c 1.800329,0 3.200586,1.40025 3.200586,3.20058 0,1.70031 -1.400257,3.10057 -3.200586,3.10057 -1.700312,0 -3.100568,-1.40026 -3.100568,-3.10057 0,-1.80033 1.400256,-3.20058 3.100568,-3.20058 z m 0,25.20461 v 0 c 1.800329,0 3.200586,1.50028 3.200586,3.20059 0,1.80033 -1.400257,3.20058 -3.200586,3.20058 -1.700312,0 -3.100568,-1.40025 -3.100568,-3.20058 0,-1.70031 1.400256,-3.20059 3.100568,-3.20059 z m 0,25.30463 v 0 c 1.800329,0 3.200586,1.40026 3.200586,3.20059 0,1.70031 -1.400257,3.10057 -3.200586,3.10057 -1.700312,0 -3.100568,-1.40026 -3.100568,-3.10057 0,-1.80033 1.400256,-3.20059 3.100568,-3.20059 z m 0,27.10497 v 0 c 0.700128,0 1.300238,0.60011 1.300238,1.30024 0,0.70012 -0.60011,1.30023 -1.300238,1.30023 -0.700128,0 -1.20022,-0.60011 -1.20022,-1.30023 0,-0.70013 0.500092,-1.30024 1.20022,-1.30024 z M 7.5013736,434.67959 v 0 c 0.7001282,0 1.3002381,0.60011 1.3002381,1.30024 0,0.70013 -0.6001099,1.20022 -1.3002381,1.20022 -0.7001282,0 -1.3002381,-0.50009 -1.3002381,-1.20022 0,-0.70013 0.6001099,-1.30024 1.3002381,-1.30024 z m 0,25.20462 v 0 c 0.7001282,0 1.3002381,0.60011 1.3002381,1.30024 0,0.70013 -0.6001099,1.30024 -1.3002381,1.30024 -0.7001282,0 -1.3002381,-0.60011 -1.3002381,-1.30024 0,-0.70013 0.6001099,-1.30024 1.3002381,-1.30024 z m 0,25.30463 v 0 c 0.7001282,0 1.3002381,0.60011 1.3002381,1.30024 0,0.70013 -0.6001099,1.20022 -1.3002381,1.20022 -0.7001282,0 -1.3002381,-0.50009 -1.3002381,-1.20022 0,-0.70013 0.6001099,-1.30024 1.3002381,-1.30024 z m 0,19.00348 v 0 c 4.2007694,0 7.5013734,3.30061 7.5013734,7.50138 0,4.20077 -3.300604,7.60139 -7.5013734,7.60139 C 3.3006044,519.29509 0,515.89447 0,511.6937 c 0,-4.20077 3.3006044,-7.50138 7.5013736,-7.50138 z M 184.23374,432.77925 v 0 c 1.70031,0 3.10056,1.40025 3.10056,3.20058 0,1.70031 -1.40025,3.10057 -3.10056,3.10057 -1.80033,0 -3.20059,-1.40026 -3.20059,-3.10057 0,-1.80033 1.40026,-3.20058 3.20059,-3.20058 z m 0,25.20461 v 0 c 1.70031,0 3.10056,1.50028 3.10056,3.20059 0,1.80033 -1.40025,3.20058 -3.10056,3.20058 -1.80033,0 -3.20059,-1.40025 -3.20059,-3.20058 0,-1.70031 1.40026,-3.20059 3.20059,-3.20059 z m 0,25.30463 v 0 c 1.70031,0 3.10056,1.40026 3.10056,3.20059 0,1.70031 -1.40025,3.10057 -3.10056,3.10057 -1.80033,0 -3.20059,-1.40026 -3.20059,-3.10057 0,-1.80033 1.40026,-3.20059 3.20059,-3.20059 z m 0,27.10497 v 0 c 0.70012,0 1.20021,0.60011 1.20021,1.30024 0,0.70012 -0.50009,1.30023 -1.20021,1.30023 -0.70013,0 -1.30024,-0.60011 -1.30024,-1.30023 0,-0.70013 0.60011,-1.30024 1.30024,-1.30024 z M 158.9291,432.77925 v 0 c 1.80033,0 3.20059,1.40025 3.20059,3.20058 0,1.70031 -1.40026,3.10057 -3.20059,3.10057 -1.70031,0 -3.10057,-1.40026 -3.10057,-3.10057 0,-1.80033 1.40026,-3.20058 3.10057,-3.20058 z m 0,25.20461 v 0 c 1.80033,0 3.20059,1.50028 3.20059,3.20059 0,1.80033 -1.40026,3.20058 -3.20059,3.20058 -1.70031,0 -3.10057,-1.40025 -3.10057,-3.20058 0,-1.70031 1.40026,-3.20059 3.10057,-3.20059 z m 0,25.30463 v 0 c 1.80033,0 3.20059,1.40026 3.20059,3.20059 0,1.70031 -1.40026,3.10057 -3.20059,3.10057 -1.70031,0 -3.10057,-1.40026 -3.10057,-3.10057 0,-1.80033 1.40026,-3.20059 3.10057,-3.20059 z m 0,27.10497 v 0 c 0.70013,0 1.30024,0.60011 1.30024,1.30024 0,0.70012 -0.60011,1.30023 -1.30024,1.30023 -0.70013,0 -1.20022,-0.60011 -1.20022,-1.30023 0,-0.70013 0.50009,-1.30024 1.20022,-1.30024 z m -25.20461,-77.61421 v 0 c 1.70031,0 3.20058,1.40025 3.20058,3.20058 0,1.70031 -1.50027,3.10057 -3.20058,3.10057 -1.80033,0 -3.20059,-1.40026 -3.20059,-3.10057 0,-1.80033 1.40026,-3.20058 3.20059,-3.20058 z m 0,25.20461 v 0 c 1.70031,0 3.20058,1.50028 3.20058,3.20059 0,1.80033 -1.50027,3.20058 -3.20058,3.20058 -1.80033,0 -3.20059,-1.40025 -3.20059,-3.20058 0,-1.70031 1.40026,-3.20059 3.20059,-3.20059 z m 0,25.30463 v 0 c 1.70031,0 3.20058,1.40026 3.20058,3.20059 0,1.70031 -1.50027,3.10057 -3.20058,3.10057 -1.80033,0 -3.20059,-1.40026 -3.20059,-3.10057 0,-1.80033 1.40026,-3.20059 3.20059,-3.20059 z m 0,27.10497 v 0 c 0.70012,0 1.30023,0.60011 1.30023,1.30024 0,0.70012 -0.60011,1.30023 -1.30023,1.30023 -0.70013,0 -1.30024,-0.60011 -1.30024,-1.30023 0,-0.70013 0.60011,-1.30024 1.30024,-1.30024 z m -25.20462,-75.71387 v 0 c 0.70013,0 1.20022,0.60011 1.20022,1.30024 0,0.70013 -0.50009,1.20022 -1.20022,1.20022 -0.70013,0 -1.30024,-0.50009 -1.30024,-1.20022 0,-0.70013 0.60011,-1.30024 1.30024,-1.30024 z m 0,25.20462 v 0 c 0.70013,0 1.20022,0.60011 1.20022,1.30024 0,0.70013 -0.50009,1.30024 -1.20022,1.30024 -0.70013,0 -1.30024,-0.60011 -1.30024,-1.30024 0,-0.70013 0.60011,-1.30024 1.30024,-1.30024 z m 0,25.30463 v 0 c 0.70013,0 1.20022,0.60011 1.20022,1.30024 0,0.70013 -0.50009,1.20022 -1.20022,1.20022 -0.70013,0 -1.30024,-0.50009 -1.30024,-1.20022 0,-0.70013 0.60011,-1.30024 1.30024,-1.30024 z m 0,19.00348 v 0 c 4.10075,0 7.50137,3.30061 7.50137,7.50138 0,4.20077 -3.40062,7.60139 -7.50137,7.60139 -4.20077,0 -7.60139,-3.40062 -7.60139,-7.60139 0,-4.20077 3.40062,-7.50138 7.60139,-7.50138 z m 176.63234,-71.41307 v 0 c 1.80033,0 3.20059,1.40025 3.20059,3.20058 0,1.70031 -1.40026,3.10057 -3.20059,3.10057 -1.70031,0 -3.10056,-1.40026 -3.10056,-3.10057 0,-1.80033 1.40025,-3.20058 3.10056,-3.20058 z m 0,25.20461 v 0 c 1.80033,0 3.20059,1.50028 3.20059,3.20059 0,1.80033 -1.40026,3.20058 -3.20059,3.20058 -1.70031,0 -3.10056,-1.40025 -3.10056,-3.20058 0,-1.70031 1.40025,-3.20059 3.10056,-3.20059 z m 0,25.30463 v 0 c 1.80033,0 3.20059,1.40026 3.20059,3.20059 0,1.70031 -1.40026,3.10057 -3.20059,3.10057 -1.70031,0 -3.10056,-1.40026 -3.10056,-3.10057 0,-1.80033 1.40025,-3.20059 3.10056,-3.20059 z m 0,27.10497 v 0 c 0.70013,0 1.30024,0.60011 1.30024,1.30024 0,0.70012 -0.60011,1.30023 -1.30024,1.30023 -0.70012,0 -1.20022,-0.60011 -1.20022,-1.30023 0,-0.70013 0.5001,-1.30024 1.20022,-1.30024 z M 259.9476,432.77925 v 0 c 1.70031,0 3.20059,1.40025 3.20059,3.20058 0,1.70031 -1.50028,3.10057 -3.20059,3.10057 -1.80033,0 -3.20059,-1.40026 -3.20059,-3.10057 0,-1.80033 1.40026,-3.20058 3.20059,-3.20058 z m 0,25.20461 v 0 c 1.70031,0 3.20059,1.50028 3.20059,3.20059 0,1.80033 -1.50028,3.20058 -3.20059,3.20058 -1.80033,0 -3.20059,-1.40025 -3.20059,-3.20058 0,-1.70031 1.40026,-3.20059 3.20059,-3.20059 z m 0,25.30463 v 0 c 1.70031,0 3.20059,1.40026 3.20059,3.20059 0,1.70031 -1.50028,3.10057 -3.20059,3.10057 -1.80033,0 -3.20059,-1.40026 -3.20059,-3.10057 0,-1.80033 1.40026,-3.20059 3.20059,-3.20059 z m 0,27.10497 v 0 c 0.70013,0 1.30024,0.60011 1.30024,1.30024 0,0.70012 -0.60011,1.30023 -1.30024,1.30023 -0.70013,0 -1.30024,-0.60011 -1.30024,-1.30023 0,-0.70013 0.60011,-1.30024 1.30024,-1.30024 z m -25.20462,-77.61421 v 0 c 1.70032,0 3.10057,1.40025 3.10057,3.20058 0,1.70031 -1.40025,3.10057 -3.10057,3.10057 -1.80033,0 -3.20058,-1.40026 -3.20058,-3.10057 0,-1.80033 1.40025,-3.20058 3.20058,-3.20058 z m 0,25.20461 v 0 c 1.70032,0 3.10057,1.50028 3.10057,3.20059 0,1.80033 -1.40025,3.20058 -3.10057,3.20058 -1.80033,0 -3.20058,-1.40025 -3.20058,-3.20058 0,-1.70031 1.40025,-3.20059 3.20058,-3.20059 z m 0,25.30463 v 0 c 1.70032,0 3.10057,1.40026 3.10057,3.20059 0,1.70031 -1.40025,3.10057 -3.10057,3.10057 -1.80033,0 -3.20058,-1.40026 -3.20058,-3.10057 0,-1.80033 1.40025,-3.20059 3.20058,-3.20059 z m 0,27.10497 v 0 c 0.70013,0 1.20022,0.60011 1.20022,1.30024 0,0.70012 -0.50009,1.30023 -1.20022,1.30023 -0.70012,0 -1.30023,-0.60011 -1.30023,-1.30023 0,-0.70013 0.60011,-1.30024 1.30023,-1.30024 z m -25.30463,-75.71387 v 0 c 0.70013,0 1.30024,0.60011 1.30024,1.30024 0,0.70013 -0.60011,1.20022 -1.30024,1.20022 -0.70013,0 -1.30024,-0.50009 -1.30024,-1.20022 0,-0.70013 0.60011,-1.30024 1.30024,-1.30024 z m 0,25.20462 v 0 c 0.70013,0 1.30024,0.60011 1.30024,1.30024 0,0.70013 -0.60011,1.30024 -1.30024,1.30024 -0.70013,0 -1.30024,-0.60011 -1.30024,-1.30024 0,-0.70013 0.60011,-1.30024 1.30024,-1.30024 z m 0,25.30463 v 0 c 0.70013,0 1.30024,0.60011 1.30024,1.30024 0,0.70013 -0.60011,1.20022 -1.30024,1.20022 -0.70013,0 -1.30024,-0.50009 -1.30024,-1.20022 0,-0.70013 0.60011,-1.30024 1.30024,-1.30024 z m 0,19.00348 v 0 c 4.20077,0 7.60139,3.30061 7.60139,7.50138 0,4.20077 -3.40062,7.60139 -7.60139,7.60139 -4.20077,0 -7.50137,-3.40062 -7.50137,-7.60139 0,-4.20077 3.3006,-7.50138 7.50137,-7.50138 z m 176.73236,-71.41307 v 0 c 1.70031,0 3.20059,1.40025 3.20059,3.20058 0,1.70031 -1.50028,3.10057 -3.20059,3.10057 -1.80033,0 -3.20058,-1.40026 -3.20058,-3.10057 0,-1.80033 1.40025,-3.20058 3.20058,-3.20058 z m 0,25.20461 v 0 c 1.70031,0 3.20059,1.50028 3.20059,3.20059 0,1.80033 -1.50028,3.20058 -3.20059,3.20058 -1.80033,0 -3.20058,-1.40025 -3.20058,-3.20058 0,-1.70031 1.40025,-3.20059 3.20058,-3.20059 z m 0,25.30463 v 0 c 1.70031,0 3.20059,1.40026 3.20059,3.20059 0,1.70031 -1.50028,3.10057 -3.20059,3.10057 -1.80033,0 -3.20058,-1.40026 -3.20058,-3.10057 0,-1.80033 1.40025,-3.20059 3.20058,-3.20059 z m 0,27.10497 v 0 c 0.70013,0 1.30024,0.60011 1.30024,1.30024 0,0.70012 -0.60011,1.30023 -1.30024,1.30023 -0.70013,0 -1.30024,-0.60011 -1.30024,-1.30023 0,-0.70013 0.60011,-1.30024 1.30024,-1.30024 z M 360.9661,432.77925 v 0 c 1.70031,0 3.10056,1.40025 3.10056,3.20058 0,1.70031 -1.40025,3.10057 -3.10056,3.10057 -1.80033,0 -3.20059,-1.40026 -3.20059,-3.10057 0,-1.80033 1.40026,-3.20058 3.20059,-3.20058 z m 0,25.20461 v 0 c 1.70031,0 3.10056,1.50028 3.10056,3.20059 0,1.80033 -1.40025,3.20058 -3.10056,3.20058 -1.80033,0 -3.20059,-1.40025 -3.20059,-3.20058 0,-1.70031 1.40026,-3.20059 3.20059,-3.20059 z m 0,25.30463 v 0 c 1.70031,0 3.10056,1.40026 3.10056,3.20059 0,1.70031 -1.40025,3.10057 -3.10056,3.10057 -1.80033,0 -3.20059,-1.40026 -3.20059,-3.10057 0,-1.80033 1.40026,-3.20059 3.20059,-3.20059 z m 0,27.10497 v 0 c 0.70012,0 1.20022,0.60011 1.20022,1.30024 0,0.70012 -0.5001,1.30023 -1.20022,1.30023 -0.70013,0 -1.30024,-0.60011 -1.30024,-1.30023 0,-0.70013 0.60011,-1.30024 1.30024,-1.30024 z m -25.30464,-77.61421 v 0 c 1.80033,0 3.20059,1.40025 3.20059,3.20058 0,1.70031 -1.40026,3.10057 -3.20059,3.10057 -1.70031,0 -3.20058,-1.40026 -3.20058,-3.10057 0,-1.80033 1.50027,-3.20058 3.20058,-3.20058 z m 0,25.20461 v 0 c 1.80033,0 3.20059,1.50028 3.20059,3.20059 0,1.80033 -1.40026,3.20058 -3.20059,3.20058 -1.70031,0 -3.20058,-1.40025 -3.20058,-3.20058 0,-1.70031 1.50027,-3.20059 3.20058,-3.20059 z m 0,25.30463 v 0 c 1.80033,0 3.20059,1.40026 3.20059,3.20059 0,1.70031 -1.40026,3.10057 -3.20059,3.10057 -1.70031,0 -3.20058,-1.40026 -3.20058,-3.10057 0,-1.80033 1.50027,-3.20059 3.20058,-3.20059 z m 0,27.10497 v 0 c 0.70013,0 1.30024,0.60011 1.30024,1.30024 0,0.70012 -0.60011,1.30023 -1.30024,1.30023 -0.70013,0 -1.30024,-0.60011 -1.30024,-1.30023 0,-0.70013 0.60011,-1.30024 1.30024,-1.30024 z m -25.20461,-75.71387 v 0 c 0.70013,0 1.20022,0.60011 1.20022,1.30024 0,0.70013 -0.50009,1.20022 -1.20022,1.20022 -0.70013,0 -1.30024,-0.50009 -1.30024,-1.20022 0,-0.70013 0.60011,-1.30024 1.30024,-1.30024 z m 0,25.20462 v 0 c 0.70013,0 1.20022,0.60011 1.20022,1.30024 0,0.70013 -0.50009,1.30024 -1.20022,1.30024 -0.70013,0 -1.30024,-0.60011 -1.30024,-1.30024 0,-0.70013 0.60011,-1.30024 1.30024,-1.30024 z m 0,25.30463 v 0 c 0.70013,0 1.20022,0.60011 1.20022,1.30024 0,0.70013 -0.50009,1.20022 -1.20022,1.20022 -0.70013,0 -1.30024,-0.50009 -1.30024,-1.20022 0,-0.70013 0.60011,-1.30024 1.30024,-1.30024 z m 0,19.00348 v 0 c 4.10075,0 7.50137,3.30061 7.50137,7.50138 0,4.20077 -3.40062,7.60139 -7.50137,7.60139 -4.20077,0 -7.60139,-3.40062 -7.60139,-7.60139 0,-4.20077 3.40062,-7.50138 7.60139,-7.50138 z m 176.73236,-71.41307 v 0 c 1.70031,0 3.10057,1.40025 3.10057,3.20058 0,1.70031 -1.40026,3.10057 -3.10057,3.10057 -1.80033,0 -3.20059,-1.40026 -3.20059,-3.10057 0,-1.80033 1.40026,-3.20058 3.20059,-3.20058 z m 0,25.20461 v 0 c 1.70031,0 3.10057,1.50028 3.10057,3.20059 0,1.80033 -1.40026,3.20058 -3.10057,3.20058 -1.80033,0 -3.20059,-1.40025 -3.20059,-3.20058 0,-1.70031 1.40026,-3.20059 3.20059,-3.20059 z m 0,25.30463 v 0 c 1.70031,0 3.10057,1.40026 3.10057,3.20059 0,1.70031 -1.40026,3.10057 -3.10057,3.10057 -1.80033,0 -3.20059,-1.40026 -3.20059,-3.10057 0,-1.80033 1.40026,-3.20059 3.20059,-3.20059 z m 0,27.10497 v 0 c 0.70013,0 1.20022,0.60011 1.20022,1.30024 0,0.70012 -0.50009,1.30023 -1.20022,1.30023 -0.70013,0 -1.30024,-0.60011 -1.30024,-1.30023 0,-0.70013 0.60011,-1.30024 1.30024,-1.30024 z m -25.30463,-77.61421 v 0 c 1.80033,0 3.20058,1.40025 3.20058,3.20058 0,1.70031 -1.40025,3.10057 -3.20058,3.10057 -1.70032,0 -3.20059,-1.40026 -3.20059,-3.10057 0,-1.80033 1.50027,-3.20058 3.20059,-3.20058 z m 0,25.20461 v 0 c 1.80033,0 3.20058,1.50028 3.20058,3.20059 0,1.80033 -1.40025,3.20058 -3.20058,3.20058 -1.70032,0 -3.20059,-1.40025 -3.20059,-3.20058 0,-1.70031 1.50027,-3.20059 3.20059,-3.20059 z m 0,25.30463 v 0 c 1.80033,0 3.20058,1.40026 3.20058,3.20059 0,1.70031 -1.40025,3.10057 -3.20058,3.10057 -1.70032,0 -3.20059,-1.40026 -3.20059,-3.10057 0,-1.80033 1.50027,-3.20059 3.20059,-3.20059 z m 0,27.10497 v 0 c 0.70012,0 1.30023,0.60011 1.30023,1.30024 0,0.70012 -0.60011,1.30023 -1.30023,1.30023 -0.70013,0 -1.30024,-0.60011 -1.30024,-1.30023 0,-0.70013 0.60011,-1.30024 1.30024,-1.30024 z m -25.20462,-77.61421 v 0 c 1.70031,0 3.10057,1.40025 3.10057,3.20058 0,1.70031 -1.40026,3.10057 -3.10057,3.10057 -1.80033,0 -3.20059,-1.40026 -3.20059,-3.10057 0,-1.80033 1.40026,-3.20058 3.20059,-3.20058 z m 0,25.20461 v 0 c 1.70031,0 3.10057,1.50028 3.10057,3.20059 0,1.80033 -1.40026,3.20058 -3.10057,3.20058 -1.80033,0 -3.20059,-1.40025 -3.20059,-3.20058 0,-1.70031 1.40026,-3.20059 3.20059,-3.20059 z m 0,25.30463 v 0 c 1.70031,0 3.10057,1.40026 3.10057,3.20059 0,1.70031 -1.40026,3.10057 -3.10057,3.10057 -1.80033,0 -3.20059,-1.40026 -3.20059,-3.10057 0,-1.80033 1.40026,-3.20059 3.20059,-3.20059 z m 0,27.10497 v 0 c 0.70013,0 1.20022,0.60011 1.20022,1.30024 0,0.70012 -0.50009,1.30023 -1.20022,1.30023 -0.70013,0 -1.30024,-0.60011 -1.30024,-1.30023 0,-0.70013 0.60011,-1.30024 1.30024,-1.30024 z m 75.71386,-75.71387 v 0 c 0.70013,0 1.30024,0.60011 1.30024,1.30024 0,0.70013 -0.60011,1.20022 -1.30024,1.20022 -0.70012,0 -1.30023,-0.50009 -1.30023,-1.20022 0,-0.70013 0.60011,-1.30024 1.30023,-1.30024 z m 0,25.20462 v 0 c 0.70013,0 1.30024,0.60011 1.30024,1.30024 0,0.70013 -0.60011,1.30024 -1.30024,1.30024 -0.70012,0 -1.30023,-0.60011 -1.30023,-1.30024 0,-0.70013 0.60011,-1.30024 1.30023,-1.30024 z m 0,25.30463 v 0 c 0.70013,0 1.30024,0.60011 1.30024,1.30024 0,0.70013 -0.60011,1.20022 -1.30024,1.20022 -0.70012,0 -1.30023,-0.50009 -1.30023,-1.20022 0,-0.70013 0.60011,-1.30024 1.30023,-1.30024 z m 0,19.00348 v 0 c 4.20077,0 7.50138,3.30061 7.50138,7.50138 0,4.20077 -3.30061,7.60139 -7.50138,7.60139 -4.20076,0 -7.60139,-3.40062 -7.60139,-7.60139 0,-4.20077 3.40063,-7.50138 7.60139,-7.50138 z M 411.37533,434.67959 v 0 c 0.70013,0 1.30024,0.60011 1.30024,1.30024 0,0.70013 -0.60011,1.20022 -1.30024,1.20022 -0.70013,0 -1.20022,-0.50009 -1.20022,-1.20022 0,-0.70013 0.50009,-1.30024 1.20022,-1.30024 z m 0,25.20462 v 0 c 0.70013,0 1.30024,0.60011 1.30024,1.30024 0,0.70013 -0.60011,1.30024 -1.30024,1.30024 -0.70013,0 -1.20022,-0.60011 -1.20022,-1.30024 0,-0.70013 0.50009,-1.30024 1.20022,-1.30024 z m 0,25.30463 v 0 c 0.70013,0 1.30024,0.60011 1.30024,1.30024 0,0.70013 -0.60011,1.20022 -1.30024,1.20022 -0.70013,0 -1.20022,-0.50009 -1.20022,-1.20022 0,-0.70013 0.50009,-1.30024 1.20022,-1.30024 z m 0,19.00348 v 0 c 4.20077,0 7.60139,3.30061 7.60139,7.50138 0,4.20077 -3.40062,7.60139 -7.60139,7.60139 -4.10075,0 -7.50138,-3.40062 -7.50138,-7.60139 0,-4.20077 3.40063,-7.50138 7.50138,-7.50138 z M 83.215238,331.76075 v 0 c 1.800329,0 3.200586,1.50027 3.200586,3.20058 0,1.80033 -1.400257,3.20059 -3.200586,3.20059 -1.700312,0 -3.200587,-1.40026 -3.200587,-3.20059 0,-1.70031 1.500275,-3.20058 3.200587,-3.20058 z m 0,25.30463 v 0 c 1.800329,0 3.200586,1.40026 3.200586,3.20059 0,1.70031 -1.400257,3.10057 -3.200586,3.10057 -1.700312,0 -3.200587,-1.40026 -3.200587,-3.10057 0,-1.80033 1.500275,-3.20059 3.200587,-3.20059 z m 0,25.20462 v 0 c 1.800329,0 3.200586,1.40025 3.200586,3.20058 0,1.70031 -1.400257,3.20059 -3.200586,3.20059 -1.700312,0 -3.200587,-1.50028 -3.200587,-3.20059 0,-1.80033 1.500275,-3.20058 3.200587,-3.20058 z m 0,27.20498 v 0 c 0.700128,0 1.300238,0.50009 1.300238,1.20022 0,0.70013 -0.60011,1.30024 -1.300238,1.30024 -0.700129,0 -1.300239,-0.60011 -1.300239,-1.30024 0,-0.70013 0.60011,-1.20022 1.300239,-1.20022 z M 58.010622,331.76075 v 0 c 1.700312,0 3.100568,1.50027 3.100568,3.20058 0,1.80033 -1.400256,3.20059 -3.100568,3.20059 -1.800329,0 -3.200586,-1.40026 -3.200586,-3.20059 0,-1.70031 1.400257,-3.20058 3.200586,-3.20058 z m 0,25.30463 v 0 c 1.700312,0 3.100568,1.40026 3.100568,3.20059 0,1.70031 -1.400256,3.10057 -3.100568,3.10057 -1.800329,0 -3.200586,-1.40026 -3.200586,-3.10057 0,-1.80033 1.400257,-3.20059 3.200586,-3.20059 z m 0,25.20462 v 0 c 1.700312,0 3.100568,1.40025 3.100568,3.20058 0,1.70031 -1.400256,3.20059 -3.100568,3.20059 -1.800329,0 -3.200586,-1.50028 -3.200586,-3.20059 0,-1.80033 1.400257,-3.20058 3.200586,-3.20058 z m 0,27.20498 v 0 c 0.700129,0 1.20022,0.50009 1.20022,1.20022 0,0.70013 -0.500091,1.30024 -1.20022,1.30024 -0.700128,0 -1.300238,-0.60011 -1.300238,-1.30024 0,-0.70013 0.60011,-1.20022 1.300238,-1.20022 z M 32.705989,331.76075 v 0 c 1.800329,0 3.200586,1.50027 3.200586,3.20058 0,1.80033 -1.400257,3.20059 -3.200586,3.20059 -1.700312,0 -3.100568,-1.40026 -3.100568,-3.20059 0,-1.70031 1.400256,-3.20058 3.100568,-3.20058 z m 0,25.30463 v 0 c 1.800329,0 3.200586,1.40026 3.200586,3.20059 0,1.70031 -1.400257,3.10057 -3.200586,3.10057 -1.700312,0 -3.100568,-1.40026 -3.100568,-3.10057 0,-1.80033 1.400256,-3.20059 3.100568,-3.20059 z m 0,25.20462 v 0 c 1.800329,0 3.200586,1.40025 3.200586,3.20058 0,1.70031 -1.400257,3.20059 -3.200586,3.20059 -1.700312,0 -3.100568,-1.50028 -3.100568,-3.20059 0,-1.80033 1.400256,-3.20058 3.100568,-3.20058 z m 0,27.20498 v 0 c 0.700128,0 1.300238,0.50009 1.300238,1.20022 0,0.70013 -0.60011,1.30024 -1.300238,1.30024 -0.700128,0 -1.20022,-0.60011 -1.20022,-1.30024 0,-0.70013 0.500092,-1.20022 1.20022,-1.20022 z M 7.5013736,333.6611 v 0 c 0.7001282,0 1.3002381,0.60011 1.3002381,1.30023 0,0.70013 -0.6001099,1.30024 -1.3002381,1.30024 -0.7001282,0 -1.3002381,-0.60011 -1.3002381,-1.30024 0,-0.70012 0.6001099,-1.30023 1.3002381,-1.30023 z m 0,25.30463 v 0 c 0.7001282,0 1.3002381,0.60011 1.3002381,1.30024 0,0.70013 -0.6001099,1.20022 -1.3002381,1.20022 -0.7001282,0 -1.3002381,-0.50009 -1.3002381,-1.20022 0,-0.70013 0.6001099,-1.30024 1.3002381,-1.30024 z m 0,25.20462 v 0 c 0.7001282,0 1.3002381,0.60011 1.3002381,1.30023 0,0.70013 -0.6001099,1.30024 -1.3002381,1.30024 -0.7001282,0 -1.3002381,-0.60011 -1.3002381,-1.30024 0,-0.70012 0.6001099,-1.30023 1.3002381,-1.30023 z m 0,19.00348 v 0 c 4.2007694,0 7.5013734,3.40062 7.5013734,7.50137 0,4.20077 -3.300604,7.60139 -7.5013734,7.60139 C 3.3006044,418.27659 0,414.87597 0,410.6752 c 0,-4.10075 3.3006044,-7.50137 7.5013736,-7.50137 z M 184.23374,331.76075 v 0 c 1.70031,0 3.10056,1.50027 3.10056,3.20058 0,1.80033 -1.40025,3.20059 -3.10056,3.20059 -1.80033,0 -3.20059,-1.40026 -3.20059,-3.20059 0,-1.70031 1.40026,-3.20058 3.20059,-3.20058 z m 0,25.30463 v 0 c 1.70031,0 3.10056,1.40026 3.10056,3.20059 0,1.70031 -1.40025,3.10057 -3.10056,3.10057 -1.80033,0 -3.20059,-1.40026 -3.20059,-3.10057 0,-1.80033 1.40026,-3.20059 3.20059,-3.20059 z m 0,25.20462 v 0 c 1.70031,0 3.10056,1.40025 3.10056,3.20058 0,1.70031 -1.40025,3.20059 -3.10056,3.20059 -1.80033,0 -3.20059,-1.50028 -3.20059,-3.20059 0,-1.80033 1.40026,-3.20058 3.20059,-3.20058 z m 0,27.20498 v 0 c 0.70012,0 1.20021,0.50009 1.20021,1.20022 0,0.70013 -0.50009,1.30024 -1.20021,1.30024 -0.70013,0 -1.30024,-0.60011 -1.30024,-1.30024 0,-0.70013 0.60011,-1.20022 1.30024,-1.20022 z M 158.9291,331.76075 v 0 c 1.80033,0 3.20059,1.50027 3.20059,3.20058 0,1.80033 -1.40026,3.20059 -3.20059,3.20059 -1.70031,0 -3.10057,-1.40026 -3.10057,-3.20059 0,-1.70031 1.40026,-3.20058 3.10057,-3.20058 z m 0,25.30463 v 0 c 1.80033,0 3.20059,1.40026 3.20059,3.20059 0,1.70031 -1.40026,3.10057 -3.20059,3.10057 -1.70031,0 -3.10057,-1.40026 -3.10057,-3.10057 0,-1.80033 1.40026,-3.20059 3.10057,-3.20059 z m 0,25.20462 v 0 c 1.80033,0 3.20059,1.40025 3.20059,3.20058 0,1.70031 -1.40026,3.20059 -3.20059,3.20059 -1.70031,0 -3.10057,-1.50028 -3.10057,-3.20059 0,-1.80033 1.40026,-3.20058 3.10057,-3.20058 z m 0,27.20498 v 0 c 0.70013,0 1.30024,0.50009 1.30024,1.20022 0,0.70013 -0.60011,1.30024 -1.30024,1.30024 -0.70013,0 -1.20022,-0.60011 -1.20022,-1.30024 0,-0.70013 0.50009,-1.20022 1.20022,-1.20022 z m -25.20461,-77.71423 v 0 c 1.70031,0 3.20058,1.50027 3.20058,3.20058 0,1.80033 -1.50027,3.20059 -3.20058,3.20059 -1.80033,0 -3.20059,-1.40026 -3.20059,-3.20059 0,-1.70031 1.40026,-3.20058 3.20059,-3.20058 z m 0,25.30463 v 0 c 1.70031,0 3.20058,1.40026 3.20058,3.20059 0,1.70031 -1.50027,3.10057 -3.20058,3.10057 -1.80033,0 -3.20059,-1.40026 -3.20059,-3.10057 0,-1.80033 1.40026,-3.20059 3.20059,-3.20059 z m 0,25.20462 v 0 c 1.70031,0 3.20058,1.40025 3.20058,3.20058 0,1.70031 -1.50027,3.20059 -3.20058,3.20059 -1.80033,0 -3.20059,-1.50028 -3.20059,-3.20059 0,-1.80033 1.40026,-3.20058 3.20059,-3.20058 z m 0,27.20498 v 0 c 0.70012,0 1.30023,0.50009 1.30023,1.20022 0,0.70013 -0.60011,1.30024 -1.30023,1.30024 -0.70013,0 -1.30024,-0.60011 -1.30024,-1.30024 0,-0.70013 0.60011,-1.20022 1.30024,-1.20022 z M 108.51987,333.6611 v 0 c 0.70013,0 1.20022,0.60011 1.20022,1.30023 0,0.70013 -0.50009,1.30024 -1.20022,1.30024 -0.70013,0 -1.30024,-0.60011 -1.30024,-1.30024 0,-0.70012 0.60011,-1.30023 1.30024,-1.30023 z m 0,25.30463 v 0 c 0.70013,0 1.20022,0.60011 1.20022,1.30024 0,0.70013 -0.50009,1.20022 -1.20022,1.20022 -0.70013,0 -1.30024,-0.50009 -1.30024,-1.20022 0,-0.70013 0.60011,-1.30024 1.30024,-1.30024 z m 0,25.20462 v 0 c 0.70013,0 1.20022,0.60011 1.20022,1.30023 0,0.70013 -0.50009,1.30024 -1.20022,1.30024 -0.70013,0 -1.30024,-0.60011 -1.30024,-1.30024 0,-0.70012 0.60011,-1.30023 1.30024,-1.30023 z m 0,19.00348 v 0 c 4.10075,0 7.50137,3.40062 7.50137,7.50137 0,4.20077 -3.40062,7.60139 -7.50137,7.60139 -4.20077,0 -7.60139,-3.40062 -7.60139,-7.60139 0,-4.10075 3.40062,-7.50137 7.60139,-7.50137 z m 176.63234,-71.41308 v 0 c 1.80033,0 3.20059,1.50027 3.20059,3.20058 0,1.80033 -1.40026,3.20059 -3.20059,3.20059 -1.70031,0 -3.10056,-1.40026 -3.10056,-3.20059 0,-1.70031 1.40025,-3.20058 3.10056,-3.20058 z m 0,25.30463 v 0 c 1.80033,0 3.20059,1.40026 3.20059,3.20059 0,1.70031 -1.40026,3.10057 -3.20059,3.10057 -1.70031,0 -3.10056,-1.40026 -3.10056,-3.10057 0,-1.80033 1.40025,-3.20059 3.10056,-3.20059 z m 0,25.20462 v 0 c 1.80033,0 3.20059,1.40025 3.20059,3.20058 0,1.70031 -1.40026,3.20059 -3.20059,3.20059 -1.70031,0 -3.10056,-1.50028 -3.10056,-3.20059 0,-1.80033 1.40025,-3.20058 3.10056,-3.20058 z m 0,27.20498 v 0 c 0.70013,0 1.30024,0.50009 1.30024,1.20022 0,0.70013 -0.60011,1.30024 -1.30024,1.30024 -0.70012,0 -1.20022,-0.60011 -1.20022,-1.30024 0,-0.70013 0.5001,-1.20022 1.20022,-1.20022 z M 259.9476,331.76075 v 0 c 1.70031,0 3.20059,1.50027 3.20059,3.20058 0,1.80033 -1.50028,3.20059 -3.20059,3.20059 -1.80033,0 -3.20059,-1.40026 -3.20059,-3.20059 0,-1.70031 1.40026,-3.20058 3.20059,-3.20058 z m 0,25.30463 v 0 c 1.70031,0 3.20059,1.40026 3.20059,3.20059 0,1.70031 -1.50028,3.10057 -3.20059,3.10057 -1.80033,0 -3.20059,-1.40026 -3.20059,-3.10057 0,-1.80033 1.40026,-3.20059 3.20059,-3.20059 z m 0,25.20462 v 0 c 1.70031,0 3.20059,1.40025 3.20059,3.20058 0,1.70031 -1.50028,3.20059 -3.20059,3.20059 -1.80033,0 -3.20059,-1.50028 -3.20059,-3.20059 0,-1.80033 1.40026,-3.20058 3.20059,-3.20058 z m 0,27.20498 v 0 c 0.70013,0 1.30024,0.50009 1.30024,1.20022 0,0.70013 -0.60011,1.30024 -1.30024,1.30024 -0.70013,0 -1.30024,-0.60011 -1.30024,-1.30024 0,-0.70013 0.60011,-1.20022 1.30024,-1.20022 z m -25.20462,-77.71423 v 0 c 1.70032,0 3.10057,1.50027 3.10057,3.20058 0,1.80033 -1.40025,3.20059 -3.10057,3.20059 -1.80033,0 -3.20058,-1.40026 -3.20058,-3.20059 0,-1.70031 1.40025,-3.20058 3.20058,-3.20058 z m 0,25.30463 v 0 c 1.70032,0 3.10057,1.40026 3.10057,3.20059 0,1.70031 -1.40025,3.10057 -3.10057,3.10057 -1.80033,0 -3.20058,-1.40026 -3.20058,-3.10057 0,-1.80033 1.40025,-3.20059 3.20058,-3.20059 z m 0,25.20462 v 0 c 1.70032,0 3.10057,1.40025 3.10057,3.20058 0,1.70031 -1.40025,3.20059 -3.10057,3.20059 -1.80033,0 -3.20058,-1.50028 -3.20058,-3.20059 0,-1.80033 1.40025,-3.20058 3.20058,-3.20058 z m 0,27.20498 v 0 c 0.70013,0 1.20022,0.50009 1.20022,1.20022 0,0.70013 -0.50009,1.30024 -1.20022,1.30024 -0.70012,0 -1.30023,-0.60011 -1.30023,-1.30024 0,-0.70013 0.60011,-1.20022 1.30023,-1.20022 z M 209.43835,333.6611 v 0 c 0.70013,0 1.30024,0.60011 1.30024,1.30023 0,0.70013 -0.60011,1.30024 -1.30024,1.30024 -0.70013,0 -1.30024,-0.60011 -1.30024,-1.30024 0,-0.70012 0.60011,-1.30023 1.30024,-1.30023 z m 0,25.30463 v 0 c 0.70013,0 1.30024,0.60011 1.30024,1.30024 0,0.70013 -0.60011,1.20022 -1.30024,1.20022 -0.70013,0 -1.30024,-0.50009 -1.30024,-1.20022 0,-0.70013 0.60011,-1.30024 1.30024,-1.30024 z m 0,25.20462 v 0 c 0.70013,0 1.30024,0.60011 1.30024,1.30023 0,0.70013 -0.60011,1.30024 -1.30024,1.30024 -0.70013,0 -1.30024,-0.60011 -1.30024,-1.30024 0,-0.70012 0.60011,-1.30023 1.30024,-1.30023 z m 0,19.00348 v 0 c 4.20077,0 7.60139,3.40062 7.60139,7.50137 0,4.20077 -3.40062,7.60139 -7.60139,7.60139 -4.20077,0 -7.50137,-3.40062 -7.50137,-7.60139 0,-4.10075 3.3006,-7.50137 7.50137,-7.50137 z m 176.73236,-71.41308 v 0 c 1.70031,0 3.20059,1.50027 3.20059,3.20058 0,1.80033 -1.50028,3.20059 -3.20059,3.20059 -1.80033,0 -3.20058,-1.40026 -3.20058,-3.20059 0,-1.70031 1.40025,-3.20058 3.20058,-3.20058 z m 0,25.30463 v 0 c 1.70031,0 3.20059,1.40026 3.20059,3.20059 0,1.70031 -1.50028,3.10057 -3.20059,3.10057 -1.80033,0 -3.20058,-1.40026 -3.20058,-3.10057 0,-1.80033 1.40025,-3.20059 3.20058,-3.20059 z m 0,25.20462 v 0 c 1.70031,0 3.20059,1.40025 3.20059,3.20058 0,1.70031 -1.50028,3.20059 -3.20059,3.20059 -1.80033,0 -3.20058,-1.50028 -3.20058,-3.20059 0,-1.80033 1.40025,-3.20058 3.20058,-3.20058 z m 0,27.20498 v 0 c 0.70013,0 1.30024,0.50009 1.30024,1.20022 0,0.70013 -0.60011,1.30024 -1.30024,1.30024 -0.70013,0 -1.30024,-0.60011 -1.30024,-1.30024 0,-0.70013 0.60011,-1.20022 1.30024,-1.20022 z M 360.9661,331.76075 v 0 c 1.70031,0 3.10056,1.50027 3.10056,3.20058 0,1.80033 -1.40025,3.20059 -3.10056,3.20059 -1.80033,0 -3.20059,-1.40026 -3.20059,-3.20059 0,-1.70031 1.40026,-3.20058 3.20059,-3.20058 z m 0,25.30463 v 0 c 1.70031,0 3.10056,1.40026 3.10056,3.20059 0,1.70031 -1.40025,3.10057 -3.10056,3.10057 -1.80033,0 -3.20059,-1.40026 -3.20059,-3.10057 0,-1.80033 1.40026,-3.20059 3.20059,-3.20059 z m 0,25.20462 v 0 c 1.70031,0 3.10056,1.40025 3.10056,3.20058 0,1.70031 -1.40025,3.20059 -3.10056,3.20059 -1.80033,0 -3.20059,-1.50028 -3.20059,-3.20059 0,-1.80033 1.40026,-3.20058 3.20059,-3.20058 z m 0,27.20498 v 0 c 0.70012,0 1.20022,0.50009 1.20022,1.20022 0,0.70013 -0.5001,1.30024 -1.20022,1.30024 -0.70013,0 -1.30024,-0.60011 -1.30024,-1.30024 0,-0.70013 0.60011,-1.20022 1.30024,-1.20022 z m -25.30464,-77.71423 v 0 c 1.80033,0 3.20059,1.50027 3.20059,3.20058 0,1.80033 -1.40026,3.20059 -3.20059,3.20059 -1.70031,0 -3.20058,-1.40026 -3.20058,-3.20059 0,-1.70031 1.50027,-3.20058 3.20058,-3.20058 z m 0,25.30463 v 0 c 1.80033,0 3.20059,1.40026 3.20059,3.20059 0,1.70031 -1.40026,3.10057 -3.20059,3.10057 -1.70031,0 -3.20058,-1.40026 -3.20058,-3.10057 0,-1.80033 1.50027,-3.20059 3.20058,-3.20059 z m 0,25.20462 v 0 c 1.80033,0 3.20059,1.40025 3.20059,3.20058 0,1.70031 -1.40026,3.20059 -3.20059,3.20059 -1.70031,0 -3.20058,-1.50028 -3.20058,-3.20059 0,-1.80033 1.50027,-3.20058 3.20058,-3.20058 z m 0,27.20498 v 0 c 0.70013,0 1.30024,0.50009 1.30024,1.20022 0,0.70013 -0.60011,1.30024 -1.30024,1.30024 -0.70013,0 -1.30024,-0.60011 -1.30024,-1.30024 0,-0.70013 0.60011,-1.20022 1.30024,-1.20022 z M 310.45685,333.6611 v 0 c 0.70013,0 1.20022,0.60011 1.20022,1.30023 0,0.70013 -0.50009,1.30024 -1.20022,1.30024 -0.70013,0 -1.30024,-0.60011 -1.30024,-1.30024 0,-0.70012 0.60011,-1.30023 1.30024,-1.30023 z m 0,25.30463 v 0 c 0.70013,0 1.20022,0.60011 1.20022,1.30024 0,0.70013 -0.50009,1.20022 -1.20022,1.20022 -0.70013,0 -1.30024,-0.50009 -1.30024,-1.20022 0,-0.70013 0.60011,-1.30024 1.30024,-1.30024 z m 0,25.20462 v 0 c 0.70013,0 1.20022,0.60011 1.20022,1.30023 0,0.70013 -0.50009,1.30024 -1.20022,1.30024 -0.70013,0 -1.30024,-0.60011 -1.30024,-1.30024 0,-0.70012 0.60011,-1.30023 1.30024,-1.30023 z m 0,19.00348 v 0 c 4.10075,0 7.50137,3.40062 7.50137,7.50137 0,4.20077 -3.40062,7.60139 -7.50137,7.60139 -4.20077,0 -7.60139,-3.40062 -7.60139,-7.60139 0,-4.10075 3.40062,-7.50137 7.60139,-7.50137 z m 176.73236,-71.41308 v 0 c 1.70031,0 3.10057,1.50027 3.10057,3.20058 0,1.80033 -1.40026,3.20059 -3.10057,3.20059 -1.80033,0 -3.20059,-1.40026 -3.20059,-3.20059 0,-1.70031 1.40026,-3.20058 3.20059,-3.20058 z m 0,25.30463 v 0 c 1.70031,0 3.10057,1.40026 3.10057,3.20059 0,1.70031 -1.40026,3.10057 -3.10057,3.10057 -1.80033,0 -3.20059,-1.40026 -3.20059,-3.10057 0,-1.80033 1.40026,-3.20059 3.20059,-3.20059 z m 0,25.20462 v 0 c 1.70031,0 3.10057,1.40025 3.10057,3.20058 0,1.70031 -1.40026,3.20059 -3.10057,3.20059 -1.80033,0 -3.20059,-1.50028 -3.20059,-3.20059 0,-1.80033 1.40026,-3.20058 3.20059,-3.20058 z m 0,27.20498 v 0 c 0.70013,0 1.20022,0.50009 1.20022,1.20022 0,0.70013 -0.50009,1.30024 -1.20022,1.30024 -0.70013,0 -1.30024,-0.60011 -1.30024,-1.30024 0,-0.70013 0.60011,-1.20022 1.30024,-1.20022 z m -25.30463,-77.71423 v 0 c 1.80033,0 3.20058,1.50027 3.20058,3.20058 0,1.80033 -1.40025,3.20059 -3.20058,3.20059 -1.70032,0 -3.20059,-1.40026 -3.20059,-3.20059 0,-1.70031 1.50027,-3.20058 3.20059,-3.20058 z m 0,25.30463 v 0 c 1.80033,0 3.20058,1.40026 3.20058,3.20059 0,1.70031 -1.40025,3.10057 -3.20058,3.10057 -1.70032,0 -3.20059,-1.40026 -3.20059,-3.10057 0,-1.80033 1.50027,-3.20059 3.20059,-3.20059 z m 0,25.20462 v 0 c 1.80033,0 3.20058,1.40025 3.20058,3.20058 0,1.70031 -1.40025,3.20059 -3.20058,3.20059 -1.70032,0 -3.20059,-1.50028 -3.20059,-3.20059 0,-1.80033 1.50027,-3.20058 3.20059,-3.20058 z m 0,27.20498 v 0 c 0.70012,0 1.30023,0.50009 1.30023,1.20022 0,0.70013 -0.60011,1.30024 -1.30023,1.30024 -0.70013,0 -1.30024,-0.60011 -1.30024,-1.30024 0,-0.70013 0.60011,-1.20022 1.30024,-1.20022 z m -25.20462,-77.71423 v 0 c 1.70031,0 3.10057,1.50027 3.10057,3.20058 0,1.80033 -1.40026,3.20059 -3.10057,3.20059 -1.80033,0 -3.20059,-1.40026 -3.20059,-3.20059 0,-1.70031 1.40026,-3.20058 3.20059,-3.20058 z m 0,25.30463 v 0 c 1.70031,0 3.10057,1.40026 3.10057,3.20059 0,1.70031 -1.40026,3.10057 -3.10057,3.10057 -1.80033,0 -3.20059,-1.40026 -3.20059,-3.10057 0,-1.80033 1.40026,-3.20059 3.20059,-3.20059 z m 0,25.20462 v 0 c 1.70031,0 3.10057,1.40025 3.10057,3.20058 0,1.70031 -1.40026,3.20059 -3.10057,3.20059 -1.80033,0 -3.20059,-1.50028 -3.20059,-3.20059 0,-1.80033 1.40026,-3.20058 3.20059,-3.20058 z m 0,27.20498 v 0 c 0.70013,0 1.20022,0.50009 1.20022,1.20022 0,0.70013 -0.50009,1.30024 -1.20022,1.30024 -0.70013,0 -1.30024,-0.60011 -1.30024,-1.30024 0,-0.70013 0.60011,-1.20022 1.30024,-1.20022 z m 75.71386,-75.81388 v 0 c 0.70013,0 1.30024,0.60011 1.30024,1.30023 0,0.70013 -0.60011,1.30024 -1.30024,1.30024 -0.70012,0 -1.30023,-0.60011 -1.30023,-1.30024 0,-0.70012 0.60011,-1.30023 1.30023,-1.30023 z m 0,25.30463 v 0 c 0.70013,0 1.30024,0.60011 1.30024,1.30024 0,0.70013 -0.60011,1.20022 -1.30024,1.20022 -0.70012,0 -1.30023,-0.50009 -1.30023,-1.20022 0,-0.70013 0.60011,-1.30024 1.30023,-1.30024 z m 0,25.20462 v 0 c 0.70013,0 1.30024,0.60011 1.30024,1.30023 0,0.70013 -0.60011,1.30024 -1.30024,1.30024 -0.70012,0 -1.30023,-0.60011 -1.30023,-1.30024 0,-0.70012 0.60011,-1.30023 1.30023,-1.30023 z m 0,19.00348 v 0 c 4.20077,0 7.50138,3.40062 7.50138,7.50137 0,4.20077 -3.30061,7.60139 -7.50138,7.60139 -4.20076,0 -7.60139,-3.40062 -7.60139,-7.60139 0,-4.10075 3.40063,-7.50137 7.60139,-7.50137 z M 411.37533,333.6611 v 0 c 0.70013,0 1.30024,0.60011 1.30024,1.30023 0,0.70013 -0.60011,1.30024 -1.30024,1.30024 -0.70013,0 -1.20022,-0.60011 -1.20022,-1.30024 0,-0.70012 0.50009,-1.30023 1.20022,-1.30023 z m 0,25.30463 v 0 c 0.70013,0 1.30024,0.60011 1.30024,1.30024 0,0.70013 -0.60011,1.20022 -1.30024,1.20022 -0.70013,0 -1.20022,-0.50009 -1.20022,-1.20022 0,-0.70013 0.50009,-1.30024 1.20022,-1.30024 z m 0,25.20462 v 0 c 0.70013,0 1.30024,0.60011 1.30024,1.30023 0,0.70013 -0.60011,1.30024 -1.30024,1.30024 -0.70013,0 -1.20022,-0.60011 -1.20022,-1.30024 0,-0.70012 0.50009,-1.30023 1.20022,-1.30023 z m 0,19.00348 v 0 c 4.20077,0 7.60139,3.40062 7.60139,7.50137 0,4.20077 -3.40062,7.60139 -7.60139,7.60139 -4.10075,0 -7.50138,-3.40062 -7.50138,-7.60139 0,-4.10075 3.40063,-7.50137 7.50138,-7.50137 z M 83.215238,230.84227 v 0 c 1.800329,0 3.200586,1.40026 3.200586,3.20059 0,1.70031 -1.400257,3.10056 -3.200586,3.10056 -1.700312,0 -3.200587,-1.40025 -3.200587,-3.10056 0,-1.80033 1.500275,-3.20059 3.200587,-3.20059 z m 0,25.20461 v 0 c 1.800329,0 3.200586,1.40026 3.200586,3.20059 0,1.70031 -1.400257,3.20059 -3.200586,3.20059 -1.700312,0 -3.200587,-1.50028 -3.200587,-3.20059 0,-1.80033 1.500275,-3.20059 3.200587,-3.20059 z m 0,25.30464 v 0 c 1.800329,0 3.200586,1.40025 3.200586,3.10057 0,1.80033 -1.400257,3.20058 -3.200586,3.20058 -1.700312,0 -3.200587,-1.40025 -3.200587,-3.20058 0,-1.70032 1.500275,-3.10057 3.200587,-3.10057 z m 0,27.10496 v 0 c 0.700128,0 1.300238,0.60011 1.300238,1.30024 0,0.70013 -0.60011,1.30024 -1.300238,1.30024 -0.700129,0 -1.300239,-0.60011 -1.300239,-1.30024 0,-0.70013 0.60011,-1.30024 1.300239,-1.30024 z M 58.010622,230.84227 v 0 c 1.700312,0 3.100568,1.40026 3.100568,3.20059 0,1.70031 -1.400256,3.10056 -3.100568,3.10056 -1.800329,0 -3.200586,-1.40025 -3.200586,-3.10056 0,-1.80033 1.400257,-3.20059 3.200586,-3.20059 z m 0,25.20461 v 0 c 1.700312,0 3.100568,1.40026 3.100568,3.20059 0,1.70031 -1.400256,3.20059 -3.100568,3.20059 -1.800329,0 -3.200586,-1.50028 -3.200586,-3.20059 0,-1.80033 1.400257,-3.20059 3.200586,-3.20059 z m 0,25.30464 v 0 c 1.700312,0 3.100568,1.40025 3.100568,3.10057 0,1.80033 -1.400256,3.20058 -3.100568,3.20058 -1.800329,0 -3.200586,-1.40025 -3.200586,-3.20058 0,-1.70032 1.400257,-3.10057 3.200586,-3.10057 z m 0,27.10496 v 0 c 0.700129,0 1.20022,0.60011 1.20022,1.30024 0,0.70013 -0.500091,1.30024 -1.20022,1.30024 -0.700128,0 -1.300238,-0.60011 -1.300238,-1.30024 0,-0.70013 0.60011,-1.30024 1.300238,-1.30024 z M 32.705989,230.84227 v 0 c 1.800329,0 3.200586,1.40026 3.200586,3.20059 0,1.70031 -1.400257,3.10056 -3.200586,3.10056 -1.700312,0 -3.100568,-1.40025 -3.100568,-3.10056 0,-1.80033 1.400256,-3.20059 3.100568,-3.20059 z m 0,25.20461 v 0 c 1.800329,0 3.200586,1.40026 3.200586,3.20059 0,1.70031 -1.400257,3.20059 -3.200586,3.20059 -1.700312,0 -3.100568,-1.50028 -3.100568,-3.20059 0,-1.80033 1.400256,-3.20059 3.100568,-3.20059 z m 0,25.30464 v 0 c 1.800329,0 3.200586,1.40025 3.200586,3.10057 0,1.80033 -1.400257,3.20058 -3.200586,3.20058 -1.700312,0 -3.100568,-1.40025 -3.100568,-3.20058 0,-1.70032 1.400256,-3.10057 3.100568,-3.10057 z m 0,27.10496 v 0 c 0.700128,0 1.300238,0.60011 1.300238,1.30024 0,0.70013 -0.60011,1.30024 -1.300238,1.30024 -0.700128,0 -1.20022,-0.60011 -1.20022,-1.30024 0,-0.70013 0.500092,-1.30024 1.20022,-1.30024 z M 7.5013736,232.74262 v 0 c 0.7001282,0 1.3002381,0.60011 1.3002381,1.30024 0,0.70012 -0.6001099,1.20022 -1.3002381,1.20022 -0.7001282,0 -1.3002381,-0.5001 -1.3002381,-1.20022 0,-0.70013 0.6001099,-1.30024 1.3002381,-1.30024 z m 0,25.20461 v 0 c 0.7001282,0 1.3002381,0.60011 1.3002381,1.30024 0,0.70013 -0.6001099,1.30024 -1.3002381,1.30024 -0.7001282,0 -1.3002381,-0.60011 -1.3002381,-1.30024 0,-0.70013 0.6001099,-1.30024 1.3002381,-1.30024 z m 0,25.30464 v 0 c 0.7001282,0 1.3002381,0.50009 1.3002381,1.20022 0,0.70012 -0.6001099,1.30023 -1.3002381,1.30023 -0.7001282,0 -1.3002381,-0.60011 -1.3002381,-1.30023 0,-0.70013 0.6001099,-1.20022 1.3002381,-1.20022 z m 0,18.90346 v 0 c 4.2007694,0 7.5013734,3.40062 7.5013734,7.60139 0,4.20077 -3.300604,7.50137 -7.5013734,7.50137 C 3.3006044,317.25809 0,313.95749 0,309.75672 c 0,-4.20077 3.3006044,-7.60139 7.5013736,-7.60139 z M 184.23374,230.84227 v 0 c 1.70031,0 3.10056,1.40026 3.10056,3.20059 0,1.70031 -1.40025,3.10056 -3.10056,3.10056 -1.80033,0 -3.20059,-1.40025 -3.20059,-3.10056 0,-1.80033 1.40026,-3.20059 3.20059,-3.20059 z m 0,25.20461 v 0 c 1.70031,0 3.10056,1.40026 3.10056,3.20059 0,1.70031 -1.40025,3.20059 -3.10056,3.20059 -1.80033,0 -3.20059,-1.50028 -3.20059,-3.20059 0,-1.80033 1.40026,-3.20059 3.20059,-3.20059 z m 0,25.30464 v 0 c 1.70031,0 3.10056,1.40025 3.10056,3.10057 0,1.80033 -1.40025,3.20058 -3.10056,3.20058 -1.80033,0 -3.20059,-1.40025 -3.20059,-3.20058 0,-1.70032 1.40026,-3.10057 3.20059,-3.10057 z m 0,27.10496 v 0 c 0.70012,0 1.20021,0.60011 1.20021,1.30024 0,0.70013 -0.50009,1.30024 -1.20021,1.30024 -0.70013,0 -1.30024,-0.60011 -1.30024,-1.30024 0,-0.70013 0.60011,-1.30024 1.30024,-1.30024 z M 158.9291,230.84227 v 0 c 1.80033,0 3.20059,1.40026 3.20059,3.20059 0,1.70031 -1.40026,3.10056 -3.20059,3.10056 -1.70031,0 -3.10057,-1.40025 -3.10057,-3.10056 0,-1.80033 1.40026,-3.20059 3.10057,-3.20059 z m 0,25.20461 v 0 c 1.80033,0 3.20059,1.40026 3.20059,3.20059 0,1.70031 -1.40026,3.20059 -3.20059,3.20059 -1.70031,0 -3.10057,-1.50028 -3.10057,-3.20059 0,-1.80033 1.40026,-3.20059 3.10057,-3.20059 z m 0,25.30464 v 0 c 1.80033,0 3.20059,1.40025 3.20059,3.10057 0,1.80033 -1.40026,3.20058 -3.20059,3.20058 -1.70031,0 -3.10057,-1.40025 -3.10057,-3.20058 0,-1.70032 1.40026,-3.10057 3.10057,-3.10057 z m 0,27.10496 v 0 c 0.70013,0 1.30024,0.60011 1.30024,1.30024 0,0.70013 -0.60011,1.30024 -1.30024,1.30024 -0.70013,0 -1.20022,-0.60011 -1.20022,-1.30024 0,-0.70013 0.50009,-1.30024 1.20022,-1.30024 z m -25.20461,-77.61421 v 0 c 1.70031,0 3.20058,1.40026 3.20058,3.20059 0,1.70031 -1.50027,3.10056 -3.20058,3.10056 -1.80033,0 -3.20059,-1.40025 -3.20059,-3.10056 0,-1.80033 1.40026,-3.20059 3.20059,-3.20059 z m 0,25.20461 v 0 c 1.70031,0 3.20058,1.40026 3.20058,3.20059 0,1.70031 -1.50027,3.20059 -3.20058,3.20059 -1.80033,0 -3.20059,-1.50028 -3.20059,-3.20059 0,-1.80033 1.40026,-3.20059 3.20059,-3.20059 z m 0,25.30464 v 0 c 1.70031,0 3.20058,1.40025 3.20058,3.10057 0,1.80033 -1.50027,3.20058 -3.20058,3.20058 -1.80033,0 -3.20059,-1.40025 -3.20059,-3.20058 0,-1.70032 1.40026,-3.10057 3.20059,-3.10057 z m 0,27.10496 v 0 c 0.70012,0 1.30023,0.60011 1.30023,1.30024 0,0.70013 -0.60011,1.30024 -1.30023,1.30024 -0.70013,0 -1.30024,-0.60011 -1.30024,-1.30024 0,-0.70013 0.60011,-1.30024 1.30024,-1.30024 z m -25.20462,-75.71386 v 0 c 0.70013,0 1.20022,0.60011 1.20022,1.30024 0,0.70012 -0.50009,1.20022 -1.20022,1.20022 -0.70013,0 -1.30024,-0.5001 -1.30024,-1.20022 0,-0.70013 0.60011,-1.30024 1.30024,-1.30024 z m 0,25.20461 v 0 c 0.70013,0 1.20022,0.60011 1.20022,1.30024 0,0.70013 -0.50009,1.30024 -1.20022,1.30024 -0.70013,0 -1.30024,-0.60011 -1.30024,-1.30024 0,-0.70013 0.60011,-1.30024 1.30024,-1.30024 z m 0,25.30464 v 0 c 0.70013,0 1.20022,0.50009 1.20022,1.20022 0,0.70012 -0.50009,1.30023 -1.20022,1.30023 -0.70013,0 -1.30024,-0.60011 -1.30024,-1.30023 0,-0.70013 0.60011,-1.20022 1.30024,-1.20022 z m 0,18.90346 v 0 c 4.10075,0 7.50137,3.40062 7.50137,7.60139 0,4.20077 -3.40062,7.50137 -7.50137,7.50137 -4.20077,0 -7.60139,-3.3006 -7.60139,-7.50137 0,-4.20077 3.40062,-7.60139 7.60139,-7.60139 z m 176.63234,-71.31306 v 0 c 1.80033,0 3.20059,1.40026 3.20059,3.20059 0,1.70031 -1.40026,3.10056 -3.20059,3.10056 -1.70031,0 -3.10056,-1.40025 -3.10056,-3.10056 0,-1.80033 1.40025,-3.20059 3.10056,-3.20059 z m 0,25.20461 v 0 c 1.80033,0 3.20059,1.40026 3.20059,3.20059 0,1.70031 -1.40026,3.20059 -3.20059,3.20059 -1.70031,0 -3.10056,-1.50028 -3.10056,-3.20059 0,-1.80033 1.40025,-3.20059 3.10056,-3.20059 z m 0,25.30464 v 0 c 1.80033,0 3.20059,1.40025 3.20059,3.10057 0,1.80033 -1.40026,3.20058 -3.20059,3.20058 -1.70031,0 -3.10056,-1.40025 -3.10056,-3.20058 0,-1.70032 1.40025,-3.10057 3.10056,-3.10057 z m 0,27.10496 v 0 c 0.70013,0 1.30024,0.60011 1.30024,1.30024 0,0.70013 -0.60011,1.30024 -1.30024,1.30024 -0.70012,0 -1.20022,-0.60011 -1.20022,-1.30024 0,-0.70013 0.5001,-1.30024 1.20022,-1.30024 z M 259.9476,230.84227 v 0 c 1.70031,0 3.20059,1.40026 3.20059,3.20059 0,1.70031 -1.50028,3.10056 -3.20059,3.10056 -1.80033,0 -3.20059,-1.40025 -3.20059,-3.10056 0,-1.80033 1.40026,-3.20059 3.20059,-3.20059 z m 0,25.20461 v 0 c 1.70031,0 3.20059,1.40026 3.20059,3.20059 0,1.70031 -1.50028,3.20059 -3.20059,3.20059 -1.80033,0 -3.20059,-1.50028 -3.20059,-3.20059 0,-1.80033 1.40026,-3.20059 3.20059,-3.20059 z m 0,25.30464 v 0 c 1.70031,0 3.20059,1.40025 3.20059,3.10057 0,1.80033 -1.50028,3.20058 -3.20059,3.20058 -1.80033,0 -3.20059,-1.40025 -3.20059,-3.20058 0,-1.70032 1.40026,-3.10057 3.20059,-3.10057 z m 0,27.10496 v 0 c 0.70013,0 1.30024,0.60011 1.30024,1.30024 0,0.70013 -0.60011,1.30024 -1.30024,1.30024 -0.70013,0 -1.30024,-0.60011 -1.30024,-1.30024 0,-0.70013 0.60011,-1.30024 1.30024,-1.30024 z m -25.20462,-77.61421 v 0 c 1.70032,0 3.10057,1.40026 3.10057,3.20059 0,1.70031 -1.40025,3.10056 -3.10057,3.10056 -1.80033,0 -3.20058,-1.40025 -3.20058,-3.10056 0,-1.80033 1.40025,-3.20059 3.20058,-3.20059 z m 0,25.20461 v 0 c 1.70032,0 3.10057,1.40026 3.10057,3.20059 0,1.70031 -1.40025,3.20059 -3.10057,3.20059 -1.80033,0 -3.20058,-1.50028 -3.20058,-3.20059 0,-1.80033 1.40025,-3.20059 3.20058,-3.20059 z m 0,25.30464 v 0 c 1.70032,0 3.10057,1.40025 3.10057,3.10057 0,1.80033 -1.40025,3.20058 -3.10057,3.20058 -1.80033,0 -3.20058,-1.40025 -3.20058,-3.20058 0,-1.70032 1.40025,-3.10057 3.20058,-3.10057 z m 0,27.10496 v 0 c 0.70013,0 1.20022,0.60011 1.20022,1.30024 0,0.70013 -0.50009,1.30024 -1.20022,1.30024 -0.70012,0 -1.30023,-0.60011 -1.30023,-1.30024 0,-0.70013 0.60011,-1.30024 1.30023,-1.30024 z m -25.30463,-75.71386 v 0 c 0.70013,0 1.30024,0.60011 1.30024,1.30024 0,0.70012 -0.60011,1.20022 -1.30024,1.20022 -0.70013,0 -1.30024,-0.5001 -1.30024,-1.20022 0,-0.70013 0.60011,-1.30024 1.30024,-1.30024 z m 0,25.20461 v 0 c 0.70013,0 1.30024,0.60011 1.30024,1.30024 0,0.70013 -0.60011,1.30024 -1.30024,1.30024 -0.70013,0 -1.30024,-0.60011 -1.30024,-1.30024 0,-0.70013 0.60011,-1.30024 1.30024,-1.30024 z m 0,25.30464 v 0 c 0.70013,0 1.30024,0.50009 1.30024,1.20022 0,0.70012 -0.60011,1.30023 -1.30024,1.30023 -0.70013,0 -1.30024,-0.60011 -1.30024,-1.30023 0,-0.70013 0.60011,-1.20022 1.30024,-1.20022 z m 0,18.90346 v 0 c 4.20077,0 7.60139,3.40062 7.60139,7.60139 0,4.20077 -3.40062,7.50137 -7.60139,7.50137 -4.20077,0 -7.50137,-3.3006 -7.50137,-7.50137 0,-4.20077 3.3006,-7.60139 7.50137,-7.60139 z m 176.73236,-71.31306 v 0 c 1.70031,0 3.20059,1.40026 3.20059,3.20059 0,1.70031 -1.50028,3.10056 -3.20059,3.10056 -1.80033,0 -3.20058,-1.40025 -3.20058,-3.10056 0,-1.80033 1.40025,-3.20059 3.20058,-3.20059 z m 0,25.20461 v 0 c 1.70031,0 3.20059,1.40026 3.20059,3.20059 0,1.70031 -1.50028,3.20059 -3.20059,3.20059 -1.80033,0 -3.20058,-1.50028 -3.20058,-3.20059 0,-1.80033 1.40025,-3.20059 3.20058,-3.20059 z m 0,25.30464 v 0 c 1.70031,0 3.20059,1.40025 3.20059,3.10057 0,1.80033 -1.50028,3.20058 -3.20059,3.20058 -1.80033,0 -3.20058,-1.40025 -3.20058,-3.20058 0,-1.70032 1.40025,-3.10057 3.20058,-3.10057 z m 0,27.10496 v 0 c 0.70013,0 1.30024,0.60011 1.30024,1.30024 0,0.70013 -0.60011,1.30024 -1.30024,1.30024 -0.70013,0 -1.30024,-0.60011 -1.30024,-1.30024 0,-0.70013 0.60011,-1.30024 1.30024,-1.30024 z M 360.9661,230.84227 v 0 c 1.70031,0 3.10056,1.40026 3.10056,3.20059 0,1.70031 -1.40025,3.10056 -3.10056,3.10056 -1.80033,0 -3.20059,-1.40025 -3.20059,-3.10056 0,-1.80033 1.40026,-3.20059 3.20059,-3.20059 z m 0,25.20461 v 0 c 1.70031,0 3.10056,1.40026 3.10056,3.20059 0,1.70031 -1.40025,3.20059 -3.10056,3.20059 -1.80033,0 -3.20059,-1.50028 -3.20059,-3.20059 0,-1.80033 1.40026,-3.20059 3.20059,-3.20059 z m 0,25.30464 v 0 c 1.70031,0 3.10056,1.40025 3.10056,3.10057 0,1.80033 -1.40025,3.20058 -3.10056,3.20058 -1.80033,0 -3.20059,-1.40025 -3.20059,-3.20058 0,-1.70032 1.40026,-3.10057 3.20059,-3.10057 z m 0,27.10496 v 0 c 0.70012,0 1.20022,0.60011 1.20022,1.30024 0,0.70013 -0.5001,1.30024 -1.20022,1.30024 -0.70013,0 -1.30024,-0.60011 -1.30024,-1.30024 0,-0.70013 0.60011,-1.30024 1.30024,-1.30024 z m -25.30464,-77.61421 v 0 c 1.80033,0 3.20059,1.40026 3.20059,3.20059 0,1.70031 -1.40026,3.10056 -3.20059,3.10056 -1.70031,0 -3.20058,-1.40025 -3.20058,-3.10056 0,-1.80033 1.50027,-3.20059 3.20058,-3.20059 z m 0,25.20461 v 0 c 1.80033,0 3.20059,1.40026 3.20059,3.20059 0,1.70031 -1.40026,3.20059 -3.20059,3.20059 -1.70031,0 -3.20058,-1.50028 -3.20058,-3.20059 0,-1.80033 1.50027,-3.20059 3.20058,-3.20059 z m 0,25.30464 v 0 c 1.80033,0 3.20059,1.40025 3.20059,3.10057 0,1.80033 -1.40026,3.20058 -3.20059,3.20058 -1.70031,0 -3.20058,-1.40025 -3.20058,-3.20058 0,-1.70032 1.50027,-3.10057 3.20058,-3.10057 z m 0,27.10496 v 0 c 0.70013,0 1.30024,0.60011 1.30024,1.30024 0,0.70013 -0.60011,1.30024 -1.30024,1.30024 -0.70013,0 -1.30024,-0.60011 -1.30024,-1.30024 0,-0.70013 0.60011,-1.30024 1.30024,-1.30024 z m -25.20461,-75.71386 v 0 c 0.70013,0 1.20022,0.60011 1.20022,1.30024 0,0.70012 -0.50009,1.20022 -1.20022,1.20022 -0.70013,0 -1.30024,-0.5001 -1.30024,-1.20022 0,-0.70013 0.60011,-1.30024 1.30024,-1.30024 z m 0,25.20461 v 0 c 0.70013,0 1.20022,0.60011 1.20022,1.30024 0,0.70013 -0.50009,1.30024 -1.20022,1.30024 -0.70013,0 -1.30024,-0.60011 -1.30024,-1.30024 0,-0.70013 0.60011,-1.30024 1.30024,-1.30024 z m 0,25.30464 v 0 c 0.70013,0 1.20022,0.50009 1.20022,1.20022 0,0.70012 -0.50009,1.30023 -1.20022,1.30023 -0.70013,0 -1.30024,-0.60011 -1.30024,-1.30023 0,-0.70013 0.60011,-1.20022 1.30024,-1.20022 z m 0,18.90346 v 0 c 4.10075,0 7.50137,3.40062 7.50137,7.60139 0,4.20077 -3.40062,7.50137 -7.50137,7.50137 -4.20077,0 -7.60139,-3.3006 -7.60139,-7.50137 0,-4.20077 3.40062,-7.60139 7.60139,-7.60139 z m 176.73236,-71.31306 v 0 c 1.70031,0 3.10057,1.40026 3.10057,3.20059 0,1.70031 -1.40026,3.10056 -3.10057,3.10056 -1.80033,0 -3.20059,-1.40025 -3.20059,-3.10056 0,-1.80033 1.40026,-3.20059 3.20059,-3.20059 z m 0,25.20461 v 0 c 1.70031,0 3.10057,1.40026 3.10057,3.20059 0,1.70031 -1.40026,3.20059 -3.10057,3.20059 -1.80033,0 -3.20059,-1.50028 -3.20059,-3.20059 0,-1.80033 1.40026,-3.20059 3.20059,-3.20059 z m 0,25.30464 v 0 c 1.70031,0 3.10057,1.40025 3.10057,3.10057 0,1.80033 -1.40026,3.20058 -3.10057,3.20058 -1.80033,0 -3.20059,-1.40025 -3.20059,-3.20058 0,-1.70032 1.40026,-3.10057 3.20059,-3.10057 z m 0,27.10496 v 0 c 0.70013,0 1.20022,0.60011 1.20022,1.30024 0,0.70013 -0.50009,1.30024 -1.20022,1.30024 -0.70013,0 -1.30024,-0.60011 -1.30024,-1.30024 0,-0.70013 0.60011,-1.30024 1.30024,-1.30024 z m -25.30463,-77.61421 v 0 c 1.80033,0 3.20058,1.40026 3.20058,3.20059 0,1.70031 -1.40025,3.10056 -3.20058,3.10056 -1.70032,0 -3.20059,-1.40025 -3.20059,-3.10056 0,-1.80033 1.50027,-3.20059 3.20059,-3.20059 z m 0,25.20461 v 0 c 1.80033,0 3.20058,1.40026 3.20058,3.20059 0,1.70031 -1.40025,3.20059 -3.20058,3.20059 -1.70032,0 -3.20059,-1.50028 -3.20059,-3.20059 0,-1.80033 1.50027,-3.20059 3.20059,-3.20059 z m 0,25.30464 v 0 c 1.80033,0 3.20058,1.40025 3.20058,3.10057 0,1.80033 -1.40025,3.20058 -3.20058,3.20058 -1.70032,0 -3.20059,-1.40025 -3.20059,-3.20058 0,-1.70032 1.50027,-3.10057 3.20059,-3.10057 z m 0,27.10496 v 0 c 0.70012,0 1.30023,0.60011 1.30023,1.30024 0,0.70013 -0.60011,1.30024 -1.30023,1.30024 -0.70013,0 -1.30024,-0.60011 -1.30024,-1.30024 0,-0.70013 0.60011,-1.30024 1.30024,-1.30024 z m -25.20462,-77.61421 v 0 c 1.70031,0 3.10057,1.40026 3.10057,3.20059 0,1.70031 -1.40026,3.10056 -3.10057,3.10056 -1.80033,0 -3.20059,-1.40025 -3.20059,-3.10056 0,-1.80033 1.40026,-3.20059 3.20059,-3.20059 z m 0,25.20461 v 0 c 1.70031,0 3.10057,1.40026 3.10057,3.20059 0,1.70031 -1.40026,3.20059 -3.10057,3.20059 -1.80033,0 -3.20059,-1.50028 -3.20059,-3.20059 0,-1.80033 1.40026,-3.20059 3.20059,-3.20059 z m 0,25.30464 v 0 c 1.70031,0 3.10057,1.40025 3.10057,3.10057 0,1.80033 -1.40026,3.20058 -3.10057,3.20058 -1.80033,0 -3.20059,-1.40025 -3.20059,-3.20058 0,-1.70032 1.40026,-3.10057 3.20059,-3.10057 z m 0,27.10496 v 0 c 0.70013,0 1.20022,0.60011 1.20022,1.30024 0,0.70013 -0.50009,1.30024 -1.20022,1.30024 -0.70013,0 -1.30024,-0.60011 -1.30024,-1.30024 0,-0.70013 0.60011,-1.30024 1.30024,-1.30024 z m 75.71386,-75.71386 v 0 c 0.70013,0 1.30024,0.60011 1.30024,1.30024 0,0.70012 -0.60011,1.20022 -1.30024,1.20022 -0.70012,0 -1.30023,-0.5001 -1.30023,-1.20022 0,-0.70013 0.60011,-1.30024 1.30023,-1.30024 z m 0,25.20461 v 0 c 0.70013,0 1.30024,0.60011 1.30024,1.30024 0,0.70013 -0.60011,1.30024 -1.30024,1.30024 -0.70012,0 -1.30023,-0.60011 -1.30023,-1.30024 0,-0.70013 0.60011,-1.30024 1.30023,-1.30024 z m 0,25.30464 v 0 c 0.70013,0 1.30024,0.50009 1.30024,1.20022 0,0.70012 -0.60011,1.30023 -1.30024,1.30023 -0.70012,0 -1.30023,-0.60011 -1.30023,-1.30023 0,-0.70013 0.60011,-1.20022 1.30023,-1.20022 z m 0,18.90346 v 0 c 4.20077,0 7.50138,3.40062 7.50138,7.60139 0,4.20077 -3.30061,7.50137 -7.50138,7.50137 -4.20076,0 -7.60139,-3.3006 -7.60139,-7.50137 0,-4.20077 3.40063,-7.60139 7.60139,-7.60139 z M 411.37533,232.74262 v 0 c 0.70013,0 1.30024,0.60011 1.30024,1.30024 0,0.70012 -0.60011,1.20022 -1.30024,1.20022 -0.70013,0 -1.20022,-0.5001 -1.20022,-1.20022 0,-0.70013 0.50009,-1.30024 1.20022,-1.30024 z m 0,25.20461 v 0 c 0.70013,0 1.30024,0.60011 1.30024,1.30024 0,0.70013 -0.60011,1.30024 -1.30024,1.30024 -0.70013,0 -1.20022,-0.60011 -1.20022,-1.30024 0,-0.70013 0.50009,-1.30024 1.20022,-1.30024 z m 0,25.30464 v 0 c 0.70013,0 1.30024,0.50009 1.30024,1.20022 0,0.70012 -0.60011,1.30023 -1.30024,1.30023 -0.70013,0 -1.20022,-0.60011 -1.20022,-1.30023 0,-0.70013 0.50009,-1.20022 1.20022,-1.20022 z m 0,18.90346 v 0 c 4.20077,0 7.60139,3.40062 7.60139,7.60139 0,4.20077 -3.40062,7.50137 -7.60139,7.50137 -4.10075,0 -7.50138,-3.3006 -7.50138,-7.50137 0,-4.20077 3.40063,-7.60139 7.50138,-7.60139 z M 83.215238,129.82377 v 0 c 1.800329,0 3.200586,1.40026 3.200586,3.20059 0,1.70031 -1.400257,3.20058 -3.200586,3.20058 -1.700312,0 -3.200587,-1.50027 -3.200587,-3.20058 0,-1.80033 1.500275,-3.20059 3.200587,-3.20059 z m 0,25.30464 v 0 c 1.800329,0 3.200586,1.40025 3.200586,3.10056 0,1.80033 -1.400257,3.20059 -3.200586,3.20059 -1.700312,0 -3.200587,-1.40026 -3.200587,-3.20059 0,-1.70031 1.500275,-3.10056 3.200587,-3.10056 z m 0,25.20461 v 0 c 1.800329,0 3.200586,1.40026 3.200586,3.20059 0,1.70031 -1.400257,3.10056 -3.200586,3.10056 -1.700312,0 -3.200587,-1.40025 -3.200587,-3.10056 0,-1.80033 1.500275,-3.20059 3.200587,-3.20059 z m 0,27.20498 v 0 c 0.700128,0 1.300238,0.50009 1.300238,1.20022 0,0.70013 -0.60011,1.30024 -1.300238,1.30024 -0.700129,0 -1.300239,-0.60011 -1.300239,-1.30024 0,-0.70013 0.60011,-1.20022 1.300239,-1.20022 z M 58.010622,129.82377 v 0 c 1.700312,0 3.100568,1.40026 3.100568,3.20059 0,1.70031 -1.400256,3.20058 -3.100568,3.20058 -1.800329,0 -3.200586,-1.50027 -3.200586,-3.20058 0,-1.80033 1.400257,-3.20059 3.200586,-3.20059 z m 0,25.30464 v 0 c 1.700312,0 3.100568,1.40025 3.100568,3.10056 0,1.80033 -1.400256,3.20059 -3.100568,3.20059 -1.800329,0 -3.200586,-1.40026 -3.200586,-3.20059 0,-1.70031 1.400257,-3.10056 3.200586,-3.10056 z m 0,25.20461 v 0 c 1.700312,0 3.100568,1.40026 3.100568,3.20059 0,1.70031 -1.400256,3.10056 -3.100568,3.10056 -1.800329,0 -3.200586,-1.40025 -3.200586,-3.10056 0,-1.80033 1.400257,-3.20059 3.200586,-3.20059 z m 0,27.20498 v 0 c 0.700129,0 1.20022,0.50009 1.20022,1.20022 0,0.70013 -0.500091,1.30024 -1.20022,1.30024 -0.700128,0 -1.300238,-0.60011 -1.300238,-1.30024 0,-0.70013 0.60011,-1.20022 1.300238,-1.20022 z M 32.705989,129.82377 v 0 c 1.800329,0 3.200586,1.40026 3.200586,3.20059 0,1.70031 -1.400257,3.20058 -3.200586,3.20058 -1.700312,0 -3.100568,-1.50027 -3.100568,-3.20058 0,-1.80033 1.400256,-3.20059 3.100568,-3.20059 z m 0,25.30464 v 0 c 1.800329,0 3.200586,1.40025 3.200586,3.10056 0,1.80033 -1.400257,3.20059 -3.200586,3.20059 -1.700312,0 -3.100568,-1.40026 -3.100568,-3.20059 0,-1.70031 1.400256,-3.10056 3.100568,-3.10056 z m 0,25.20461 v 0 c 1.800329,0 3.200586,1.40026 3.200586,3.20059 0,1.70031 -1.400257,3.10056 -3.200586,3.10056 -1.700312,0 -3.100568,-1.40025 -3.100568,-3.10056 0,-1.80033 1.400256,-3.20059 3.100568,-3.20059 z m 0,27.20498 v 0 c 0.700128,0 1.300238,0.50009 1.300238,1.20022 0,0.70013 -0.60011,1.30024 -1.300238,1.30024 -0.700128,0 -1.20022,-0.60011 -1.20022,-1.30024 0,-0.70013 0.500092,-1.20022 1.20022,-1.20022 z M 7.5013736,131.72412 v 0 c 0.7001282,0 1.3002381,0.60011 1.3002381,1.30024 0,0.70013 -0.6001099,1.30024 -1.3002381,1.30024 -0.7001282,0 -1.3002381,-0.60011 -1.3002381,-1.30024 0,-0.70013 0.6001099,-1.30024 1.3002381,-1.30024 z m 0,25.30463 v 0 c 0.7001282,0 1.3002381,0.5001 1.3002381,1.20022 0,0.70013 -0.6001099,1.30024 -1.3002381,1.30024 -0.7001282,0 -1.3002381,-0.60011 -1.3002381,-1.30024 0,-0.70012 0.6001099,-1.20022 1.3002381,-1.20022 z m 0,25.20462 v 0 c 0.7001282,0 1.3002381,0.60011 1.3002381,1.30024 0,0.70013 -0.6001099,1.20022 -1.3002381,1.20022 -0.7001282,0 -1.3002381,-0.50009 -1.3002381,-1.20022 0,-0.70013 0.6001099,-1.30024 1.3002381,-1.30024 z m 0,19.00348 v 0 c 4.2007694,0 7.5013734,3.40062 7.5013734,7.50137 0,4.20077 -3.300604,7.60139 -7.5013734,7.60139 C 3.3006044,216.33961 0,212.93899 0,208.73822 c 0,-4.10075 3.3006044,-7.50137 7.5013736,-7.50137 z M 184.23374,129.82377 v 0 c 1.70031,0 3.10056,1.40026 3.10056,3.20059 0,1.70031 -1.40025,3.20058 -3.10056,3.20058 -1.80033,0 -3.20059,-1.50027 -3.20059,-3.20058 0,-1.80033 1.40026,-3.20059 3.20059,-3.20059 z m 0,25.30464 v 0 c 1.70031,0 3.10056,1.40025 3.10056,3.10056 0,1.80033 -1.40025,3.20059 -3.10056,3.20059 -1.80033,0 -3.20059,-1.40026 -3.20059,-3.20059 0,-1.70031 1.40026,-3.10056 3.20059,-3.10056 z m 0,25.20461 v 0 c 1.70031,0 3.10056,1.40026 3.10056,3.20059 0,1.70031 -1.40025,3.10056 -3.10056,3.10056 -1.80033,0 -3.20059,-1.40025 -3.20059,-3.10056 0,-1.80033 1.40026,-3.20059 3.20059,-3.20059 z m 0,27.20498 v 0 c 0.70012,0 1.20021,0.50009 1.20021,1.20022 0,0.70013 -0.50009,1.30024 -1.20021,1.30024 -0.70013,0 -1.30024,-0.60011 -1.30024,-1.30024 0,-0.70013 0.60011,-1.20022 1.30024,-1.20022 z M 158.9291,129.82377 v 0 c 1.80033,0 3.20059,1.40026 3.20059,3.20059 0,1.70031 -1.40026,3.20058 -3.20059,3.20058 -1.70031,0 -3.10057,-1.50027 -3.10057,-3.20058 0,-1.80033 1.40026,-3.20059 3.10057,-3.20059 z m 0,25.30464 v 0 c 1.80033,0 3.20059,1.40025 3.20059,3.10056 0,1.80033 -1.40026,3.20059 -3.20059,3.20059 -1.70031,0 -3.10057,-1.40026 -3.10057,-3.20059 0,-1.70031 1.40026,-3.10056 3.10057,-3.10056 z m 0,25.20461 v 0 c 1.80033,0 3.20059,1.40026 3.20059,3.20059 0,1.70031 -1.40026,3.10056 -3.20059,3.10056 -1.70031,0 -3.10057,-1.40025 -3.10057,-3.10056 0,-1.80033 1.40026,-3.20059 3.10057,-3.20059 z m 0,27.20498 v 0 c 0.70013,0 1.30024,0.50009 1.30024,1.20022 0,0.70013 -0.60011,1.30024 -1.30024,1.30024 -0.70013,0 -1.20022,-0.60011 -1.20022,-1.30024 0,-0.70013 0.50009,-1.20022 1.20022,-1.20022 z m -25.20461,-77.71423 v 0 c 1.70031,0 3.20058,1.40026 3.20058,3.20059 0,1.70031 -1.50027,3.20058 -3.20058,3.20058 -1.80033,0 -3.20059,-1.50027 -3.20059,-3.20058 0,-1.80033 1.40026,-3.20059 3.20059,-3.20059 z m 0,25.30464 v 0 c 1.70031,0 3.20058,1.40025 3.20058,3.10056 0,1.80033 -1.50027,3.20059 -3.20058,3.20059 -1.80033,0 -3.20059,-1.40026 -3.20059,-3.20059 0,-1.70031 1.40026,-3.10056 3.20059,-3.10056 z m 0,25.20461 v 0 c 1.70031,0 3.20058,1.40026 3.20058,3.20059 0,1.70031 -1.50027,3.10056 -3.20058,3.10056 -1.80033,0 -3.20059,-1.40025 -3.20059,-3.10056 0,-1.80033 1.40026,-3.20059 3.20059,-3.20059 z m 0,27.20498 v 0 c 0.70012,0 1.30023,0.50009 1.30023,1.20022 0,0.70013 -0.60011,1.30024 -1.30023,1.30024 -0.70013,0 -1.30024,-0.60011 -1.30024,-1.30024 0,-0.70013 0.60011,-1.20022 1.30024,-1.20022 z m -25.20462,-75.81388 v 0 c 0.70013,0 1.20022,0.60011 1.20022,1.30024 0,0.70013 -0.50009,1.30024 -1.20022,1.30024 -0.70013,0 -1.30024,-0.60011 -1.30024,-1.30024 0,-0.70013 0.60011,-1.30024 1.30024,-1.30024 z m 0,25.30463 v 0 c 0.70013,0 1.20022,0.5001 1.20022,1.20022 0,0.70013 -0.50009,1.30024 -1.20022,1.30024 -0.70013,0 -1.30024,-0.60011 -1.30024,-1.30024 0,-0.70012 0.60011,-1.20022 1.30024,-1.20022 z m 0,25.20462 v 0 c 0.70013,0 1.20022,0.60011 1.20022,1.30024 0,0.70013 -0.50009,1.20022 -1.20022,1.20022 -0.70013,0 -1.30024,-0.50009 -1.30024,-1.20022 0,-0.70013 0.60011,-1.30024 1.30024,-1.30024 z m 0,19.00348 v 0 c 4.10075,0 7.50137,3.40062 7.50137,7.50137 0,4.20077 -3.40062,7.60139 -7.50137,7.60139 -4.20077,0 -7.60139,-3.40062 -7.60139,-7.60139 0,-4.10075 3.40062,-7.50137 7.60139,-7.50137 z m 176.63234,-71.41308 v 0 c 1.80033,0 3.20059,1.40026 3.20059,3.20059 0,1.70031 -1.40026,3.20058 -3.20059,3.20058 -1.70031,0 -3.10056,-1.50027 -3.10056,-3.20058 0,-1.80033 1.40025,-3.20059 3.10056,-3.20059 z m 0,25.30464 v 0 c 1.80033,0 3.20059,1.40025 3.20059,3.10056 0,1.80033 -1.40026,3.20059 -3.20059,3.20059 -1.70031,0 -3.10056,-1.40026 -3.10056,-3.20059 0,-1.70031 1.40025,-3.10056 3.10056,-3.10056 z m 0,25.20461 v 0 c 1.80033,0 3.20059,1.40026 3.20059,3.20059 0,1.70031 -1.40026,3.10056 -3.20059,3.10056 -1.70031,0 -3.10056,-1.40025 -3.10056,-3.10056 0,-1.80033 1.40025,-3.20059 3.10056,-3.20059 z m 0,27.20498 v 0 c 0.70013,0 1.30024,0.50009 1.30024,1.20022 0,0.70013 -0.60011,1.30024 -1.30024,1.30024 -0.70012,0 -1.20022,-0.60011 -1.20022,-1.30024 0,-0.70013 0.5001,-1.20022 1.20022,-1.20022 z M 259.9476,129.82377 v 0 c 1.70031,0 3.20059,1.40026 3.20059,3.20059 0,1.70031 -1.50028,3.20058 -3.20059,3.20058 -1.80033,0 -3.20059,-1.50027 -3.20059,-3.20058 0,-1.80033 1.40026,-3.20059 3.20059,-3.20059 z m 0,25.30464 v 0 c 1.70031,0 3.20059,1.40025 3.20059,3.10056 0,1.80033 -1.50028,3.20059 -3.20059,3.20059 -1.80033,0 -3.20059,-1.40026 -3.20059,-3.20059 0,-1.70031 1.40026,-3.10056 3.20059,-3.10056 z m 0,25.20461 v 0 c 1.70031,0 3.20059,1.40026 3.20059,3.20059 0,1.70031 -1.50028,3.10056 -3.20059,3.10056 -1.80033,0 -3.20059,-1.40025 -3.20059,-3.10056 0,-1.80033 1.40026,-3.20059 3.20059,-3.20059 z m 0,27.20498 v 0 c 0.70013,0 1.30024,0.50009 1.30024,1.20022 0,0.70013 -0.60011,1.30024 -1.30024,1.30024 -0.70013,0 -1.30024,-0.60011 -1.30024,-1.30024 0,-0.70013 0.60011,-1.20022 1.30024,-1.20022 z m -25.20462,-77.71423 v 0 c 1.70032,0 3.10057,1.40026 3.10057,3.20059 0,1.70031 -1.40025,3.20058 -3.10057,3.20058 -1.80033,0 -3.20058,-1.50027 -3.20058,-3.20058 0,-1.80033 1.40025,-3.20059 3.20058,-3.20059 z m 0,25.30464 v 0 c 1.70032,0 3.10057,1.40025 3.10057,3.10056 0,1.80033 -1.40025,3.20059 -3.10057,3.20059 -1.80033,0 -3.20058,-1.40026 -3.20058,-3.20059 0,-1.70031 1.40025,-3.10056 3.20058,-3.10056 z m 0,25.20461 v 0 c 1.70032,0 3.10057,1.40026 3.10057,3.20059 0,1.70031 -1.40025,3.10056 -3.10057,3.10056 -1.80033,0 -3.20058,-1.40025 -3.20058,-3.10056 0,-1.80033 1.40025,-3.20059 3.20058,-3.20059 z m 0,27.20498 v 0 c 0.70013,0 1.20022,0.50009 1.20022,1.20022 0,0.70013 -0.50009,1.30024 -1.20022,1.30024 -0.70012,0 -1.30023,-0.60011 -1.30023,-1.30024 0,-0.70013 0.60011,-1.20022 1.30023,-1.20022 z m -25.30463,-75.81388 v 0 c 0.70013,0 1.30024,0.60011 1.30024,1.30024 0,0.70013 -0.60011,1.30024 -1.30024,1.30024 -0.70013,0 -1.30024,-0.60011 -1.30024,-1.30024 0,-0.70013 0.60011,-1.30024 1.30024,-1.30024 z m 0,25.30463 v 0 c 0.70013,0 1.30024,0.5001 1.30024,1.20022 0,0.70013 -0.60011,1.30024 -1.30024,1.30024 -0.70013,0 -1.30024,-0.60011 -1.30024,-1.30024 0,-0.70012 0.60011,-1.20022 1.30024,-1.20022 z m 0,25.20462 v 0 c 0.70013,0 1.30024,0.60011 1.30024,1.30024 0,0.70013 -0.60011,1.20022 -1.30024,1.20022 -0.70013,0 -1.30024,-0.50009 -1.30024,-1.20022 0,-0.70013 0.60011,-1.30024 1.30024,-1.30024 z m 0,19.00348 v 0 c 4.20077,0 7.60139,3.40062 7.60139,7.50137 0,4.20077 -3.40062,7.60139 -7.60139,7.60139 -4.20077,0 -7.50137,-3.40062 -7.50137,-7.60139 0,-4.10075 3.3006,-7.50137 7.50137,-7.50137 z m 176.73236,-71.41308 v 0 c 1.70031,0 3.20059,1.40026 3.20059,3.20059 0,1.70031 -1.50028,3.20058 -3.20059,3.20058 -1.80033,0 -3.20058,-1.50027 -3.20058,-3.20058 0,-1.80033 1.40025,-3.20059 3.20058,-3.20059 z m 0,25.30464 v 0 c 1.70031,0 3.20059,1.40025 3.20059,3.10056 0,1.80033 -1.50028,3.20059 -3.20059,3.20059 -1.80033,0 -3.20058,-1.40026 -3.20058,-3.20059 0,-1.70031 1.40025,-3.10056 3.20058,-3.10056 z m 0,25.20461 v 0 c 1.70031,0 3.20059,1.40026 3.20059,3.20059 0,1.70031 -1.50028,3.10056 -3.20059,3.10056 -1.80033,0 -3.20058,-1.40025 -3.20058,-3.10056 0,-1.80033 1.40025,-3.20059 3.20058,-3.20059 z m 0,27.20498 v 0 c 0.70013,0 1.30024,0.50009 1.30024,1.20022 0,0.70013 -0.60011,1.30024 -1.30024,1.30024 -0.70013,0 -1.30024,-0.60011 -1.30024,-1.30024 0,-0.70013 0.60011,-1.20022 1.30024,-1.20022 z M 360.9661,129.82377 v 0 c 1.70031,0 3.10056,1.40026 3.10056,3.20059 0,1.70031 -1.40025,3.20058 -3.10056,3.20058 -1.80033,0 -3.20059,-1.50027 -3.20059,-3.20058 0,-1.80033 1.40026,-3.20059 3.20059,-3.20059 z m 0,25.30464 v 0 c 1.70031,0 3.10056,1.40025 3.10056,3.10056 0,1.80033 -1.40025,3.20059 -3.10056,3.20059 -1.80033,0 -3.20059,-1.40026 -3.20059,-3.20059 0,-1.70031 1.40026,-3.10056 3.20059,-3.10056 z m 0,25.20461 v 0 c 1.70031,0 3.10056,1.40026 3.10056,3.20059 0,1.70031 -1.40025,3.10056 -3.10056,3.10056 -1.80033,0 -3.20059,-1.40025 -3.20059,-3.10056 0,-1.80033 1.40026,-3.20059 3.20059,-3.20059 z m 0,27.20498 v 0 c 0.70012,0 1.20022,0.50009 1.20022,1.20022 0,0.70013 -0.5001,1.30024 -1.20022,1.30024 -0.70013,0 -1.30024,-0.60011 -1.30024,-1.30024 0,-0.70013 0.60011,-1.20022 1.30024,-1.20022 z m -25.30464,-77.71423 v 0 c 1.80033,0 3.20059,1.40026 3.20059,3.20059 0,1.70031 -1.40026,3.20058 -3.20059,3.20058 -1.70031,0 -3.20058,-1.50027 -3.20058,-3.20058 0,-1.80033 1.50027,-3.20059 3.20058,-3.20059 z m 0,25.30464 v 0 c 1.80033,0 3.20059,1.40025 3.20059,3.10056 0,1.80033 -1.40026,3.20059 -3.20059,3.20059 -1.70031,0 -3.20058,-1.40026 -3.20058,-3.20059 0,-1.70031 1.50027,-3.10056 3.20058,-3.10056 z m 0,25.20461 v 0 c 1.80033,0 3.20059,1.40026 3.20059,3.20059 0,1.70031 -1.40026,3.10056 -3.20059,3.10056 -1.70031,0 -3.20058,-1.40025 -3.20058,-3.10056 0,-1.80033 1.50027,-3.20059 3.20058,-3.20059 z m 0,27.20498 v 0 c 0.70013,0 1.30024,0.50009 1.30024,1.20022 0,0.70013 -0.60011,1.30024 -1.30024,1.30024 -0.70013,0 -1.30024,-0.60011 -1.30024,-1.30024 0,-0.70013 0.60011,-1.20022 1.30024,-1.20022 z m -25.20461,-75.81388 v 0 c 0.70013,0 1.20022,0.60011 1.20022,1.30024 0,0.70013 -0.50009,1.30024 -1.20022,1.30024 -0.70013,0 -1.30024,-0.60011 -1.30024,-1.30024 0,-0.70013 0.60011,-1.30024 1.30024,-1.30024 z m 0,25.30463 v 0 c 0.70013,0 1.20022,0.5001 1.20022,1.20022 0,0.70013 -0.50009,1.30024 -1.20022,1.30024 -0.70013,0 -1.30024,-0.60011 -1.30024,-1.30024 0,-0.70012 0.60011,-1.20022 1.30024,-1.20022 z m 0,25.20462 v 0 c 0.70013,0 1.20022,0.60011 1.20022,1.30024 0,0.70013 -0.50009,1.20022 -1.20022,1.20022 -0.70013,0 -1.30024,-0.50009 -1.30024,-1.20022 0,-0.70013 0.60011,-1.30024 1.30024,-1.30024 z m 0,19.00348 v 0 c 4.10075,0 7.50137,3.40062 7.50137,7.50137 0,4.20077 -3.40062,7.60139 -7.50137,7.60139 -4.20077,0 -7.60139,-3.40062 -7.60139,-7.60139 0,-4.10075 3.40062,-7.50137 7.60139,-7.50137 z m 176.73236,-71.41308 v 0 c 1.70031,0 3.10057,1.40026 3.10057,3.20059 0,1.70031 -1.40026,3.20058 -3.10057,3.20058 -1.80033,0 -3.20059,-1.50027 -3.20059,-3.20058 0,-1.80033 1.40026,-3.20059 3.20059,-3.20059 z m 0,25.30464 v 0 c 1.70031,0 3.10057,1.40025 3.10057,3.10056 0,1.80033 -1.40026,3.20059 -3.10057,3.20059 -1.80033,0 -3.20059,-1.40026 -3.20059,-3.20059 0,-1.70031 1.40026,-3.10056 3.20059,-3.10056 z m 0,25.20461 v 0 c 1.70031,0 3.10057,1.40026 3.10057,3.20059 0,1.70031 -1.40026,3.10056 -3.10057,3.10056 -1.80033,0 -3.20059,-1.40025 -3.20059,-3.10056 0,-1.80033 1.40026,-3.20059 3.20059,-3.20059 z m 0,27.20498 v 0 c 0.70013,0 1.20022,0.50009 1.20022,1.20022 0,0.70013 -0.50009,1.30024 -1.20022,1.30024 -0.70013,0 -1.30024,-0.60011 -1.30024,-1.30024 0,-0.70013 0.60011,-1.20022 1.30024,-1.20022 z m -25.30463,-77.71423 v 0 c 1.80033,0 3.20058,1.40026 3.20058,3.20059 0,1.70031 -1.40025,3.20058 -3.20058,3.20058 -1.70032,0 -3.20059,-1.50027 -3.20059,-3.20058 0,-1.80033 1.50027,-3.20059 3.20059,-3.20059 z m 0,25.30464 v 0 c 1.80033,0 3.20058,1.40025 3.20058,3.10056 0,1.80033 -1.40025,3.20059 -3.20058,3.20059 -1.70032,0 -3.20059,-1.40026 -3.20059,-3.20059 0,-1.70031 1.50027,-3.10056 3.20059,-3.10056 z m 0,25.20461 v 0 c 1.80033,0 3.20058,1.40026 3.20058,3.20059 0,1.70031 -1.40025,3.10056 -3.20058,3.10056 -1.70032,0 -3.20059,-1.40025 -3.20059,-3.10056 0,-1.80033 1.50027,-3.20059 3.20059,-3.20059 z m 0,27.20498 v 0 c 0.70012,0 1.30023,0.50009 1.30023,1.20022 0,0.70013 -0.60011,1.30024 -1.30023,1.30024 -0.70013,0 -1.30024,-0.60011 -1.30024,-1.30024 0,-0.70013 0.60011,-1.20022 1.30024,-1.20022 z m -25.20462,-77.71423 v 0 c 1.70031,0 3.10057,1.40026 3.10057,3.20059 0,1.70031 -1.40026,3.20058 -3.10057,3.20058 -1.80033,0 -3.20059,-1.50027 -3.20059,-3.20058 0,-1.80033 1.40026,-3.20059 3.20059,-3.20059 z m 0,25.30464 v 0 c 1.70031,0 3.10057,1.40025 3.10057,3.10056 0,1.80033 -1.40026,3.20059 -3.10057,3.20059 -1.80033,0 -3.20059,-1.40026 -3.20059,-3.20059 0,-1.70031 1.40026,-3.10056 3.20059,-3.10056 z m 0,25.20461 v 0 c 1.70031,0 3.10057,1.40026 3.10057,3.20059 0,1.70031 -1.40026,3.10056 -3.10057,3.10056 -1.80033,0 -3.20059,-1.40025 -3.20059,-3.10056 0,-1.80033 1.40026,-3.20059 3.20059,-3.20059 z m 0,27.20498 v 0 c 0.70013,0 1.20022,0.50009 1.20022,1.20022 0,0.70013 -0.50009,1.30024 -1.20022,1.30024 -0.70013,0 -1.30024,-0.60011 -1.30024,-1.30024 0,-0.70013 0.60011,-1.20022 1.30024,-1.20022 z m 75.71386,-75.81388 v 0 c 0.70013,0 1.30024,0.60011 1.30024,1.30024 0,0.70013 -0.60011,1.30024 -1.30024,1.30024 -0.70012,0 -1.30023,-0.60011 -1.30023,-1.30024 0,-0.70013 0.60011,-1.30024 1.30023,-1.30024 z m 0,25.30463 v 0 c 0.70013,0 1.30024,0.5001 1.30024,1.20022 0,0.70013 -0.60011,1.30024 -1.30024,1.30024 -0.70012,0 -1.30023,-0.60011 -1.30023,-1.30024 0,-0.70012 0.60011,-1.20022 1.30023,-1.20022 z m 0,25.20462 v 0 c 0.70013,0 1.30024,0.60011 1.30024,1.30024 0,0.70013 -0.60011,1.20022 -1.30024,1.20022 -0.70012,0 -1.30023,-0.50009 -1.30023,-1.20022 0,-0.70013 0.60011,-1.30024 1.30023,-1.30024 z m 0,19.00348 v 0 c 4.20077,0 7.50138,3.40062 7.50138,7.50137 0,4.20077 -3.30061,7.60139 -7.50138,7.60139 -4.20076,0 -7.60139,-3.40062 -7.60139,-7.60139 0,-4.10075 3.40063,-7.50137 7.60139,-7.50137 z M 411.37533,131.72412 v 0 c 0.70013,0 1.30024,0.60011 1.30024,1.30024 0,0.70013 -0.60011,1.30024 -1.30024,1.30024 -0.70013,0 -1.20022,-0.60011 -1.20022,-1.30024 0,-0.70013 0.50009,-1.30024 1.20022,-1.30024 z m 0,25.30463 v 0 c 0.70013,0 1.30024,0.5001 1.30024,1.20022 0,0.70013 -0.60011,1.30024 -1.30024,1.30024 -0.70013,0 -1.20022,-0.60011 -1.20022,-1.30024 0,-0.70012 0.50009,-1.20022 1.20022,-1.20022 z m 0,25.20462 v 0 c 0.70013,0 1.30024,0.60011 1.30024,1.30024 0,0.70013 -0.60011,1.20022 -1.30024,1.20022 -0.70013,0 -1.20022,-0.50009 -1.20022,-1.20022 0,-0.70013 0.50009,-1.30024 1.20022,-1.30024 z m 0,19.00348 v 0 c 4.20077,0 7.60139,3.40062 7.60139,7.50137 0,4.20077 -3.40062,7.60139 -7.60139,7.60139 -4.10075,0 -7.50138,-3.40062 -7.50138,-7.60139 0,-4.10075 3.40063,-7.50137 7.50138,-7.50137 z M 108.51987,100.21835 v 0 c 4.10075,0 7.50137,3.40062 7.50137,7.60139 0,4.10075 -3.40062,7.50138 -7.50137,7.50138 -4.20077,0 -7.60139,-3.40063 -7.60139,-7.50138 0,-4.20077 3.40062,-7.60139 7.60139,-7.60139 z M 285.15221,28.905293 v 0 c 1.80033,0 3.20059,1.400256 3.20059,3.100568 0,1.800329 -1.40026,3.200586 -3.20059,3.200586 -1.70031,0 -3.10056,-1.400257 -3.10056,-3.200586 0,-1.700312 1.40025,-3.100568 3.10056,-3.100568 z m 0,-23.4042857 v 0 c 0.70013,0 1.30024,0.6001099 1.30024,1.3002381 0,0.7001282 -0.60011,1.3002381 -1.30024,1.3002381 -0.70012,0 -1.20022,-0.6001099 -1.20022,-1.3002381 0,-0.7001282 0.5001,-1.3002381 1.20022,-1.3002381 z m 0,48.6089007 v 0 c 1.80033,0 3.20059,1.400256 3.20059,3.200586 0,1.700311 -1.40026,3.100568 -3.20059,3.100568 -1.70031,0 -3.10056,-1.400257 -3.10056,-3.100568 0,-1.80033 1.40025,-3.200586 3.10056,-3.200586 z m 0,25.204615 v 0 c 1.80033,0 3.20059,1.500275 3.20059,3.200586 0,1.80033 -1.40026,3.200586 -3.20059,3.200586 -1.70031,0 -3.10056,-1.400256 -3.10056,-3.200586 0,-1.700311 1.40025,-3.200586 3.10056,-3.200586 z m 0,27.204977 v 0 c 0.70013,0 1.30024,0.60011 1.30024,1.30024 0,0.70013 -0.60011,1.20022 -1.30024,1.20022 -0.70012,0 -1.20022,-0.50009 -1.20022,-1.20022 0,-0.70013 0.5001,-1.30024 1.20022,-1.30024 z M 259.9476,28.905293 v 0 c 1.70031,0 3.20059,1.400256 3.20059,3.100568 0,1.800329 -1.50028,3.200586 -3.20059,3.200586 -1.80033,0 -3.20059,-1.400257 -3.20059,-3.200586 0,-1.700312 1.40026,-3.100568 3.20059,-3.100568 z m 0,-23.4042857 v 0 c 0.70013,0 1.30024,0.6001099 1.30024,1.3002381 0,0.7001282 -0.60011,1.3002381 -1.30024,1.3002381 -0.70013,0 -1.30024,-0.6001099 -1.30024,-1.3002381 0,-0.7001282 0.60011,-1.3002381 1.30024,-1.3002381 z m 0,48.6089007 v 0 c 1.70031,0 3.20059,1.400256 3.20059,3.200586 0,1.700311 -1.50028,3.100568 -3.20059,3.100568 -1.80033,0 -3.20059,-1.400257 -3.20059,-3.100568 0,-1.80033 1.40026,-3.200586 3.20059,-3.200586 z m 0,25.204615 v 0 c 1.70031,0 3.20059,1.500275 3.20059,3.200586 0,1.80033 -1.50028,3.200586 -3.20059,3.200586 -1.80033,0 -3.20059,-1.400256 -3.20059,-3.200586 0,-1.700311 1.40026,-3.200586 3.20059,-3.200586 z m 0,27.204977 v 0 c 0.70013,0 1.30024,0.60011 1.30024,1.30024 0,0.70013 -0.60011,1.20022 -1.30024,1.20022 -0.70013,0 -1.30024,-0.50009 -1.30024,-1.20022 0,-0.70013 0.60011,-1.30024 1.30024,-1.30024 z M 234.74298,28.905293 v 0 c 1.70032,0 3.10057,1.400256 3.10057,3.100568 0,1.800329 -1.40025,3.200586 -3.10057,3.200586 -1.80033,0 -3.20058,-1.400257 -3.20058,-3.200586 0,-1.700312 1.40025,-3.100568 3.20058,-3.100568 z m 0,-23.4042857 v 0 c 0.70013,0 1.20022,0.6001099 1.20022,1.3002381 0,0.7001282 -0.50009,1.3002381 -1.20022,1.3002381 -0.70012,0 -1.30023,-0.6001099 -1.30023,-1.3002381 0,-0.7001282 0.60011,-1.3002381 1.30023,-1.3002381 z m 0,48.6089007 v 0 c 1.70032,0 3.10057,1.400256 3.10057,3.200586 0,1.700311 -1.40025,3.100568 -3.10057,3.100568 -1.80033,0 -3.20058,-1.400257 -3.20058,-3.100568 0,-1.80033 1.40025,-3.200586 3.20058,-3.200586 z m 0,25.204615 v 0 c 1.70032,0 3.10057,1.500275 3.10057,3.200586 0,1.80033 -1.40025,3.200586 -3.10057,3.200586 -1.80033,0 -3.20058,-1.400256 -3.20058,-3.200586 0,-1.700311 1.40025,-3.200586 3.20058,-3.200586 z m 0,27.204977 v 0 c 0.70013,0 1.20022,0.60011 1.20022,1.30024 0,0.70013 -0.50009,1.20022 -1.20022,1.20022 -0.70012,0 -1.30023,-0.50009 -1.30023,-1.20022 0,-0.70013 0.60011,-1.30024 1.30023,-1.30024 z M 209.43835,30.805641 v 0 c 0.70013,0 1.30024,0.500091 1.30024,1.20022 0,0.700128 -0.60011,1.300238 -1.30024,1.300238 -0.70013,0 -1.30024,-0.60011 -1.30024,-1.300238 0,-0.700129 0.60011,-1.20022 1.30024,-1.20022 z m 0,-31.40575089 v 0 c 4.20077,0 7.60139,3.20058609 7.60139,7.40135529 0,4.2007696 -3.40062,7.5013736 -7.60139,7.5013736 -4.20077,0 -7.50137,-3.300604 -7.50137,-7.5013736 0,-4.2007692 3.3006,-7.40135529 7.50137,-7.40135529 z m 0,56.61036589 v 0 c 0.70013,0 1.30024,0.60011 1.30024,1.300238 0,0.700128 -0.60011,1.20022 -1.30024,1.20022 -0.70013,0 -1.30024,-0.500092 -1.30024,-1.20022 0,-0.700128 0.60011,-1.300238 1.30024,-1.300238 z m 0,25.204615 v 0 c 0.70013,0 1.30024,0.60011 1.30024,1.300238 0,0.700129 -0.60011,1.300238 -1.30024,1.300238 -0.70013,0 -1.30024,-0.600109 -1.30024,-1.300238 0,-0.700128 0.60011,-1.300238 1.30024,-1.300238 z m 0,19.003479 v 0 c 4.20077,0 7.60139,3.40062 7.60139,7.60139 0,4.10075 -3.40062,7.50138 -7.60139,7.50138 -4.20077,0 -7.50137,-3.40063 -7.50137,-7.50138 0,-4.20077 3.3006,-7.60139 7.50137,-7.60139 z M 386.17071,28.905293 v 0 c 1.70031,0 3.20059,1.400256 3.20059,3.100568 0,1.800329 -1.50028,3.200586 -3.20059,3.200586 -1.80033,0 -3.20058,-1.400257 -3.20058,-3.200586 0,-1.700312 1.40025,-3.100568 3.20058,-3.100568 z m 0,-23.4042857 v 0 c 0.70013,0 1.30024,0.6001099 1.30024,1.3002381 0,0.7001282 -0.60011,1.3002381 -1.30024,1.3002381 -0.70013,0 -1.30024,-0.6001099 -1.30024,-1.3002381 0,-0.7001282 0.60011,-1.3002381 1.30024,-1.3002381 z m 0,73.8135157 v 0 c 1.70031,0 3.20059,1.500275 3.20059,3.200586 0,1.80033 -1.50028,3.200586 -3.20059,3.200586 -1.80033,0 -3.20058,-1.400256 -3.20058,-3.200586 0,-1.700311 1.40025,-3.200586 3.20058,-3.200586 z m 0,-25.204615 v 0 c 1.70031,0 3.20059,1.400256 3.20059,3.200586 0,1.700311 -1.50028,3.100568 -3.20059,3.100568 -1.80033,0 -3.20058,-1.400257 -3.20058,-3.100568 0,-1.80033 1.40025,-3.200586 3.20058,-3.200586 z M 57.910604,125.22293 v 0 c 0.200037,0 0.500092,0.20004 0.500092,0.40007 0,0.30006 -0.300055,0.50009 -0.500092,0.50009 -0.300055,0 -0.500092,-0.20003 -0.500092,-0.50009 0,-0.20003 0.200037,-0.40007 0.500092,-0.40007 z M 360.9661,28.905293 v 0 c 1.70031,0 3.10056,1.400256 3.10056,3.100568 0,1.800329 -1.40025,3.200586 -3.10056,3.200586 -1.80033,0 -3.20059,-1.400257 -3.20059,-3.200586 0,-1.700312 1.40026,-3.100568 3.20059,-3.100568 z m 0,-23.4042857 v 0 c 0.70012,0 1.20022,0.6001099 1.20022,1.3002381 0,0.7001282 -0.5001,1.3002381 -1.20022,1.3002381 -0.70013,0 -1.30024,-0.6001099 -1.30024,-1.3002381 0,-0.7001282 0.60011,-1.3002381 1.30024,-1.3002381 z m 0,48.6089007 v 0 c 1.70031,0 3.10056,1.400256 3.10056,3.200586 0,1.700311 -1.40025,3.100568 -3.10056,3.100568 -1.80033,0 -3.20059,-1.400257 -3.20059,-3.100568 0,-1.80033 1.40026,-3.200586 3.20059,-3.200586 z m 0,25.204615 v 0 c 1.70031,0 3.10056,1.500275 3.10056,3.200586 0,1.80033 -1.40025,3.200586 -3.10056,3.200586 -1.80033,0 -3.20059,-1.400256 -3.20059,-3.200586 0,-1.700311 1.40026,-3.200586 3.20059,-3.200586 z m 0,27.204977 v 0 c 0.70012,0 1.20022,0.60011 1.20022,1.30024 0,0.70013 -0.5001,1.20022 -1.20022,1.20022 -0.70013,0 -1.30024,-0.50009 -1.30024,-1.20022 0,-0.70013 0.60011,-1.30024 1.30024,-1.30024 z M 335.66146,28.905293 v 0 c 1.80033,0 3.20059,1.400256 3.20059,3.100568 0,1.800329 -1.40026,3.200586 -3.20059,3.200586 -1.70031,0 -3.20058,-1.400257 -3.20058,-3.200586 0,-1.700312 1.50027,-3.100568 3.20058,-3.100568 z m 0,-23.4042857 v 0 c 0.70013,0 1.30024,0.6001099 1.30024,1.3002381 0,0.7001282 -0.60011,1.3002381 -1.30024,1.3002381 -0.70013,0 -1.30024,-0.6001099 -1.30024,-1.3002381 0,-0.7001282 0.60011,-1.3002381 1.30024,-1.3002381 z m 0,48.6089007 v 0 c 1.80033,0 3.20059,1.400256 3.20059,3.200586 0,1.700311 -1.40026,3.100568 -3.20059,3.100568 -1.70031,0 -3.20058,-1.400257 -3.20058,-3.100568 0,-1.80033 1.50027,-3.200586 3.20058,-3.200586 z m 0,25.204615 v 0 c 1.80033,0 3.20059,1.500275 3.20059,3.200586 0,1.80033 -1.40026,3.200586 -3.20059,3.200586 -1.70031,0 -3.20058,-1.400256 -3.20058,-3.200586 0,-1.700311 1.50027,-3.200586 3.20058,-3.200586 z m 0,27.204977 v 0 c 0.70013,0 1.30024,0.60011 1.30024,1.30024 0,0.70013 -0.60011,1.20022 -1.30024,1.20022 -0.70013,0 -1.30024,-0.50009 -1.30024,-1.20022 0,-0.70013 0.60011,-1.30024 1.30024,-1.30024 z M 310.45685,30.805641 v 0 c 0.70013,0 1.20022,0.500091 1.20022,1.20022 0,0.700128 -0.50009,1.300238 -1.20022,1.300238 -0.70013,0 -1.30024,-0.60011 -1.30024,-1.300238 0,-0.700129 0.60011,-1.20022 1.30024,-1.20022 z m 0,-31.40575089 v 0 c 4.10075,0 7.50137,3.20058609 7.50137,7.40135529 0,4.2007696 -3.40062,7.5013736 -7.50137,7.5013736 -4.20077,0 -7.60139,-3.300604 -7.60139,-7.5013736 0,-4.2007692 3.40062,-7.40135529 7.60139,-7.40135529 z m 0,56.61036589 v 0 c 0.70013,0 1.20022,0.60011 1.20022,1.300238 0,0.700128 -0.50009,1.20022 -1.20022,1.20022 -0.70013,0 -1.30024,-0.500092 -1.30024,-1.20022 0,-0.700128 0.60011,-1.300238 1.30024,-1.300238 z m 0,25.204615 v 0 c 0.70013,0 1.20022,0.60011 1.20022,1.300238 0,0.700129 -0.50009,1.300238 -1.20022,1.300238 -0.70013,0 -1.30024,-0.600109 -1.30024,-1.300238 0,-0.700128 0.60011,-1.300238 1.30024,-1.300238 z m 0,19.003479 v 0 c 4.10075,0 7.50137,3.40062 7.50137,7.60139 0,4.10075 -3.40062,7.50138 -7.50137,7.50138 -4.20077,0 -7.60139,-3.40063 -7.60139,-7.50138 0,-4.20077 3.40062,-7.60139 7.60139,-7.60139 z M 487.18921,28.905293 v 0 c 1.70031,0 3.10057,1.400256 3.10057,3.100568 0,1.800329 -1.40026,3.200586 -3.10057,3.200586 -1.80033,0 -3.20059,-1.400257 -3.20059,-3.200586 0,-1.700312 1.40026,-3.100568 3.20059,-3.100568 z m 0,-23.4042857 v 0 c 0.70013,0 1.20022,0.6001099 1.20022,1.3002381 0,0.7001282 -0.50009,1.3002381 -1.20022,1.3002381 -0.70013,0 -1.30024,-0.6001099 -1.30024,-1.3002381 0,-0.7001282 0.60011,-1.3002381 1.30024,-1.3002381 z m 0,48.6089007 v 0 c 1.70031,0 3.10057,1.400256 3.10057,3.200586 0,1.700311 -1.40026,3.100568 -3.10057,3.100568 -1.80033,0 -3.20059,-1.400257 -3.20059,-3.100568 0,-1.80033 1.40026,-3.200586 3.20059,-3.200586 z m 0,25.204615 v 0 c 1.70031,0 3.10057,1.500275 3.10057,3.200586 0,1.80033 -1.40026,3.200586 -3.10057,3.200586 -1.80033,0 -3.20059,-1.400256 -3.20059,-3.200586 0,-1.700311 1.40026,-3.200586 3.20059,-3.200586 z m 0,27.204977 v 0 c 0.70013,0 1.20022,0.60011 1.20022,1.30024 0,0.70013 -0.50009,1.20022 -1.20022,1.20022 -0.70013,0 -1.30024,-0.50009 -1.30024,-1.20022 0,-0.70013 0.60011,-1.30024 1.30024,-1.30024 z M 461.88458,28.905293 v 0 c 1.80033,0 3.20058,1.400256 3.20058,3.100568 0,1.800329 -1.40025,3.200586 -3.20058,3.200586 -1.70032,0 -3.20059,-1.400257 -3.20059,-3.200586 0,-1.700312 1.50027,-3.100568 3.20059,-3.100568 z m 0,-23.4042857 v 0 c 0.70012,0 1.30023,0.6001099 1.30023,1.3002381 0,0.7001282 -0.60011,1.3002381 -1.30023,1.3002381 -0.70013,0 -1.30024,-0.6001099 -1.30024,-1.3002381 0,-0.7001282 0.60011,-1.3002381 1.30024,-1.3002381 z m 0,48.6089007 v 0 c 1.80033,0 3.20058,1.400256 3.20058,3.200586 0,1.700311 -1.40025,3.100568 -3.20058,3.100568 -1.70032,0 -3.20059,-1.400257 -3.20059,-3.100568 0,-1.80033 1.50027,-3.200586 3.20059,-3.200586 z m 0,25.204615 v 0 c 1.80033,0 3.20058,1.500275 3.20058,3.200586 0,1.80033 -1.40025,3.200586 -3.20058,3.200586 -1.70032,0 -3.20059,-1.400256 -3.20059,-3.200586 0,-1.700311 1.50027,-3.200586 3.20059,-3.200586 z m 0,27.204977 v 0 c 0.70012,0 1.30023,0.60011 1.30023,1.30024 0,0.70013 -0.60011,1.20022 -1.30023,1.20022 -0.70013,0 -1.30024,-0.50009 -1.30024,-1.20022 0,-0.70013 0.60011,-1.30024 1.30024,-1.30024 z M 436.67996,28.905293 v 0 c 1.70031,0 3.10057,1.400256 3.10057,3.100568 0,1.800329 -1.40026,3.200586 -3.10057,3.200586 -1.80033,0 -3.20059,-1.400257 -3.20059,-3.200586 0,-1.700312 1.40026,-3.100568 3.20059,-3.100568 z m 0,-23.4042857 v 0 c 0.70013,0 1.20022,0.6001099 1.20022,1.3002381 0,0.7001282 -0.50009,1.3002381 -1.20022,1.3002381 -0.70013,0 -1.30024,-0.6001099 -1.30024,-1.3002381 0,-0.7001282 0.60011,-1.3002381 1.30024,-1.3002381 z m 0,48.6089007 v 0 c 1.70031,0 3.10057,1.400256 3.10057,3.200586 0,1.700311 -1.40026,3.100568 -3.10057,3.100568 -1.80033,0 -3.20059,-1.400257 -3.20059,-3.100568 0,-1.80033 1.40026,-3.200586 3.20059,-3.200586 z m 0,25.204615 v 0 c 1.70031,0 3.10057,1.500275 3.10057,3.200586 0,1.80033 -1.40026,3.200586 -3.10057,3.200586 -1.80033,0 -3.20059,-1.400256 -3.20059,-3.200586 0,-1.700311 1.40026,-3.200586 3.20059,-3.200586 z M 386.17071,106.5195 v 0 c 0.70013,0 1.30024,0.60011 1.30024,1.30024 0,0.70013 -0.60011,1.20022 -1.30024,1.20022 -0.70013,0 -1.30024,-0.50009 -1.30024,-1.20022 0,-0.70013 0.60011,-1.30024 1.30024,-1.30024 z m 50.50925,0 v 0 c 0.70013,0 1.20022,0.60011 1.20022,1.30024 0,0.70013 -0.50009,1.20022 -1.20022,1.20022 -0.70013,0 -1.30024,-0.50009 -1.30024,-1.20022 0,-0.70013 0.60011,-1.30024 1.30024,-1.30024 z m 75.71386,-75.713859 v 0 c 0.70013,0 1.30024,0.500091 1.30024,1.20022 0,0.700128 -0.60011,1.300238 -1.30024,1.300238 -0.70012,0 -1.30023,-0.60011 -1.30023,-1.300238 0,-0.700129 0.60011,-1.20022 1.30023,-1.20022 z m 0,-31.40575089 v 0 c 4.20077,0 7.50138,3.20058609 7.50138,7.40135529 0,4.2007696 -3.30061,7.5013736 -7.50138,7.5013736 -4.20076,0 -7.60139,-3.300604 -7.60139,-7.5013736 0,-4.2007692 3.40063,-7.40135529 7.60139,-7.40135529 z m 0,56.61036589 v 0 c 0.70013,0 1.30024,0.60011 1.30024,1.300238 0,0.700128 -0.60011,1.20022 -1.30024,1.20022 -0.70012,0 -1.30023,-0.500092 -1.30023,-1.20022 0,-0.700128 0.60011,-1.300238 1.30023,-1.300238 z m 0,25.204615 v 0 c 0.70013,0 1.30024,0.60011 1.30024,1.300238 0,0.700129 -0.60011,1.300238 -1.30024,1.300238 -0.70012,0 -1.30023,-0.600109 -1.30023,-1.300238 0,-0.700128 0.60011,-1.300238 1.30023,-1.300238 z m 0,19.003479 v 0 c 4.20077,0 7.50138,3.40062 7.50138,7.60139 0,4.10075 -3.30061,7.50138 -7.50138,7.50138 -4.20076,0 -7.60139,-3.40063 -7.60139,-7.50138 0,-4.20077 3.40063,-7.60139 7.60139,-7.60139 z M 411.37533,30.805641 v 0 c 0.70013,0 1.30024,0.500091 1.30024,1.20022 0,0.700128 -0.60011,1.300238 -1.30024,1.300238 -0.70013,0 -1.20022,-0.60011 -1.20022,-1.300238 0,-0.700129 0.50009,-1.20022 1.20022,-1.20022 z m 0,-31.40575089 v 0 c 4.20077,0 7.60139,3.20058609 7.60139,7.40135529 0,4.2007696 -3.40062,7.5013736 -7.60139,7.5013736 -4.10075,0 -7.50138,-3.300604 -7.50138,-7.5013736 0,-4.2007692 3.40063,-7.40135529 7.50138,-7.40135529 z m 0,56.61036589 v 0 c 0.70013,0 1.30024,0.60011 1.30024,1.300238 0,0.700128 -0.60011,1.20022 -1.30024,1.20022 -0.70013,0 -1.20022,-0.500092 -1.20022,-1.20022 0,-0.700128 0.50009,-1.300238 1.20022,-1.300238 z m 0,25.204615 v 0 c 0.70013,0 1.30024,0.60011 1.30024,1.300238 0,0.700129 -0.60011,1.300238 -1.30024,1.300238 -0.70013,0 -1.20022,-0.600109 -1.20022,-1.300238 0,-0.700128 0.50009,-1.300238 1.20022,-1.300238 z m 0,19.003479 v 0 c 4.20077,0 7.60139,3.40062 7.60139,7.60139 0,4.10075 -3.40062,7.50138 -7.60139,7.50138 -4.10075,0 -7.50138,-3.40063 -7.50138,-7.50138 0,-4.20077 3.40063,-7.60139 7.50138,-7.60139 z" /><rect
       style="fill:none;stroke:#000000;stroke-width:0.5;stroke-dasharray:6, 6;stroke-dashoffset:2.5"
       id="rect5375"
       width="95.599998"
       height="95.599998"
       x="80.525314"
       y="121.65755" /><path
       style="fill:none;stroke:#000000;stroke-width:0.499999;stroke-dasharray:5.99999, 5.99999;stroke-dashoffset:4.14999"
       d="M 80.794078,169.45755 H 175.85655"
       id="path6166"
       sodipodi:nodetypes="cc" /><rect
       style="fill:none;stroke:#000000;stroke-width:0.5;stroke-dasharray:3.025, 3.025;stroke-dashoffset:2.1"
       id="rect6170"
       width="95.881828"
       height="95.881821"
       x="-15.683"
       y="25.594477" /><path
       style="fill:none;stroke:#000000;stroke-width:0.499999;stroke-dasharray:3.02501, 3.02501;stroke-dashoffset:2.1"
       d="M 8.287457,25.458486 V 121.39487"
       id="path6550" /><path
       style="fill:none;stroke:#000000;stroke-width:0.499999;stroke-dasharray:3.02501, 3.02501;stroke-dashoffset:2.1"
       d="M 32.257914,25.458486 V 121.39487"
       id="path6548" /><path
       style="fill:none;stroke:#000000;stroke-width:0.499999;stroke-dasharray:3.02501, 3.02501;stroke-dashoffset:2.1"
       d="M 56.228372,25.458486 V 121.39487"
       id="path6176" /><path
       style="fill:none;stroke:#000000;stroke-width:0.499999;stroke-dasharray:3.02501, 3.02501;stroke-dashoffset:2.1"
       d="M -15.710277,97.397135 H 80.226107"
       id="path6556" /><path
       style="fill:none;stroke:#000000;stroke-width:0.499999;stroke-dasharray:3.02501, 3.02501;stroke-dashoffset:2.1"
       d="M -15.710277,73.426679 H 80.226107"
       id="path6558" /><path
       style="fill:none;stroke:#000000;stroke-width:0.499999;stroke-dasharray:3.02501, 3.02501;stroke-dashoffset:2.1"
       d="M -15.710277,49.456221 H 80.226107"
       id="path6560" /><path
       style="fill:none;stroke:#000000;stroke-width:0.499999;stroke-dasharray:5.99999, 5.99999;stroke-dashoffset:3.14999"
       d="m 128.32531,121.92631 v 95.06248"
       id="path6927"
       sodipodi:nodetypes="cc" /></g></svg>
