<?xml version="1.0" encoding="UTF-8" standalone="no"?>
<!-- Created with Inkscape (http://www.inkscape.org/) -->

<svg
   width="236.69821mm"
   height="128.334mm"
   viewBox="0 0 236.69822 128.334"
   version="1.1"
   id="svg3102"
   xml:space="preserve"
   inkscape:version="1.2.1 (9c6d41e, 2022-07-14)"
   sodipodi:docname="logo1.svg"
   xmlns:inkscape="http://www.inkscape.org/namespaces/inkscape"
   xmlns:sodipodi="http://sodipodi.sourceforge.net/DTD/sodipodi-0.dtd"
   xmlns="http://www.w3.org/2000/svg"
   xmlns:svg="http://www.w3.org/2000/svg"><sodipodi:namedview
     id="namedview3104"
     pagecolor="#ffffff"
     bordercolor="#ffffff"
     borderopacity="0.25"
     inkscape:showpageshadow="2"
     inkscape:pageopacity="0.0"
     inkscape:pagecheckerboard="0"
     inkscape:deskcolor="#d1d1d1"
     inkscape:document-units="mm"
     showgrid="false"
     inkscape:zoom="2.201223"
     inkscape:cx="631.24001"
     inkscape:cy="374.11022"
     inkscape:window-width="1512"
     inkscape:window-height="853"
     inkscape:window-x="0"
     inkscape:window-y="38"
     inkscape:window-maximized="0"
     inkscape:current-layer="layer1" /><defs
     id="defs3099"><rect
       x="31.58382"
       y="729.05988"
       width="0"
       height="24.565193"
       id="rect3395" /><clipPath
       clipPathUnits="userSpaceOnUse"
       id="clipEmfPath1"><path
         d="M 0,0 V 0 650.63882 H 650.63882 V 0"
         id="path1799" /></clipPath><pattern
       id="EMFhbasepattern"
       patternUnits="userSpaceOnUse"
       width="6"
       height="6"
       x="0"
       y="0" /><clipPath
       clipPathUnits="userSpaceOnUse"
       id="clipEmfPath1-4"><path
         d="M 0,0 V 0 520.09523 H 520.09523 V 0"
         id="path3539" /></clipPath><pattern
       id="EMFhbasepattern-0"
       patternUnits="userSpaceOnUse"
       width="6"
       height="6"
       x="0"
       y="0" /></defs><g
     inkscape:label="Layer 1"
     inkscape:groupmode="layer"
     id="layer1"
     transform="translate(-257.00499,-83.974503)"><g
       id="g6991"
       transform="translate(-0.39950658,0.20042476)"><rect
         style="fill:none;stroke:#ffffff;stroke-width:0.3;stroke-dasharray:3, 3;stroke-dashoffset:1.26"
         id="rect6170"
         width="72.246742"
         height="72.246742"
         x="347.8465"
         y="102.30208" /><path
         style="fill:none;stroke:#ffffff;stroke-width:0.3;stroke-dasharray:3, 3;stroke-dashoffset:1.26"
         d="m 365.90819,102.16609 v 72.03575"
         id="path6172" /><path
         style="fill:none;stroke:#ffffff;stroke-width:0.3;stroke-dasharray:3, 3;stroke-dashoffset:1.26"
         d="m 383.96988,102.16609 v 72.03575"
         id="path6174" /><path
         style="fill:none;stroke:#ffffff;stroke-width:0.3;stroke-dasharray:3, 3;stroke-dashoffset:1.26"
         d="m 402.03156,102.16609 v 72.03575"
         id="path6176" /><path
         style="fill:none;stroke:#ffffff;stroke-width:0.3;stroke-dasharray:3, 3;stroke-dashoffset:1.26"
         d="m 347.952,156.24565 h 72.03575"
         id="path6182" /><path
         style="fill:none;stroke:#ffffff;stroke-width:0.3;stroke-dasharray:3, 3;stroke-dashoffset:1.26"
         d="m 347.952,138.18396 h 72.03575"
         id="path6184" /><path
         style="fill:none;stroke:#ffffff;stroke-width:0.3;stroke-dasharray:3, 3;stroke-dashoffset:1.26"
         d="m 347.952,120.12228 h 72.03575"
         id="path6186" /></g><text
       xml:space="preserve"
       style="font-size:11.0662px;font-family:Helvetica;-inkscape-font-specification:Helvetica;text-align:center;text-anchor:middle;fill:#ffffff;stroke:none;stroke-width:3.4854"
       x="362.52142"
       y="171.23158"
       id="text3289"
       transform="scale(0.89874716,1.11266)"><tspan
         sodipodi:role="line"
         id="tspan3287"
         style="font-style:normal;font-variant:normal;font-weight:bold;font-stretch:normal;font-family:'Source Code Pro';-inkscape-font-specification:'Source Code Pro Bold';fill:#ffffff;stroke:none;stroke-width:3.4854"
         x="362.52142"
         y="171.23158">lattice virtual academy</tspan></text><text
       xml:space="preserve"
       transform="scale(0.26458333)"
       id="text3393"
       style="font-style:normal;font-variant:normal;font-weight:normal;font-stretch:normal;font-family:'Source Code Pro for Powerline';-inkscape-font-specification:'Source Code Pro for Powerline';text-align:center;white-space:pre;shape-inside:url(#rect3395);display:inline;fill:#003380;stroke:none;stroke-width:3.77953" /><path
       id="path685"
       style="fill:#ffffff;stroke-width:1.28389"
       d="m 436.87212,102.09206 -17.38891,72.512 h 9.30041 l 4.29718,-17.99283 h 27.16852 l 4.44498,17.99283 h 9.74385 l -17.38889,-72.512 h -9.84267 -0.49181 z m 7.74415,8.53865 h 4.24288 l 9.37086,36.84882 h -22.96287 z m -79.21178,-8.53875 18.37356,72.51221 h 17.92913 l 18.37356,-72.51221 h -9.33483 l -16.00264,64.30719 h -0.29662 -3.40807 -0.2961 l -16.00264,-64.30719 z m -108.3995,72.70686 v -72.60574 h 10.12198 v 62.67842 h 38.54139 l -2.5305,9.73267 z m 64.17842,-55.3534 -13.86788,55.15875 h 8.24239 l 3.66282,-13.68686 h 9.81232 0.39223 9.81232 l 3.66283,13.68686 h 8.24239 l -13.86789,-55.15875 h -7.84965 -0.39223 z m 6.76548,6.49521 h 2.44068 l 7.59127,28.03033 h -17.13436 z" /><rect
       style="fill:none;stroke:#ffffff;stroke-width:0.6;stroke-dasharray:none"
       id="rect740"
       width="72.199997"
       height="72.199997"
       x="257.30499"
       y="102.29882" /><path
       id="path4427"
       clip-path="url(#clipEmfPath1-4)"
       style="fill:#ffffff;fill-opacity:1;fill-rule:nonzero;stroke:none"
       transform="matrix(0.17944325,0,0,0.17944325,400.41152,119.1245)"
       d="m 83.215238,28.905293 v 0 c 1.800329,0 3.200586,1.400256 3.200586,3.100568 0,1.800329 -1.400257,3.200586 -3.200586,3.200586 -1.700312,0 -3.200587,-1.400257 -3.200587,-3.200586 0,-1.700312 1.500275,-3.100568 3.200587,-3.100568 z m 0,-23.4042857 v 0 c 0.700128,0 1.300238,0.6001099 1.300238,1.3002381 0,0.7001282 -0.60011,1.3002381 -1.300238,1.3002381 -0.700129,0 -1.300239,-0.6001099 -1.300239,-1.3002381 0,-0.7001282 0.60011,-1.3002381 1.300239,-1.3002381 z m 0,48.6089007 v 0 c 1.800329,0 3.200586,1.400256 3.200586,3.200586 0,1.700311 -1.400257,3.100568 -3.200586,3.100568 -1.700312,0 -3.200587,-1.400257 -3.200587,-3.100568 0,-1.80033 1.500275,-3.200586 3.200587,-3.200586 z m 0,25.204615 v 0 c 1.800329,0 3.200586,1.500275 3.200586,3.200586 0,1.80033 -1.400257,3.200586 -3.200586,3.200586 -1.700312,0 -3.200587,-1.400256 -3.200587,-3.200586 0,-1.700311 1.500275,-3.200586 3.200587,-3.200586 z m 0,27.204977 v 0 c 0.700128,0 1.300238,0.60011 1.300238,1.30024 0,0.70013 -0.60011,1.20022 -1.300238,1.20022 -0.700129,0 -1.300239,-0.50009 -1.300239,-1.20022 0,-0.70013 0.60011,-1.30024 1.300239,-1.30024 z M 58.010622,28.905293 v 0 c 1.700312,0 3.100568,1.400256 3.100568,3.100568 0,1.800329 -1.400256,3.200586 -3.100568,3.200586 -1.800329,0 -3.200586,-1.400257 -3.200586,-3.200586 0,-1.700312 1.400257,-3.100568 3.200586,-3.100568 z m 0,-23.4042857 v 0 c 0.700129,0 1.20022,0.6001099 1.20022,1.3002381 0,0.7001282 -0.500091,1.3002381 -1.20022,1.3002381 -0.700128,0 -1.300238,-0.6001099 -1.300238,-1.3002381 0,-0.7001282 0.60011,-1.3002381 1.300238,-1.3002381 z m 0,48.6089007 v 0 c 1.700312,0 3.100568,1.400256 3.100568,3.200586 0,1.700311 -1.400256,3.100568 -3.100568,3.100568 -1.800329,0 -3.200586,-1.400257 -3.200586,-3.100568 0,-1.80033 1.400257,-3.200586 3.200586,-3.200586 z m 0,25.204615 v 0 c 1.700312,0 3.100568,1.500275 3.100568,3.200586 0,1.80033 -1.400256,3.200586 -3.100568,3.200586 -1.800329,0 -3.200586,-1.400256 -3.200586,-3.200586 0,-1.700311 1.400257,-3.200586 3.200586,-3.200586 z m 0,27.204977 v 0 c 0.700129,0 1.20022,0.60011 1.20022,1.30024 0,0.70013 -0.500091,1.20022 -1.20022,1.20022 -0.700128,0 -1.300238,-0.50009 -1.300238,-1.20022 0,-0.70013 0.60011,-1.30024 1.300238,-1.30024 z M 32.705989,28.905293 v 0 c 1.800329,0 3.200586,1.400256 3.200586,3.100568 0,1.800329 -1.400257,3.200586 -3.200586,3.200586 -1.700312,0 -3.100568,-1.400257 -3.100568,-3.200586 0,-1.700312 1.400256,-3.100568 3.100568,-3.100568 z m 0,-23.4042857 v 0 c 0.700128,0 1.300238,0.6001099 1.300238,1.3002381 0,0.7001282 -0.60011,1.3002381 -1.300238,1.3002381 -0.700128,0 -1.20022,-0.6001099 -1.20022,-1.3002381 0,-0.7001282 0.500092,-1.3002381 1.20022,-1.3002381 z m 0,48.6089007 v 0 c 1.800329,0 3.200586,1.400256 3.200586,3.200586 0,1.700311 -1.400257,3.100568 -3.200586,3.100568 -1.700312,0 -3.100568,-1.400257 -3.100568,-3.100568 0,-1.80033 1.400256,-3.200586 3.100568,-3.200586 z m 0,25.204615 v 0 c 1.800329,0 3.200586,1.500275 3.200586,3.200586 0,1.80033 -1.400257,3.200586 -3.200586,3.200586 -1.700312,0 -3.100568,-1.400256 -3.100568,-3.200586 0,-1.700311 1.400256,-3.200586 3.100568,-3.200586 z m 0,27.204977 v 0 c 0.700128,0 1.300238,0.60011 1.300238,1.30024 0,0.70013 -0.60011,1.20022 -1.300238,1.20022 -0.700128,0 -1.20022,-0.50009 -1.20022,-1.20022 0,-0.70013 0.500092,-1.30024 1.20022,-1.30024 z M 7.5013736,30.805641 v 0 c 0.7001282,0 1.3002381,0.500091 1.3002381,1.20022 0,0.700128 -0.6001099,1.300238 -1.3002381,1.300238 -0.7001282,0 -1.3002381,-0.60011 -1.3002381,-1.300238 0,-0.700129 0.6001099,-1.20022 1.3002381,-1.20022 z m 0,-31.40575089 v 0 c 4.2007694,0 7.5013734,3.20058609 7.5013734,7.40135529 0,4.2007696 -3.300604,7.5013736 -7.5013734,7.5013736 C 3.3006044,14.302619 0,11.002015 0,6.8012454 0,2.6004762 3.3006044,-0.60010989 7.5013736,-0.60010989 Z m 0,56.61036589 v 0 c 0.7001282,0 1.3002381,0.60011 1.3002381,1.300238 0,0.700128 -0.6001099,1.20022 -1.3002381,1.20022 -0.7001282,0 -1.3002381,-0.500092 -1.3002381,-1.20022 0,-0.700128 0.6001099,-1.300238 1.3002381,-1.300238 z m 0,25.204615 v 0 c 0.7001282,0 1.3002381,0.60011 1.3002381,1.300238 0,0.700129 -0.6001099,1.300238 -1.3002381,1.300238 -0.7001282,0 -1.3002381,-0.600109 -1.3002381,-1.300238 0,-0.700128 0.6001099,-1.300238 1.3002381,-1.300238 z m 0,19.003479 v 0 c 4.2007694,0 7.5013734,3.40062 7.5013734,7.60139 0,4.10075 -3.300604,7.50138 -7.5013734,7.50138 C 3.3006044,115.32112 0,111.92049 0,107.81974 c 0,-4.20077 3.3006044,-7.60139 7.5013736,-7.60139 z M 184.23374,28.905293 v 0 c 1.70031,0 3.10056,1.400256 3.10056,3.100568 0,1.800329 -1.40025,3.200586 -3.10056,3.200586 -1.80033,0 -3.20059,-1.400257 -3.20059,-3.200586 0,-1.700312 1.40026,-3.100568 3.20059,-3.100568 z m 0,-23.4042857 v 0 c 0.70012,0 1.20021,0.6001099 1.20021,1.3002381 0,0.7001282 -0.50009,1.3002381 -1.20021,1.3002381 -0.70013,0 -1.30024,-0.6001099 -1.30024,-1.3002381 0,-0.7001282 0.60011,-1.3002381 1.30024,-1.3002381 z m 0,48.6089007 v 0 c 1.70031,0 3.10056,1.400256 3.10056,3.200586 0,1.700311 -1.40025,3.100568 -3.10056,3.100568 -1.80033,0 -3.20059,-1.400257 -3.20059,-3.100568 0,-1.80033 1.40026,-3.200586 3.20059,-3.200586 z m 0,25.204615 v 0 c 1.70031,0 3.10056,1.500275 3.10056,3.200586 0,1.80033 -1.40025,3.200586 -3.10056,3.200586 -1.80033,0 -3.20059,-1.400256 -3.20059,-3.200586 0,-1.700311 1.40026,-3.200586 3.20059,-3.200586 z m 0,27.204977 v 0 c 0.70012,0 1.20021,0.60011 1.20021,1.30024 0,0.70013 -0.50009,1.20022 -1.20021,1.20022 -0.70013,0 -1.30024,-0.50009 -1.30024,-1.20022 0,-0.70013 0.60011,-1.30024 1.30024,-1.30024 z M 158.9291,28.905293 v 0 c 1.80033,0 3.20059,1.400256 3.20059,3.100568 0,1.800329 -1.40026,3.200586 -3.20059,3.200586 -1.70031,0 -3.10057,-1.400257 -3.10057,-3.200586 0,-1.700312 1.40026,-3.100568 3.10057,-3.100568 z m 0,-23.4042857 v 0 c 0.70013,0 1.30024,0.6001099 1.30024,1.3002381 0,0.7001282 -0.60011,1.3002381 -1.30024,1.3002381 -0.70013,0 -1.20022,-0.6001099 -1.20022,-1.3002381 0,-0.7001282 0.50009,-1.3002381 1.20022,-1.3002381 z m 0,48.6089007 v 0 c 1.80033,0 3.20059,1.400256 3.20059,3.200586 0,1.700311 -1.40026,3.100568 -3.20059,3.100568 -1.70031,0 -3.10057,-1.400257 -3.10057,-3.100568 0,-1.80033 1.40026,-3.200586 3.10057,-3.200586 z m 0,25.204615 v 0 c 1.80033,0 3.20059,1.500275 3.20059,3.200586 0,1.80033 -1.40026,3.200586 -3.20059,3.200586 -1.70031,0 -3.10057,-1.400256 -3.10057,-3.200586 0,-1.700311 1.40026,-3.200586 3.10057,-3.200586 z m 0,27.204977 v 0 c 0.70013,0 1.30024,0.60011 1.30024,1.30024 0,0.70013 -0.60011,1.20022 -1.30024,1.20022 -0.70013,0 -1.20022,-0.50009 -1.20022,-1.20022 0,-0.70013 0.50009,-1.30024 1.20022,-1.30024 z M 133.72449,28.905293 v 0 c 1.70031,0 3.20058,1.400256 3.20058,3.100568 0,1.800329 -1.50027,3.200586 -3.20058,3.200586 -1.80033,0 -3.20059,-1.400257 -3.20059,-3.200586 0,-1.700312 1.40026,-3.100568 3.20059,-3.100568 z m 0,-23.4042857 v 0 c 0.70012,0 1.30023,0.6001099 1.30023,1.3002381 0,0.7001282 -0.60011,1.3002381 -1.30023,1.3002381 -0.70013,0 -1.30024,-0.6001099 -1.30024,-1.3002381 0,-0.7001282 0.60011,-1.3002381 1.30024,-1.3002381 z m 0,48.6089007 v 0 c 1.70031,0 3.20058,1.400256 3.20058,3.200586 0,1.700311 -1.50027,3.100568 -3.20058,3.100568 -1.80033,0 -3.20059,-1.400257 -3.20059,-3.100568 0,-1.80033 1.40026,-3.200586 3.20059,-3.200586 z m 0,25.204615 v 0 c 1.70031,0 3.20058,1.500275 3.20058,3.200586 0,1.80033 -1.50027,3.200586 -3.20058,3.200586 -1.80033,0 -3.20059,-1.400256 -3.20059,-3.200586 0,-1.700311 1.40026,-3.200586 3.20059,-3.200586 z m 0,27.204977 v 0 c 0.70012,0 1.30023,0.60011 1.30023,1.30024 0,0.70013 -0.60011,1.20022 -1.30023,1.20022 -0.70013,0 -1.30024,-0.50009 -1.30024,-1.20022 0,-0.70013 0.60011,-1.30024 1.30024,-1.30024 z M 108.51987,30.805641 v 0 c 0.70013,0 1.20022,0.500091 1.20022,1.20022 0,0.700128 -0.50009,1.300238 -1.20022,1.300238 -0.70013,0 -1.30024,-0.60011 -1.30024,-1.300238 0,-0.700129 0.60011,-1.20022 1.30024,-1.20022 z m 0,-31.40575089 v 0 c 4.10075,0 7.50137,3.20058609 7.50137,7.40135529 0,4.2007696 -3.40062,7.5013736 -7.50137,7.5013736 -4.20077,0 -7.60139,-3.300604 -7.60139,-7.5013736 0,-4.2007692 3.40062,-7.40135529 7.60139,-7.40135529 z m 0,56.61036589 v 0 c 0.70013,0 1.20022,0.60011 1.20022,1.300238 0,0.700128 -0.50009,1.20022 -1.20022,1.20022 -0.70013,0 -1.30024,-0.500092 -1.30024,-1.20022 0,-0.700128 0.60011,-1.300238 1.30024,-1.300238 z m 0,25.204615 v 0 c 0.70013,0 1.20022,0.60011 1.20022,1.300238 0,0.700129 -0.50009,1.300238 -1.20022,1.300238 -0.70013,0 -1.30024,-0.600109 -1.30024,-1.300238 0,-0.700128 0.60011,-1.300238 1.30024,-1.300238 z M 83.215238,432.77925 v 0 c 1.800329,0 3.200586,1.40025 3.200586,3.20058 0,1.70031 -1.400257,3.10057 -3.200586,3.10057 -1.700312,0 -3.200587,-1.40026 -3.200587,-3.10057 0,-1.80033 1.500275,-3.20058 3.200587,-3.20058 z m 0,25.20461 v 0 c 1.800329,0 3.200586,1.50028 3.200586,3.20059 0,1.80033 -1.400257,3.20058 -3.200586,3.20058 -1.700312,0 -3.200587,-1.40025 -3.200587,-3.20058 0,-1.70031 1.500275,-3.20059 3.200587,-3.20059 z m 0,25.30463 v 0 c 1.800329,0 3.200586,1.40026 3.200586,3.20059 0,1.70031 -1.400257,3.10057 -3.200586,3.10057 -1.700312,0 -3.200587,-1.40026 -3.200587,-3.10057 0,-1.80033 1.500275,-3.20059 3.200587,-3.20059 z m 0,27.10497 v 0 c 0.700128,0 1.300238,0.60011 1.300238,1.30024 0,0.70012 -0.60011,1.30023 -1.300238,1.30023 -0.700129,0 -1.300239,-0.60011 -1.300239,-1.30023 0,-0.70013 0.60011,-1.30024 1.300239,-1.30024 z M 58.010622,432.77925 v 0 c 1.700312,0 3.100568,1.40025 3.100568,3.20058 0,1.70031 -1.400256,3.10057 -3.100568,3.10057 -1.800329,0 -3.200586,-1.40026 -3.200586,-3.10057 0,-1.80033 1.400257,-3.20058 3.200586,-3.20058 z m 0,25.20461 v 0 c 1.700312,0 3.100568,1.50028 3.100568,3.20059 0,1.80033 -1.400256,3.20058 -3.100568,3.20058 -1.800329,0 -3.200586,-1.40025 -3.200586,-3.20058 0,-1.70031 1.400257,-3.20059 3.200586,-3.20059 z m 0,25.30463 v 0 c 1.700312,0 3.100568,1.40026 3.100568,3.20059 0,1.70031 -1.400256,3.10057 -3.100568,3.10057 -1.800329,0 -3.200586,-1.40026 -3.200586,-3.10057 0,-1.80033 1.400257,-3.20059 3.200586,-3.20059 z m 0,27.10497 v 0 c 0.700129,0 1.20022,0.60011 1.20022,1.30024 0,0.70012 -0.500091,1.30023 -1.20022,1.30023 -0.700128,0 -1.300238,-0.60011 -1.300238,-1.30023 0,-0.70013 0.60011,-1.30024 1.300238,-1.30024 z M 32.705989,432.77925 v 0 c 1.800329,0 3.200586,1.40025 3.200586,3.20058 0,1.70031 -1.400257,3.10057 -3.200586,3.10057 -1.700312,0 -3.100568,-1.40026 -3.100568,-3.10057 0,-1.80033 1.400256,-3.20058 3.100568,-3.20058 z m 0,25.20461 v 0 c 1.800329,0 3.200586,1.50028 3.200586,3.20059 0,1.80033 -1.400257,3.20058 -3.200586,3.20058 -1.700312,0 -3.100568,-1.40025 -3.100568,-3.20058 0,-1.70031 1.400256,-3.20059 3.100568,-3.20059 z m 0,25.30463 v 0 c 1.800329,0 3.200586,1.40026 3.200586,3.20059 0,1.70031 -1.400257,3.10057 -3.200586,3.10057 -1.700312,0 -3.100568,-1.40026 -3.100568,-3.10057 0,-1.80033 1.400256,-3.20059 3.100568,-3.20059 z m 0,27.10497 v 0 c 0.700128,0 1.300238,0.60011 1.300238,1.30024 0,0.70012 -0.60011,1.30023 -1.300238,1.30023 -0.700128,0 -1.20022,-0.60011 -1.20022,-1.30023 0,-0.70013 0.500092,-1.30024 1.20022,-1.30024 z M 7.5013736,434.67959 v 0 c 0.7001282,0 1.3002381,0.60011 1.3002381,1.30024 0,0.70013 -0.6001099,1.20022 -1.3002381,1.20022 -0.7001282,0 -1.3002381,-0.50009 -1.3002381,-1.20022 0,-0.70013 0.6001099,-1.30024 1.3002381,-1.30024 z m 0,25.20462 v 0 c 0.7001282,0 1.3002381,0.60011 1.3002381,1.30024 0,0.70013 -0.6001099,1.30024 -1.3002381,1.30024 -0.7001282,0 -1.3002381,-0.60011 -1.3002381,-1.30024 0,-0.70013 0.6001099,-1.30024 1.3002381,-1.30024 z m 0,25.30463 v 0 c 0.7001282,0 1.3002381,0.60011 1.3002381,1.30024 0,0.70013 -0.6001099,1.20022 -1.3002381,1.20022 -0.7001282,0 -1.3002381,-0.50009 -1.3002381,-1.20022 0,-0.70013 0.6001099,-1.30024 1.3002381,-1.30024 z m 0,19.00348 v 0 c 4.2007694,0 7.5013734,3.30061 7.5013734,7.50138 0,4.20077 -3.300604,7.60139 -7.5013734,7.60139 C 3.3006044,519.29509 0,515.89447 0,511.6937 c 0,-4.20077 3.3006044,-7.50138 7.5013736,-7.50138 z M 184.23374,432.77925 v 0 c 1.70031,0 3.10056,1.40025 3.10056,3.20058 0,1.70031 -1.40025,3.10057 -3.10056,3.10057 -1.80033,0 -3.20059,-1.40026 -3.20059,-3.10057 0,-1.80033 1.40026,-3.20058 3.20059,-3.20058 z m 0,25.20461 v 0 c 1.70031,0 3.10056,1.50028 3.10056,3.20059 0,1.80033 -1.40025,3.20058 -3.10056,3.20058 -1.80033,0 -3.20059,-1.40025 -3.20059,-3.20058 0,-1.70031 1.40026,-3.20059 3.20059,-3.20059 z m 0,25.30463 v 0 c 1.70031,0 3.10056,1.40026 3.10056,3.20059 0,1.70031 -1.40025,3.10057 -3.10056,3.10057 -1.80033,0 -3.20059,-1.40026 -3.20059,-3.10057 0,-1.80033 1.40026,-3.20059 3.20059,-3.20059 z m 0,27.10497 v 0 c 0.70012,0 1.20021,0.60011 1.20021,1.30024 0,0.70012 -0.50009,1.30023 -1.20021,1.30023 -0.70013,0 -1.30024,-0.60011 -1.30024,-1.30023 0,-0.70013 0.60011,-1.30024 1.30024,-1.30024 z M 158.9291,432.77925 v 0 c 1.80033,0 3.20059,1.40025 3.20059,3.20058 0,1.70031 -1.40026,3.10057 -3.20059,3.10057 -1.70031,0 -3.10057,-1.40026 -3.10057,-3.10057 0,-1.80033 1.40026,-3.20058 3.10057,-3.20058 z m 0,25.20461 v 0 c 1.80033,0 3.20059,1.50028 3.20059,3.20059 0,1.80033 -1.40026,3.20058 -3.20059,3.20058 -1.70031,0 -3.10057,-1.40025 -3.10057,-3.20058 0,-1.70031 1.40026,-3.20059 3.10057,-3.20059 z m 0,25.30463 v 0 c 1.80033,0 3.20059,1.40026 3.20059,3.20059 0,1.70031 -1.40026,3.10057 -3.20059,3.10057 -1.70031,0 -3.10057,-1.40026 -3.10057,-3.10057 0,-1.80033 1.40026,-3.20059 3.10057,-3.20059 z m 0,27.10497 v 0 c 0.70013,0 1.30024,0.60011 1.30024,1.30024 0,0.70012 -0.60011,1.30023 -1.30024,1.30023 -0.70013,0 -1.20022,-0.60011 -1.20022,-1.30023 0,-0.70013 0.50009,-1.30024 1.20022,-1.30024 z m -25.20461,-77.61421 v 0 c 1.70031,0 3.20058,1.40025 3.20058,3.20058 0,1.70031 -1.50027,3.10057 -3.20058,3.10057 -1.80033,0 -3.20059,-1.40026 -3.20059,-3.10057 0,-1.80033 1.40026,-3.20058 3.20059,-3.20058 z m 0,25.20461 v 0 c 1.70031,0 3.20058,1.50028 3.20058,3.20059 0,1.80033 -1.50027,3.20058 -3.20058,3.20058 -1.80033,0 -3.20059,-1.40025 -3.20059,-3.20058 0,-1.70031 1.40026,-3.20059 3.20059,-3.20059 z m 0,25.30463 v 0 c 1.70031,0 3.20058,1.40026 3.20058,3.20059 0,1.70031 -1.50027,3.10057 -3.20058,3.10057 -1.80033,0 -3.20059,-1.40026 -3.20059,-3.10057 0,-1.80033 1.40026,-3.20059 3.20059,-3.20059 z m 0,27.10497 v 0 c 0.70012,0 1.30023,0.60011 1.30023,1.30024 0,0.70012 -0.60011,1.30023 -1.30023,1.30023 -0.70013,0 -1.30024,-0.60011 -1.30024,-1.30023 0,-0.70013 0.60011,-1.30024 1.30024,-1.30024 z m -25.20462,-75.71387 v 0 c 0.70013,0 1.20022,0.60011 1.20022,1.30024 0,0.70013 -0.50009,1.20022 -1.20022,1.20022 -0.70013,0 -1.30024,-0.50009 -1.30024,-1.20022 0,-0.70013 0.60011,-1.30024 1.30024,-1.30024 z m 0,25.20462 v 0 c 0.70013,0 1.20022,0.60011 1.20022,1.30024 0,0.70013 -0.50009,1.30024 -1.20022,1.30024 -0.70013,0 -1.30024,-0.60011 -1.30024,-1.30024 0,-0.70013 0.60011,-1.30024 1.30024,-1.30024 z m 0,25.30463 v 0 c 0.70013,0 1.20022,0.60011 1.20022,1.30024 0,0.70013 -0.50009,1.20022 -1.20022,1.20022 -0.70013,0 -1.30024,-0.50009 -1.30024,-1.20022 0,-0.70013 0.60011,-1.30024 1.30024,-1.30024 z m 0,19.00348 v 0 c 4.10075,0 7.50137,3.30061 7.50137,7.50138 0,4.20077 -3.40062,7.60139 -7.50137,7.60139 -4.20077,0 -7.60139,-3.40062 -7.60139,-7.60139 0,-4.20077 3.40062,-7.50138 7.60139,-7.50138 z m 176.63234,-71.41307 v 0 c 1.80033,0 3.20059,1.40025 3.20059,3.20058 0,1.70031 -1.40026,3.10057 -3.20059,3.10057 -1.70031,0 -3.10056,-1.40026 -3.10056,-3.10057 0,-1.80033 1.40025,-3.20058 3.10056,-3.20058 z m 0,25.20461 v 0 c 1.80033,0 3.20059,1.50028 3.20059,3.20059 0,1.80033 -1.40026,3.20058 -3.20059,3.20058 -1.70031,0 -3.10056,-1.40025 -3.10056,-3.20058 0,-1.70031 1.40025,-3.20059 3.10056,-3.20059 z m 0,25.30463 v 0 c 1.80033,0 3.20059,1.40026 3.20059,3.20059 0,1.70031 -1.40026,3.10057 -3.20059,3.10057 -1.70031,0 -3.10056,-1.40026 -3.10056,-3.10057 0,-1.80033 1.40025,-3.20059 3.10056,-3.20059 z m 0,27.10497 v 0 c 0.70013,0 1.30024,0.60011 1.30024,1.30024 0,0.70012 -0.60011,1.30023 -1.30024,1.30023 -0.70012,0 -1.20022,-0.60011 -1.20022,-1.30023 0,-0.70013 0.5001,-1.30024 1.20022,-1.30024 z M 259.9476,432.77925 v 0 c 1.70031,0 3.20059,1.40025 3.20059,3.20058 0,1.70031 -1.50028,3.10057 -3.20059,3.10057 -1.80033,0 -3.20059,-1.40026 -3.20059,-3.10057 0,-1.80033 1.40026,-3.20058 3.20059,-3.20058 z m 0,25.20461 v 0 c 1.70031,0 3.20059,1.50028 3.20059,3.20059 0,1.80033 -1.50028,3.20058 -3.20059,3.20058 -1.80033,0 -3.20059,-1.40025 -3.20059,-3.20058 0,-1.70031 1.40026,-3.20059 3.20059,-3.20059 z m 0,25.30463 v 0 c 1.70031,0 3.20059,1.40026 3.20059,3.20059 0,1.70031 -1.50028,3.10057 -3.20059,3.10057 -1.80033,0 -3.20059,-1.40026 -3.20059,-3.10057 0,-1.80033 1.40026,-3.20059 3.20059,-3.20059 z m 0,27.10497 v 0 c 0.70013,0 1.30024,0.60011 1.30024,1.30024 0,0.70012 -0.60011,1.30023 -1.30024,1.30023 -0.70013,0 -1.30024,-0.60011 -1.30024,-1.30023 0,-0.70013 0.60011,-1.30024 1.30024,-1.30024 z m -25.20462,-77.61421 v 0 c 1.70032,0 3.10057,1.40025 3.10057,3.20058 0,1.70031 -1.40025,3.10057 -3.10057,3.10057 -1.80033,0 -3.20058,-1.40026 -3.20058,-3.10057 0,-1.80033 1.40025,-3.20058 3.20058,-3.20058 z m 0,25.20461 v 0 c 1.70032,0 3.10057,1.50028 3.10057,3.20059 0,1.80033 -1.40025,3.20058 -3.10057,3.20058 -1.80033,0 -3.20058,-1.40025 -3.20058,-3.20058 0,-1.70031 1.40025,-3.20059 3.20058,-3.20059 z m 0,25.30463 v 0 c 1.70032,0 3.10057,1.40026 3.10057,3.20059 0,1.70031 -1.40025,3.10057 -3.10057,3.10057 -1.80033,0 -3.20058,-1.40026 -3.20058,-3.10057 0,-1.80033 1.40025,-3.20059 3.20058,-3.20059 z m 0,27.10497 v 0 c 0.70013,0 1.20022,0.60011 1.20022,1.30024 0,0.70012 -0.50009,1.30023 -1.20022,1.30023 -0.70012,0 -1.30023,-0.60011 -1.30023,-1.30023 0,-0.70013 0.60011,-1.30024 1.30023,-1.30024 z m -25.30463,-75.71387 v 0 c 0.70013,0 1.30024,0.60011 1.30024,1.30024 0,0.70013 -0.60011,1.20022 -1.30024,1.20022 -0.70013,0 -1.30024,-0.50009 -1.30024,-1.20022 0,-0.70013 0.60011,-1.30024 1.30024,-1.30024 z m 0,25.20462 v 0 c 0.70013,0 1.30024,0.60011 1.30024,1.30024 0,0.70013 -0.60011,1.30024 -1.30024,1.30024 -0.70013,0 -1.30024,-0.60011 -1.30024,-1.30024 0,-0.70013 0.60011,-1.30024 1.30024,-1.30024 z m 0,25.30463 v 0 c 0.70013,0 1.30024,0.60011 1.30024,1.30024 0,0.70013 -0.60011,1.20022 -1.30024,1.20022 -0.70013,0 -1.30024,-0.50009 -1.30024,-1.20022 0,-0.70013 0.60011,-1.30024 1.30024,-1.30024 z m 0,19.00348 v 0 c 4.20077,0 7.60139,3.30061 7.60139,7.50138 0,4.20077 -3.40062,7.60139 -7.60139,7.60139 -4.20077,0 -7.50137,-3.40062 -7.50137,-7.60139 0,-4.20077 3.3006,-7.50138 7.50137,-7.50138 z m 176.73236,-71.41307 v 0 c 1.70031,0 3.20059,1.40025 3.20059,3.20058 0,1.70031 -1.50028,3.10057 -3.20059,3.10057 -1.80033,0 -3.20058,-1.40026 -3.20058,-3.10057 0,-1.80033 1.40025,-3.20058 3.20058,-3.20058 z m 0,25.20461 v 0 c 1.70031,0 3.20059,1.50028 3.20059,3.20059 0,1.80033 -1.50028,3.20058 -3.20059,3.20058 -1.80033,0 -3.20058,-1.40025 -3.20058,-3.20058 0,-1.70031 1.40025,-3.20059 3.20058,-3.20059 z m 0,25.30463 v 0 c 1.70031,0 3.20059,1.40026 3.20059,3.20059 0,1.70031 -1.50028,3.10057 -3.20059,3.10057 -1.80033,0 -3.20058,-1.40026 -3.20058,-3.10057 0,-1.80033 1.40025,-3.20059 3.20058,-3.20059 z m 0,27.10497 v 0 c 0.70013,0 1.30024,0.60011 1.30024,1.30024 0,0.70012 -0.60011,1.30023 -1.30024,1.30023 -0.70013,0 -1.30024,-0.60011 -1.30024,-1.30023 0,-0.70013 0.60011,-1.30024 1.30024,-1.30024 z M 360.9661,432.77925 v 0 c 1.70031,0 3.10056,1.40025 3.10056,3.20058 0,1.70031 -1.40025,3.10057 -3.10056,3.10057 -1.80033,0 -3.20059,-1.40026 -3.20059,-3.10057 0,-1.80033 1.40026,-3.20058 3.20059,-3.20058 z m 0,25.20461 v 0 c 1.70031,0 3.10056,1.50028 3.10056,3.20059 0,1.80033 -1.40025,3.20058 -3.10056,3.20058 -1.80033,0 -3.20059,-1.40025 -3.20059,-3.20058 0,-1.70031 1.40026,-3.20059 3.20059,-3.20059 z m 0,25.30463 v 0 c 1.70031,0 3.10056,1.40026 3.10056,3.20059 0,1.70031 -1.40025,3.10057 -3.10056,3.10057 -1.80033,0 -3.20059,-1.40026 -3.20059,-3.10057 0,-1.80033 1.40026,-3.20059 3.20059,-3.20059 z m 0,27.10497 v 0 c 0.70012,0 1.20022,0.60011 1.20022,1.30024 0,0.70012 -0.5001,1.30023 -1.20022,1.30023 -0.70013,0 -1.30024,-0.60011 -1.30024,-1.30023 0,-0.70013 0.60011,-1.30024 1.30024,-1.30024 z m -25.30464,-77.61421 v 0 c 1.80033,0 3.20059,1.40025 3.20059,3.20058 0,1.70031 -1.40026,3.10057 -3.20059,3.10057 -1.70031,0 -3.20058,-1.40026 -3.20058,-3.10057 0,-1.80033 1.50027,-3.20058 3.20058,-3.20058 z m 0,25.20461 v 0 c 1.80033,0 3.20059,1.50028 3.20059,3.20059 0,1.80033 -1.40026,3.20058 -3.20059,3.20058 -1.70031,0 -3.20058,-1.40025 -3.20058,-3.20058 0,-1.70031 1.50027,-3.20059 3.20058,-3.20059 z m 0,25.30463 v 0 c 1.80033,0 3.20059,1.40026 3.20059,3.20059 0,1.70031 -1.40026,3.10057 -3.20059,3.10057 -1.70031,0 -3.20058,-1.40026 -3.20058,-3.10057 0,-1.80033 1.50027,-3.20059 3.20058,-3.20059 z m 0,27.10497 v 0 c 0.70013,0 1.30024,0.60011 1.30024,1.30024 0,0.70012 -0.60011,1.30023 -1.30024,1.30023 -0.70013,0 -1.30024,-0.60011 -1.30024,-1.30023 0,-0.70013 0.60011,-1.30024 1.30024,-1.30024 z m -25.20461,-75.71387 v 0 c 0.70013,0 1.20022,0.60011 1.20022,1.30024 0,0.70013 -0.50009,1.20022 -1.20022,1.20022 -0.70013,0 -1.30024,-0.50009 -1.30024,-1.20022 0,-0.70013 0.60011,-1.30024 1.30024,-1.30024 z m 0,25.20462 v 0 c 0.70013,0 1.20022,0.60011 1.20022,1.30024 0,0.70013 -0.50009,1.30024 -1.20022,1.30024 -0.70013,0 -1.30024,-0.60011 -1.30024,-1.30024 0,-0.70013 0.60011,-1.30024 1.30024,-1.30024 z m 0,25.30463 v 0 c 0.70013,0 1.20022,0.60011 1.20022,1.30024 0,0.70013 -0.50009,1.20022 -1.20022,1.20022 -0.70013,0 -1.30024,-0.50009 -1.30024,-1.20022 0,-0.70013 0.60011,-1.30024 1.30024,-1.30024 z m 0,19.00348 v 0 c 4.10075,0 7.50137,3.30061 7.50137,7.50138 0,4.20077 -3.40062,7.60139 -7.50137,7.60139 -4.20077,0 -7.60139,-3.40062 -7.60139,-7.60139 0,-4.20077 3.40062,-7.50138 7.60139,-7.50138 z m 176.73236,-71.41307 v 0 c 1.70031,0 3.10057,1.40025 3.10057,3.20058 0,1.70031 -1.40026,3.10057 -3.10057,3.10057 -1.80033,0 -3.20059,-1.40026 -3.20059,-3.10057 0,-1.80033 1.40026,-3.20058 3.20059,-3.20058 z m 0,25.20461 v 0 c 1.70031,0 3.10057,1.50028 3.10057,3.20059 0,1.80033 -1.40026,3.20058 -3.10057,3.20058 -1.80033,0 -3.20059,-1.40025 -3.20059,-3.20058 0,-1.70031 1.40026,-3.20059 3.20059,-3.20059 z m 0,25.30463 v 0 c 1.70031,0 3.10057,1.40026 3.10057,3.20059 0,1.70031 -1.40026,3.10057 -3.10057,3.10057 -1.80033,0 -3.20059,-1.40026 -3.20059,-3.10057 0,-1.80033 1.40026,-3.20059 3.20059,-3.20059 z m 0,27.10497 v 0 c 0.70013,0 1.20022,0.60011 1.20022,1.30024 0,0.70012 -0.50009,1.30023 -1.20022,1.30023 -0.70013,0 -1.30024,-0.60011 -1.30024,-1.30023 0,-0.70013 0.60011,-1.30024 1.30024,-1.30024 z m -25.30463,-77.61421 v 0 c 1.80033,0 3.20058,1.40025 3.20058,3.20058 0,1.70031 -1.40025,3.10057 -3.20058,3.10057 -1.70032,0 -3.20059,-1.40026 -3.20059,-3.10057 0,-1.80033 1.50027,-3.20058 3.20059,-3.20058 z m 0,25.20461 v 0 c 1.80033,0 3.20058,1.50028 3.20058,3.20059 0,1.80033 -1.40025,3.20058 -3.20058,3.20058 -1.70032,0 -3.20059,-1.40025 -3.20059,-3.20058 0,-1.70031 1.50027,-3.20059 3.20059,-3.20059 z m 0,25.30463 v 0 c 1.80033,0 3.20058,1.40026 3.20058,3.20059 0,1.70031 -1.40025,3.10057 -3.20058,3.10057 -1.70032,0 -3.20059,-1.40026 -3.20059,-3.10057 0,-1.80033 1.50027,-3.20059 3.20059,-3.20059 z m 0,27.10497 v 0 c 0.70012,0 1.30023,0.60011 1.30023,1.30024 0,0.70012 -0.60011,1.30023 -1.30023,1.30023 -0.70013,0 -1.30024,-0.60011 -1.30024,-1.30023 0,-0.70013 0.60011,-1.30024 1.30024,-1.30024 z m -25.20462,-77.61421 v 0 c 1.70031,0 3.10057,1.40025 3.10057,3.20058 0,1.70031 -1.40026,3.10057 -3.10057,3.10057 -1.80033,0 -3.20059,-1.40026 -3.20059,-3.10057 0,-1.80033 1.40026,-3.20058 3.20059,-3.20058 z m 0,25.20461 v 0 c 1.70031,0 3.10057,1.50028 3.10057,3.20059 0,1.80033 -1.40026,3.20058 -3.10057,3.20058 -1.80033,0 -3.20059,-1.40025 -3.20059,-3.20058 0,-1.70031 1.40026,-3.20059 3.20059,-3.20059 z m 0,25.30463 v 0 c 1.70031,0 3.10057,1.40026 3.10057,3.20059 0,1.70031 -1.40026,3.10057 -3.10057,3.10057 -1.80033,0 -3.20059,-1.40026 -3.20059,-3.10057 0,-1.80033 1.40026,-3.20059 3.20059,-3.20059 z m 0,27.10497 v 0 c 0.70013,0 1.20022,0.60011 1.20022,1.30024 0,0.70012 -0.50009,1.30023 -1.20022,1.30023 -0.70013,0 -1.30024,-0.60011 -1.30024,-1.30023 0,-0.70013 0.60011,-1.30024 1.30024,-1.30024 z m 75.71386,-75.71387 v 0 c 0.70013,0 1.30024,0.60011 1.30024,1.30024 0,0.70013 -0.60011,1.20022 -1.30024,1.20022 -0.70012,0 -1.30023,-0.50009 -1.30023,-1.20022 0,-0.70013 0.60011,-1.30024 1.30023,-1.30024 z m 0,25.20462 v 0 c 0.70013,0 1.30024,0.60011 1.30024,1.30024 0,0.70013 -0.60011,1.30024 -1.30024,1.30024 -0.70012,0 -1.30023,-0.60011 -1.30023,-1.30024 0,-0.70013 0.60011,-1.30024 1.30023,-1.30024 z m 0,25.30463 v 0 c 0.70013,0 1.30024,0.60011 1.30024,1.30024 0,0.70013 -0.60011,1.20022 -1.30024,1.20022 -0.70012,0 -1.30023,-0.50009 -1.30023,-1.20022 0,-0.70013 0.60011,-1.30024 1.30023,-1.30024 z m 0,19.00348 v 0 c 4.20077,0 7.50138,3.30061 7.50138,7.50138 0,4.20077 -3.30061,7.60139 -7.50138,7.60139 -4.20076,0 -7.60139,-3.40062 -7.60139,-7.60139 0,-4.20077 3.40063,-7.50138 7.60139,-7.50138 z M 411.37533,434.67959 v 0 c 0.70013,0 1.30024,0.60011 1.30024,1.30024 0,0.70013 -0.60011,1.20022 -1.30024,1.20022 -0.70013,0 -1.20022,-0.50009 -1.20022,-1.20022 0,-0.70013 0.50009,-1.30024 1.20022,-1.30024 z m 0,25.20462 v 0 c 0.70013,0 1.30024,0.60011 1.30024,1.30024 0,0.70013 -0.60011,1.30024 -1.30024,1.30024 -0.70013,0 -1.20022,-0.60011 -1.20022,-1.30024 0,-0.70013 0.50009,-1.30024 1.20022,-1.30024 z m 0,25.30463 v 0 c 0.70013,0 1.30024,0.60011 1.30024,1.30024 0,0.70013 -0.60011,1.20022 -1.30024,1.20022 -0.70013,0 -1.20022,-0.50009 -1.20022,-1.20022 0,-0.70013 0.50009,-1.30024 1.20022,-1.30024 z m 0,19.00348 v 0 c 4.20077,0 7.60139,3.30061 7.60139,7.50138 0,4.20077 -3.40062,7.60139 -7.60139,7.60139 -4.10075,0 -7.50138,-3.40062 -7.50138,-7.60139 0,-4.20077 3.40063,-7.50138 7.50138,-7.50138 z M 83.215238,331.76075 v 0 c 1.800329,0 3.200586,1.50027 3.200586,3.20058 0,1.80033 -1.400257,3.20059 -3.200586,3.20059 -1.700312,0 -3.200587,-1.40026 -3.200587,-3.20059 0,-1.70031 1.500275,-3.20058 3.200587,-3.20058 z m 0,25.30463 v 0 c 1.800329,0 3.200586,1.40026 3.200586,3.20059 0,1.70031 -1.400257,3.10057 -3.200586,3.10057 -1.700312,0 -3.200587,-1.40026 -3.200587,-3.10057 0,-1.80033 1.500275,-3.20059 3.200587,-3.20059 z m 0,25.20462 v 0 c 1.800329,0 3.200586,1.40025 3.200586,3.20058 0,1.70031 -1.400257,3.20059 -3.200586,3.20059 -1.700312,0 -3.200587,-1.50028 -3.200587,-3.20059 0,-1.80033 1.500275,-3.20058 3.200587,-3.20058 z m 0,27.20498 v 0 c 0.700128,0 1.300238,0.50009 1.300238,1.20022 0,0.70013 -0.60011,1.30024 -1.300238,1.30024 -0.700129,0 -1.300239,-0.60011 -1.300239,-1.30024 0,-0.70013 0.60011,-1.20022 1.300239,-1.20022 z M 58.010622,331.76075 v 0 c 1.700312,0 3.100568,1.50027 3.100568,3.20058 0,1.80033 -1.400256,3.20059 -3.100568,3.20059 -1.800329,0 -3.200586,-1.40026 -3.200586,-3.20059 0,-1.70031 1.400257,-3.20058 3.200586,-3.20058 z m 0,25.30463 v 0 c 1.700312,0 3.100568,1.40026 3.100568,3.20059 0,1.70031 -1.400256,3.10057 -3.100568,3.10057 -1.800329,0 -3.200586,-1.40026 -3.200586,-3.10057 0,-1.80033 1.400257,-3.20059 3.200586,-3.20059 z m 0,25.20462 v 0 c 1.700312,0 3.100568,1.40025 3.100568,3.20058 0,1.70031 -1.400256,3.20059 -3.100568,3.20059 -1.800329,0 -3.200586,-1.50028 -3.200586,-3.20059 0,-1.80033 1.400257,-3.20058 3.200586,-3.20058 z m 0,27.20498 v 0 c 0.700129,0 1.20022,0.50009 1.20022,1.20022 0,0.70013 -0.500091,1.30024 -1.20022,1.30024 -0.700128,0 -1.300238,-0.60011 -1.300238,-1.30024 0,-0.70013 0.60011,-1.20022 1.300238,-1.20022 z M 32.705989,331.76075 v 0 c 1.800329,0 3.200586,1.50027 3.200586,3.20058 0,1.80033 -1.400257,3.20059 -3.200586,3.20059 -1.700312,0 -3.100568,-1.40026 -3.100568,-3.20059 0,-1.70031 1.400256,-3.20058 3.100568,-3.20058 z m 0,25.30463 v 0 c 1.800329,0 3.200586,1.40026 3.200586,3.20059 0,1.70031 -1.400257,3.10057 -3.200586,3.10057 -1.700312,0 -3.100568,-1.40026 -3.100568,-3.10057 0,-1.80033 1.400256,-3.20059 3.100568,-3.20059 z m 0,25.20462 v 0 c 1.800329,0 3.200586,1.40025 3.200586,3.20058 0,1.70031 -1.400257,3.20059 -3.200586,3.20059 -1.700312,0 -3.100568,-1.50028 -3.100568,-3.20059 0,-1.80033 1.400256,-3.20058 3.100568,-3.20058 z m 0,27.20498 v 0 c 0.700128,0 1.300238,0.50009 1.300238,1.20022 0,0.70013 -0.60011,1.30024 -1.300238,1.30024 -0.700128,0 -1.20022,-0.60011 -1.20022,-1.30024 0,-0.70013 0.500092,-1.20022 1.20022,-1.20022 z M 7.5013736,333.6611 v 0 c 0.7001282,0 1.3002381,0.60011 1.3002381,1.30023 0,0.70013 -0.6001099,1.30024 -1.3002381,1.30024 -0.7001282,0 -1.3002381,-0.60011 -1.3002381,-1.30024 0,-0.70012 0.6001099,-1.30023 1.3002381,-1.30023 z m 0,25.30463 v 0 c 0.7001282,0 1.3002381,0.60011 1.3002381,1.30024 0,0.70013 -0.6001099,1.20022 -1.3002381,1.20022 -0.7001282,0 -1.3002381,-0.50009 -1.3002381,-1.20022 0,-0.70013 0.6001099,-1.30024 1.3002381,-1.30024 z m 0,25.20462 v 0 c 0.7001282,0 1.3002381,0.60011 1.3002381,1.30023 0,0.70013 -0.6001099,1.30024 -1.3002381,1.30024 -0.7001282,0 -1.3002381,-0.60011 -1.3002381,-1.30024 0,-0.70012 0.6001099,-1.30023 1.3002381,-1.30023 z m 0,19.00348 v 0 c 4.2007694,0 7.5013734,3.40062 7.5013734,7.50137 0,4.20077 -3.300604,7.60139 -7.5013734,7.60139 C 3.3006044,418.27659 0,414.87597 0,410.6752 c 0,-4.10075 3.3006044,-7.50137 7.5013736,-7.50137 z M 184.23374,331.76075 v 0 c 1.70031,0 3.10056,1.50027 3.10056,3.20058 0,1.80033 -1.40025,3.20059 -3.10056,3.20059 -1.80033,0 -3.20059,-1.40026 -3.20059,-3.20059 0,-1.70031 1.40026,-3.20058 3.20059,-3.20058 z m 0,25.30463 v 0 c 1.70031,0 3.10056,1.40026 3.10056,3.20059 0,1.70031 -1.40025,3.10057 -3.10056,3.10057 -1.80033,0 -3.20059,-1.40026 -3.20059,-3.10057 0,-1.80033 1.40026,-3.20059 3.20059,-3.20059 z m 0,25.20462 v 0 c 1.70031,0 3.10056,1.40025 3.10056,3.20058 0,1.70031 -1.40025,3.20059 -3.10056,3.20059 -1.80033,0 -3.20059,-1.50028 -3.20059,-3.20059 0,-1.80033 1.40026,-3.20058 3.20059,-3.20058 z m 0,27.20498 v 0 c 0.70012,0 1.20021,0.50009 1.20021,1.20022 0,0.70013 -0.50009,1.30024 -1.20021,1.30024 -0.70013,0 -1.30024,-0.60011 -1.30024,-1.30024 0,-0.70013 0.60011,-1.20022 1.30024,-1.20022 z M 158.9291,331.76075 v 0 c 1.80033,0 3.20059,1.50027 3.20059,3.20058 0,1.80033 -1.40026,3.20059 -3.20059,3.20059 -1.70031,0 -3.10057,-1.40026 -3.10057,-3.20059 0,-1.70031 1.40026,-3.20058 3.10057,-3.20058 z m 0,25.30463 v 0 c 1.80033,0 3.20059,1.40026 3.20059,3.20059 0,1.70031 -1.40026,3.10057 -3.20059,3.10057 -1.70031,0 -3.10057,-1.40026 -3.10057,-3.10057 0,-1.80033 1.40026,-3.20059 3.10057,-3.20059 z m 0,25.20462 v 0 c 1.80033,0 3.20059,1.40025 3.20059,3.20058 0,1.70031 -1.40026,3.20059 -3.20059,3.20059 -1.70031,0 -3.10057,-1.50028 -3.10057,-3.20059 0,-1.80033 1.40026,-3.20058 3.10057,-3.20058 z m 0,27.20498 v 0 c 0.70013,0 1.30024,0.50009 1.30024,1.20022 0,0.70013 -0.60011,1.30024 -1.30024,1.30024 -0.70013,0 -1.20022,-0.60011 -1.20022,-1.30024 0,-0.70013 0.50009,-1.20022 1.20022,-1.20022 z m -25.20461,-77.71423 v 0 c 1.70031,0 3.20058,1.50027 3.20058,3.20058 0,1.80033 -1.50027,3.20059 -3.20058,3.20059 -1.80033,0 -3.20059,-1.40026 -3.20059,-3.20059 0,-1.70031 1.40026,-3.20058 3.20059,-3.20058 z m 0,25.30463 v 0 c 1.70031,0 3.20058,1.40026 3.20058,3.20059 0,1.70031 -1.50027,3.10057 -3.20058,3.10057 -1.80033,0 -3.20059,-1.40026 -3.20059,-3.10057 0,-1.80033 1.40026,-3.20059 3.20059,-3.20059 z m 0,25.20462 v 0 c 1.70031,0 3.20058,1.40025 3.20058,3.20058 0,1.70031 -1.50027,3.20059 -3.20058,3.20059 -1.80033,0 -3.20059,-1.50028 -3.20059,-3.20059 0,-1.80033 1.40026,-3.20058 3.20059,-3.20058 z m 0,27.20498 v 0 c 0.70012,0 1.30023,0.50009 1.30023,1.20022 0,0.70013 -0.60011,1.30024 -1.30023,1.30024 -0.70013,0 -1.30024,-0.60011 -1.30024,-1.30024 0,-0.70013 0.60011,-1.20022 1.30024,-1.20022 z M 108.51987,333.6611 v 0 c 0.70013,0 1.20022,0.60011 1.20022,1.30023 0,0.70013 -0.50009,1.30024 -1.20022,1.30024 -0.70013,0 -1.30024,-0.60011 -1.30024,-1.30024 0,-0.70012 0.60011,-1.30023 1.30024,-1.30023 z m 0,25.30463 v 0 c 0.70013,0 1.20022,0.60011 1.20022,1.30024 0,0.70013 -0.50009,1.20022 -1.20022,1.20022 -0.70013,0 -1.30024,-0.50009 -1.30024,-1.20022 0,-0.70013 0.60011,-1.30024 1.30024,-1.30024 z m 0,25.20462 v 0 c 0.70013,0 1.20022,0.60011 1.20022,1.30023 0,0.70013 -0.50009,1.30024 -1.20022,1.30024 -0.70013,0 -1.30024,-0.60011 -1.30024,-1.30024 0,-0.70012 0.60011,-1.30023 1.30024,-1.30023 z m 0,19.00348 v 0 c 4.10075,0 7.50137,3.40062 7.50137,7.50137 0,4.20077 -3.40062,7.60139 -7.50137,7.60139 -4.20077,0 -7.60139,-3.40062 -7.60139,-7.60139 0,-4.10075 3.40062,-7.50137 7.60139,-7.50137 z m 176.63234,-71.41308 v 0 c 1.80033,0 3.20059,1.50027 3.20059,3.20058 0,1.80033 -1.40026,3.20059 -3.20059,3.20059 -1.70031,0 -3.10056,-1.40026 -3.10056,-3.20059 0,-1.70031 1.40025,-3.20058 3.10056,-3.20058 z m 0,25.30463 v 0 c 1.80033,0 3.20059,1.40026 3.20059,3.20059 0,1.70031 -1.40026,3.10057 -3.20059,3.10057 -1.70031,0 -3.10056,-1.40026 -3.10056,-3.10057 0,-1.80033 1.40025,-3.20059 3.10056,-3.20059 z m 0,25.20462 v 0 c 1.80033,0 3.20059,1.40025 3.20059,3.20058 0,1.70031 -1.40026,3.20059 -3.20059,3.20059 -1.70031,0 -3.10056,-1.50028 -3.10056,-3.20059 0,-1.80033 1.40025,-3.20058 3.10056,-3.20058 z m 0,27.20498 v 0 c 0.70013,0 1.30024,0.50009 1.30024,1.20022 0,0.70013 -0.60011,1.30024 -1.30024,1.30024 -0.70012,0 -1.20022,-0.60011 -1.20022,-1.30024 0,-0.70013 0.5001,-1.20022 1.20022,-1.20022 z M 259.9476,331.76075 v 0 c 1.70031,0 3.20059,1.50027 3.20059,3.20058 0,1.80033 -1.50028,3.20059 -3.20059,3.20059 -1.80033,0 -3.20059,-1.40026 -3.20059,-3.20059 0,-1.70031 1.40026,-3.20058 3.20059,-3.20058 z m 0,25.30463 v 0 c 1.70031,0 3.20059,1.40026 3.20059,3.20059 0,1.70031 -1.50028,3.10057 -3.20059,3.10057 -1.80033,0 -3.20059,-1.40026 -3.20059,-3.10057 0,-1.80033 1.40026,-3.20059 3.20059,-3.20059 z m 0,25.20462 v 0 c 1.70031,0 3.20059,1.40025 3.20059,3.20058 0,1.70031 -1.50028,3.20059 -3.20059,3.20059 -1.80033,0 -3.20059,-1.50028 -3.20059,-3.20059 0,-1.80033 1.40026,-3.20058 3.20059,-3.20058 z m 0,27.20498 v 0 c 0.70013,0 1.30024,0.50009 1.30024,1.20022 0,0.70013 -0.60011,1.30024 -1.30024,1.30024 -0.70013,0 -1.30024,-0.60011 -1.30024,-1.30024 0,-0.70013 0.60011,-1.20022 1.30024,-1.20022 z m -25.20462,-77.71423 v 0 c 1.70032,0 3.10057,1.50027 3.10057,3.20058 0,1.80033 -1.40025,3.20059 -3.10057,3.20059 -1.80033,0 -3.20058,-1.40026 -3.20058,-3.20059 0,-1.70031 1.40025,-3.20058 3.20058,-3.20058 z m 0,25.30463 v 0 c 1.70032,0 3.10057,1.40026 3.10057,3.20059 0,1.70031 -1.40025,3.10057 -3.10057,3.10057 -1.80033,0 -3.20058,-1.40026 -3.20058,-3.10057 0,-1.80033 1.40025,-3.20059 3.20058,-3.20059 z m 0,25.20462 v 0 c 1.70032,0 3.10057,1.40025 3.10057,3.20058 0,1.70031 -1.40025,3.20059 -3.10057,3.20059 -1.80033,0 -3.20058,-1.50028 -3.20058,-3.20059 0,-1.80033 1.40025,-3.20058 3.20058,-3.20058 z m 0,27.20498 v 0 c 0.70013,0 1.20022,0.50009 1.20022,1.20022 0,0.70013 -0.50009,1.30024 -1.20022,1.30024 -0.70012,0 -1.30023,-0.60011 -1.30023,-1.30024 0,-0.70013 0.60011,-1.20022 1.30023,-1.20022 z M 209.43835,333.6611 v 0 c 0.70013,0 1.30024,0.60011 1.30024,1.30023 0,0.70013 -0.60011,1.30024 -1.30024,1.30024 -0.70013,0 -1.30024,-0.60011 -1.30024,-1.30024 0,-0.70012 0.60011,-1.30023 1.30024,-1.30023 z m 0,25.30463 v 0 c 0.70013,0 1.30024,0.60011 1.30024,1.30024 0,0.70013 -0.60011,1.20022 -1.30024,1.20022 -0.70013,0 -1.30024,-0.50009 -1.30024,-1.20022 0,-0.70013 0.60011,-1.30024 1.30024,-1.30024 z m 0,25.20462 v 0 c 0.70013,0 1.30024,0.60011 1.30024,1.30023 0,0.70013 -0.60011,1.30024 -1.30024,1.30024 -0.70013,0 -1.30024,-0.60011 -1.30024,-1.30024 0,-0.70012 0.60011,-1.30023 1.30024,-1.30023 z m 0,19.00348 v 0 c 4.20077,0 7.60139,3.40062 7.60139,7.50137 0,4.20077 -3.40062,7.60139 -7.60139,7.60139 -4.20077,0 -7.50137,-3.40062 -7.50137,-7.60139 0,-4.10075 3.3006,-7.50137 7.50137,-7.50137 z m 176.73236,-71.41308 v 0 c 1.70031,0 3.20059,1.50027 3.20059,3.20058 0,1.80033 -1.50028,3.20059 -3.20059,3.20059 -1.80033,0 -3.20058,-1.40026 -3.20058,-3.20059 0,-1.70031 1.40025,-3.20058 3.20058,-3.20058 z m 0,25.30463 v 0 c 1.70031,0 3.20059,1.40026 3.20059,3.20059 0,1.70031 -1.50028,3.10057 -3.20059,3.10057 -1.80033,0 -3.20058,-1.40026 -3.20058,-3.10057 0,-1.80033 1.40025,-3.20059 3.20058,-3.20059 z m 0,25.20462 v 0 c 1.70031,0 3.20059,1.40025 3.20059,3.20058 0,1.70031 -1.50028,3.20059 -3.20059,3.20059 -1.80033,0 -3.20058,-1.50028 -3.20058,-3.20059 0,-1.80033 1.40025,-3.20058 3.20058,-3.20058 z m 0,27.20498 v 0 c 0.70013,0 1.30024,0.50009 1.30024,1.20022 0,0.70013 -0.60011,1.30024 -1.30024,1.30024 -0.70013,0 -1.30024,-0.60011 -1.30024,-1.30024 0,-0.70013 0.60011,-1.20022 1.30024,-1.20022 z M 360.9661,331.76075 v 0 c 1.70031,0 3.10056,1.50027 3.10056,3.20058 0,1.80033 -1.40025,3.20059 -3.10056,3.20059 -1.80033,0 -3.20059,-1.40026 -3.20059,-3.20059 0,-1.70031 1.40026,-3.20058 3.20059,-3.20058 z m 0,25.30463 v 0 c 1.70031,0 3.10056,1.40026 3.10056,3.20059 0,1.70031 -1.40025,3.10057 -3.10056,3.10057 -1.80033,0 -3.20059,-1.40026 -3.20059,-3.10057 0,-1.80033 1.40026,-3.20059 3.20059,-3.20059 z m 0,25.20462 v 0 c 1.70031,0 3.10056,1.40025 3.10056,3.20058 0,1.70031 -1.40025,3.20059 -3.10056,3.20059 -1.80033,0 -3.20059,-1.50028 -3.20059,-3.20059 0,-1.80033 1.40026,-3.20058 3.20059,-3.20058 z m 0,27.20498 v 0 c 0.70012,0 1.20022,0.50009 1.20022,1.20022 0,0.70013 -0.5001,1.30024 -1.20022,1.30024 -0.70013,0 -1.30024,-0.60011 -1.30024,-1.30024 0,-0.70013 0.60011,-1.20022 1.30024,-1.20022 z m -25.30464,-77.71423 v 0 c 1.80033,0 3.20059,1.50027 3.20059,3.20058 0,1.80033 -1.40026,3.20059 -3.20059,3.20059 -1.70031,0 -3.20058,-1.40026 -3.20058,-3.20059 0,-1.70031 1.50027,-3.20058 3.20058,-3.20058 z m 0,25.30463 v 0 c 1.80033,0 3.20059,1.40026 3.20059,3.20059 0,1.70031 -1.40026,3.10057 -3.20059,3.10057 -1.70031,0 -3.20058,-1.40026 -3.20058,-3.10057 0,-1.80033 1.50027,-3.20059 3.20058,-3.20059 z m 0,25.20462 v 0 c 1.80033,0 3.20059,1.40025 3.20059,3.20058 0,1.70031 -1.40026,3.20059 -3.20059,3.20059 -1.70031,0 -3.20058,-1.50028 -3.20058,-3.20059 0,-1.80033 1.50027,-3.20058 3.20058,-3.20058 z m 0,27.20498 v 0 c 0.70013,0 1.30024,0.50009 1.30024,1.20022 0,0.70013 -0.60011,1.30024 -1.30024,1.30024 -0.70013,0 -1.30024,-0.60011 -1.30024,-1.30024 0,-0.70013 0.60011,-1.20022 1.30024,-1.20022 z M 310.45685,333.6611 v 0 c 0.70013,0 1.20022,0.60011 1.20022,1.30023 0,0.70013 -0.50009,1.30024 -1.20022,1.30024 -0.70013,0 -1.30024,-0.60011 -1.30024,-1.30024 0,-0.70012 0.60011,-1.30023 1.30024,-1.30023 z m 0,25.30463 v 0 c 0.70013,0 1.20022,0.60011 1.20022,1.30024 0,0.70013 -0.50009,1.20022 -1.20022,1.20022 -0.70013,0 -1.30024,-0.50009 -1.30024,-1.20022 0,-0.70013 0.60011,-1.30024 1.30024,-1.30024 z m 0,25.20462 v 0 c 0.70013,0 1.20022,0.60011 1.20022,1.30023 0,0.70013 -0.50009,1.30024 -1.20022,1.30024 -0.70013,0 -1.30024,-0.60011 -1.30024,-1.30024 0,-0.70012 0.60011,-1.30023 1.30024,-1.30023 z m 0,19.00348 v 0 c 4.10075,0 7.50137,3.40062 7.50137,7.50137 0,4.20077 -3.40062,7.60139 -7.50137,7.60139 -4.20077,0 -7.60139,-3.40062 -7.60139,-7.60139 0,-4.10075 3.40062,-7.50137 7.60139,-7.50137 z m 176.73236,-71.41308 v 0 c 1.70031,0 3.10057,1.50027 3.10057,3.20058 0,1.80033 -1.40026,3.20059 -3.10057,3.20059 -1.80033,0 -3.20059,-1.40026 -3.20059,-3.20059 0,-1.70031 1.40026,-3.20058 3.20059,-3.20058 z m 0,25.30463 v 0 c 1.70031,0 3.10057,1.40026 3.10057,3.20059 0,1.70031 -1.40026,3.10057 -3.10057,3.10057 -1.80033,0 -3.20059,-1.40026 -3.20059,-3.10057 0,-1.80033 1.40026,-3.20059 3.20059,-3.20059 z m 0,25.20462 v 0 c 1.70031,0 3.10057,1.40025 3.10057,3.20058 0,1.70031 -1.40026,3.20059 -3.10057,3.20059 -1.80033,0 -3.20059,-1.50028 -3.20059,-3.20059 0,-1.80033 1.40026,-3.20058 3.20059,-3.20058 z m 0,27.20498 v 0 c 0.70013,0 1.20022,0.50009 1.20022,1.20022 0,0.70013 -0.50009,1.30024 -1.20022,1.30024 -0.70013,0 -1.30024,-0.60011 -1.30024,-1.30024 0,-0.70013 0.60011,-1.20022 1.30024,-1.20022 z m -25.30463,-77.71423 v 0 c 1.80033,0 3.20058,1.50027 3.20058,3.20058 0,1.80033 -1.40025,3.20059 -3.20058,3.20059 -1.70032,0 -3.20059,-1.40026 -3.20059,-3.20059 0,-1.70031 1.50027,-3.20058 3.20059,-3.20058 z m 0,25.30463 v 0 c 1.80033,0 3.20058,1.40026 3.20058,3.20059 0,1.70031 -1.40025,3.10057 -3.20058,3.10057 -1.70032,0 -3.20059,-1.40026 -3.20059,-3.10057 0,-1.80033 1.50027,-3.20059 3.20059,-3.20059 z m 0,25.20462 v 0 c 1.80033,0 3.20058,1.40025 3.20058,3.20058 0,1.70031 -1.40025,3.20059 -3.20058,3.20059 -1.70032,0 -3.20059,-1.50028 -3.20059,-3.20059 0,-1.80033 1.50027,-3.20058 3.20059,-3.20058 z m 0,27.20498 v 0 c 0.70012,0 1.30023,0.50009 1.30023,1.20022 0,0.70013 -0.60011,1.30024 -1.30023,1.30024 -0.70013,0 -1.30024,-0.60011 -1.30024,-1.30024 0,-0.70013 0.60011,-1.20022 1.30024,-1.20022 z m -25.20462,-77.71423 v 0 c 1.70031,0 3.10057,1.50027 3.10057,3.20058 0,1.80033 -1.40026,3.20059 -3.10057,3.20059 -1.80033,0 -3.20059,-1.40026 -3.20059,-3.20059 0,-1.70031 1.40026,-3.20058 3.20059,-3.20058 z m 0,25.30463 v 0 c 1.70031,0 3.10057,1.40026 3.10057,3.20059 0,1.70031 -1.40026,3.10057 -3.10057,3.10057 -1.80033,0 -3.20059,-1.40026 -3.20059,-3.10057 0,-1.80033 1.40026,-3.20059 3.20059,-3.20059 z m 0,25.20462 v 0 c 1.70031,0 3.10057,1.40025 3.10057,3.20058 0,1.70031 -1.40026,3.20059 -3.10057,3.20059 -1.80033,0 -3.20059,-1.50028 -3.20059,-3.20059 0,-1.80033 1.40026,-3.20058 3.20059,-3.20058 z m 0,27.20498 v 0 c 0.70013,0 1.20022,0.50009 1.20022,1.20022 0,0.70013 -0.50009,1.30024 -1.20022,1.30024 -0.70013,0 -1.30024,-0.60011 -1.30024,-1.30024 0,-0.70013 0.60011,-1.20022 1.30024,-1.20022 z m 75.71386,-75.81388 v 0 c 0.70013,0 1.30024,0.60011 1.30024,1.30023 0,0.70013 -0.60011,1.30024 -1.30024,1.30024 -0.70012,0 -1.30023,-0.60011 -1.30023,-1.30024 0,-0.70012 0.60011,-1.30023 1.30023,-1.30023 z m 0,25.30463 v 0 c 0.70013,0 1.30024,0.60011 1.30024,1.30024 0,0.70013 -0.60011,1.20022 -1.30024,1.20022 -0.70012,0 -1.30023,-0.50009 -1.30023,-1.20022 0,-0.70013 0.60011,-1.30024 1.30023,-1.30024 z m 0,25.20462 v 0 c 0.70013,0 1.30024,0.60011 1.30024,1.30023 0,0.70013 -0.60011,1.30024 -1.30024,1.30024 -0.70012,0 -1.30023,-0.60011 -1.30023,-1.30024 0,-0.70012 0.60011,-1.30023 1.30023,-1.30023 z m 0,19.00348 v 0 c 4.20077,0 7.50138,3.40062 7.50138,7.50137 0,4.20077 -3.30061,7.60139 -7.50138,7.60139 -4.20076,0 -7.60139,-3.40062 -7.60139,-7.60139 0,-4.10075 3.40063,-7.50137 7.60139,-7.50137 z M 411.37533,333.6611 v 0 c 0.70013,0 1.30024,0.60011 1.30024,1.30023 0,0.70013 -0.60011,1.30024 -1.30024,1.30024 -0.70013,0 -1.20022,-0.60011 -1.20022,-1.30024 0,-0.70012 0.50009,-1.30023 1.20022,-1.30023 z m 0,25.30463 v 0 c 0.70013,0 1.30024,0.60011 1.30024,1.30024 0,0.70013 -0.60011,1.20022 -1.30024,1.20022 -0.70013,0 -1.20022,-0.50009 -1.20022,-1.20022 0,-0.70013 0.50009,-1.30024 1.20022,-1.30024 z m 0,25.20462 v 0 c 0.70013,0 1.30024,0.60011 1.30024,1.30023 0,0.70013 -0.60011,1.30024 -1.30024,1.30024 -0.70013,0 -1.20022,-0.60011 -1.20022,-1.30024 0,-0.70012 0.50009,-1.30023 1.20022,-1.30023 z m 0,19.00348 v 0 c 4.20077,0 7.60139,3.40062 7.60139,7.50137 0,4.20077 -3.40062,7.60139 -7.60139,7.60139 -4.10075,0 -7.50138,-3.40062 -7.50138,-7.60139 0,-4.10075 3.40063,-7.50137 7.50138,-7.50137 z M 83.215238,230.84227 v 0 c 1.800329,0 3.200586,1.40026 3.200586,3.20059 0,1.70031 -1.400257,3.10056 -3.200586,3.10056 -1.700312,0 -3.200587,-1.40025 -3.200587,-3.10056 0,-1.80033 1.500275,-3.20059 3.200587,-3.20059 z m 0,25.20461 v 0 c 1.800329,0 3.200586,1.40026 3.200586,3.20059 0,1.70031 -1.400257,3.20059 -3.200586,3.20059 -1.700312,0 -3.200587,-1.50028 -3.200587,-3.20059 0,-1.80033 1.500275,-3.20059 3.200587,-3.20059 z m 0,25.30464 v 0 c 1.800329,0 3.200586,1.40025 3.200586,3.10057 0,1.80033 -1.400257,3.20058 -3.200586,3.20058 -1.700312,0 -3.200587,-1.40025 -3.200587,-3.20058 0,-1.70032 1.500275,-3.10057 3.200587,-3.10057 z m 0,27.10496 v 0 c 0.700128,0 1.300238,0.60011 1.300238,1.30024 0,0.70013 -0.60011,1.30024 -1.300238,1.30024 -0.700129,0 -1.300239,-0.60011 -1.300239,-1.30024 0,-0.70013 0.60011,-1.30024 1.300239,-1.30024 z M 58.010622,230.84227 v 0 c 1.700312,0 3.100568,1.40026 3.100568,3.20059 0,1.70031 -1.400256,3.10056 -3.100568,3.10056 -1.800329,0 -3.200586,-1.40025 -3.200586,-3.10056 0,-1.80033 1.400257,-3.20059 3.200586,-3.20059 z m 0,25.20461 v 0 c 1.700312,0 3.100568,1.40026 3.100568,3.20059 0,1.70031 -1.400256,3.20059 -3.100568,3.20059 -1.800329,0 -3.200586,-1.50028 -3.200586,-3.20059 0,-1.80033 1.400257,-3.20059 3.200586,-3.20059 z m 0,25.30464 v 0 c 1.700312,0 3.100568,1.40025 3.100568,3.10057 0,1.80033 -1.400256,3.20058 -3.100568,3.20058 -1.800329,0 -3.200586,-1.40025 -3.200586,-3.20058 0,-1.70032 1.400257,-3.10057 3.200586,-3.10057 z m 0,27.10496 v 0 c 0.700129,0 1.20022,0.60011 1.20022,1.30024 0,0.70013 -0.500091,1.30024 -1.20022,1.30024 -0.700128,0 -1.300238,-0.60011 -1.300238,-1.30024 0,-0.70013 0.60011,-1.30024 1.300238,-1.30024 z M 32.705989,230.84227 v 0 c 1.800329,0 3.200586,1.40026 3.200586,3.20059 0,1.70031 -1.400257,3.10056 -3.200586,3.10056 -1.700312,0 -3.100568,-1.40025 -3.100568,-3.10056 0,-1.80033 1.400256,-3.20059 3.100568,-3.20059 z m 0,25.20461 v 0 c 1.800329,0 3.200586,1.40026 3.200586,3.20059 0,1.70031 -1.400257,3.20059 -3.200586,3.20059 -1.700312,0 -3.100568,-1.50028 -3.100568,-3.20059 0,-1.80033 1.400256,-3.20059 3.100568,-3.20059 z m 0,25.30464 v 0 c 1.800329,0 3.200586,1.40025 3.200586,3.10057 0,1.80033 -1.400257,3.20058 -3.200586,3.20058 -1.700312,0 -3.100568,-1.40025 -3.100568,-3.20058 0,-1.70032 1.400256,-3.10057 3.100568,-3.10057 z m 0,27.10496 v 0 c 0.700128,0 1.300238,0.60011 1.300238,1.30024 0,0.70013 -0.60011,1.30024 -1.300238,1.30024 -0.700128,0 -1.20022,-0.60011 -1.20022,-1.30024 0,-0.70013 0.500092,-1.30024 1.20022,-1.30024 z M 7.5013736,232.74262 v 0 c 0.7001282,0 1.3002381,0.60011 1.3002381,1.30024 0,0.70012 -0.6001099,1.20022 -1.3002381,1.20022 -0.7001282,0 -1.3002381,-0.5001 -1.3002381,-1.20022 0,-0.70013 0.6001099,-1.30024 1.3002381,-1.30024 z m 0,25.20461 v 0 c 0.7001282,0 1.3002381,0.60011 1.3002381,1.30024 0,0.70013 -0.6001099,1.30024 -1.3002381,1.30024 -0.7001282,0 -1.3002381,-0.60011 -1.3002381,-1.30024 0,-0.70013 0.6001099,-1.30024 1.3002381,-1.30024 z m 0,25.30464 v 0 c 0.7001282,0 1.3002381,0.50009 1.3002381,1.20022 0,0.70012 -0.6001099,1.30023 -1.3002381,1.30023 -0.7001282,0 -1.3002381,-0.60011 -1.3002381,-1.30023 0,-0.70013 0.6001099,-1.20022 1.3002381,-1.20022 z m 0,18.90346 v 0 c 4.2007694,0 7.5013734,3.40062 7.5013734,7.60139 0,4.20077 -3.300604,7.50137 -7.5013734,7.50137 C 3.3006044,317.25809 0,313.95749 0,309.75672 c 0,-4.20077 3.3006044,-7.60139 7.5013736,-7.60139 z M 184.23374,230.84227 v 0 c 1.70031,0 3.10056,1.40026 3.10056,3.20059 0,1.70031 -1.40025,3.10056 -3.10056,3.10056 -1.80033,0 -3.20059,-1.40025 -3.20059,-3.10056 0,-1.80033 1.40026,-3.20059 3.20059,-3.20059 z m 0,25.20461 v 0 c 1.70031,0 3.10056,1.40026 3.10056,3.20059 0,1.70031 -1.40025,3.20059 -3.10056,3.20059 -1.80033,0 -3.20059,-1.50028 -3.20059,-3.20059 0,-1.80033 1.40026,-3.20059 3.20059,-3.20059 z m 0,25.30464 v 0 c 1.70031,0 3.10056,1.40025 3.10056,3.10057 0,1.80033 -1.40025,3.20058 -3.10056,3.20058 -1.80033,0 -3.20059,-1.40025 -3.20059,-3.20058 0,-1.70032 1.40026,-3.10057 3.20059,-3.10057 z m 0,27.10496 v 0 c 0.70012,0 1.20021,0.60011 1.20021,1.30024 0,0.70013 -0.50009,1.30024 -1.20021,1.30024 -0.70013,0 -1.30024,-0.60011 -1.30024,-1.30024 0,-0.70013 0.60011,-1.30024 1.30024,-1.30024 z M 158.9291,230.84227 v 0 c 1.80033,0 3.20059,1.40026 3.20059,3.20059 0,1.70031 -1.40026,3.10056 -3.20059,3.10056 -1.70031,0 -3.10057,-1.40025 -3.10057,-3.10056 0,-1.80033 1.40026,-3.20059 3.10057,-3.20059 z m 0,25.20461 v 0 c 1.80033,0 3.20059,1.40026 3.20059,3.20059 0,1.70031 -1.40026,3.20059 -3.20059,3.20059 -1.70031,0 -3.10057,-1.50028 -3.10057,-3.20059 0,-1.80033 1.40026,-3.20059 3.10057,-3.20059 z m 0,25.30464 v 0 c 1.80033,0 3.20059,1.40025 3.20059,3.10057 0,1.80033 -1.40026,3.20058 -3.20059,3.20058 -1.70031,0 -3.10057,-1.40025 -3.10057,-3.20058 0,-1.70032 1.40026,-3.10057 3.10057,-3.10057 z m 0,27.10496 v 0 c 0.70013,0 1.30024,0.60011 1.30024,1.30024 0,0.70013 -0.60011,1.30024 -1.30024,1.30024 -0.70013,0 -1.20022,-0.60011 -1.20022,-1.30024 0,-0.70013 0.50009,-1.30024 1.20022,-1.30024 z m -25.20461,-77.61421 v 0 c 1.70031,0 3.20058,1.40026 3.20058,3.20059 0,1.70031 -1.50027,3.10056 -3.20058,3.10056 -1.80033,0 -3.20059,-1.40025 -3.20059,-3.10056 0,-1.80033 1.40026,-3.20059 3.20059,-3.20059 z m 0,25.20461 v 0 c 1.70031,0 3.20058,1.40026 3.20058,3.20059 0,1.70031 -1.50027,3.20059 -3.20058,3.20059 -1.80033,0 -3.20059,-1.50028 -3.20059,-3.20059 0,-1.80033 1.40026,-3.20059 3.20059,-3.20059 z m 0,25.30464 v 0 c 1.70031,0 3.20058,1.40025 3.20058,3.10057 0,1.80033 -1.50027,3.20058 -3.20058,3.20058 -1.80033,0 -3.20059,-1.40025 -3.20059,-3.20058 0,-1.70032 1.40026,-3.10057 3.20059,-3.10057 z m 0,27.10496 v 0 c 0.70012,0 1.30023,0.60011 1.30023,1.30024 0,0.70013 -0.60011,1.30024 -1.30023,1.30024 -0.70013,0 -1.30024,-0.60011 -1.30024,-1.30024 0,-0.70013 0.60011,-1.30024 1.30024,-1.30024 z m -25.20462,-75.71386 v 0 c 0.70013,0 1.20022,0.60011 1.20022,1.30024 0,0.70012 -0.50009,1.20022 -1.20022,1.20022 -0.70013,0 -1.30024,-0.5001 -1.30024,-1.20022 0,-0.70013 0.60011,-1.30024 1.30024,-1.30024 z m 0,25.20461 v 0 c 0.70013,0 1.20022,0.60011 1.20022,1.30024 0,0.70013 -0.50009,1.30024 -1.20022,1.30024 -0.70013,0 -1.30024,-0.60011 -1.30024,-1.30024 0,-0.70013 0.60011,-1.30024 1.30024,-1.30024 z m 0,25.30464 v 0 c 0.70013,0 1.20022,0.50009 1.20022,1.20022 0,0.70012 -0.50009,1.30023 -1.20022,1.30023 -0.70013,0 -1.30024,-0.60011 -1.30024,-1.30023 0,-0.70013 0.60011,-1.20022 1.30024,-1.20022 z m 0,18.90346 v 0 c 4.10075,0 7.50137,3.40062 7.50137,7.60139 0,4.20077 -3.40062,7.50137 -7.50137,7.50137 -4.20077,0 -7.60139,-3.3006 -7.60139,-7.50137 0,-4.20077 3.40062,-7.60139 7.60139,-7.60139 z m 176.63234,-71.31306 v 0 c 1.80033,0 3.20059,1.40026 3.20059,3.20059 0,1.70031 -1.40026,3.10056 -3.20059,3.10056 -1.70031,0 -3.10056,-1.40025 -3.10056,-3.10056 0,-1.80033 1.40025,-3.20059 3.10056,-3.20059 z m 0,25.20461 v 0 c 1.80033,0 3.20059,1.40026 3.20059,3.20059 0,1.70031 -1.40026,3.20059 -3.20059,3.20059 -1.70031,0 -3.10056,-1.50028 -3.10056,-3.20059 0,-1.80033 1.40025,-3.20059 3.10056,-3.20059 z m 0,25.30464 v 0 c 1.80033,0 3.20059,1.40025 3.20059,3.10057 0,1.80033 -1.40026,3.20058 -3.20059,3.20058 -1.70031,0 -3.10056,-1.40025 -3.10056,-3.20058 0,-1.70032 1.40025,-3.10057 3.10056,-3.10057 z m 0,27.10496 v 0 c 0.70013,0 1.30024,0.60011 1.30024,1.30024 0,0.70013 -0.60011,1.30024 -1.30024,1.30024 -0.70012,0 -1.20022,-0.60011 -1.20022,-1.30024 0,-0.70013 0.5001,-1.30024 1.20022,-1.30024 z M 259.9476,230.84227 v 0 c 1.70031,0 3.20059,1.40026 3.20059,3.20059 0,1.70031 -1.50028,3.10056 -3.20059,3.10056 -1.80033,0 -3.20059,-1.40025 -3.20059,-3.10056 0,-1.80033 1.40026,-3.20059 3.20059,-3.20059 z m 0,25.20461 v 0 c 1.70031,0 3.20059,1.40026 3.20059,3.20059 0,1.70031 -1.50028,3.20059 -3.20059,3.20059 -1.80033,0 -3.20059,-1.50028 -3.20059,-3.20059 0,-1.80033 1.40026,-3.20059 3.20059,-3.20059 z m 0,25.30464 v 0 c 1.70031,0 3.20059,1.40025 3.20059,3.10057 0,1.80033 -1.50028,3.20058 -3.20059,3.20058 -1.80033,0 -3.20059,-1.40025 -3.20059,-3.20058 0,-1.70032 1.40026,-3.10057 3.20059,-3.10057 z m 0,27.10496 v 0 c 0.70013,0 1.30024,0.60011 1.30024,1.30024 0,0.70013 -0.60011,1.30024 -1.30024,1.30024 -0.70013,0 -1.30024,-0.60011 -1.30024,-1.30024 0,-0.70013 0.60011,-1.30024 1.30024,-1.30024 z m -25.20462,-77.61421 v 0 c 1.70032,0 3.10057,1.40026 3.10057,3.20059 0,1.70031 -1.40025,3.10056 -3.10057,3.10056 -1.80033,0 -3.20058,-1.40025 -3.20058,-3.10056 0,-1.80033 1.40025,-3.20059 3.20058,-3.20059 z m 0,25.20461 v 0 c 1.70032,0 3.10057,1.40026 3.10057,3.20059 0,1.70031 -1.40025,3.20059 -3.10057,3.20059 -1.80033,0 -3.20058,-1.50028 -3.20058,-3.20059 0,-1.80033 1.40025,-3.20059 3.20058,-3.20059 z m 0,25.30464 v 0 c 1.70032,0 3.10057,1.40025 3.10057,3.10057 0,1.80033 -1.40025,3.20058 -3.10057,3.20058 -1.80033,0 -3.20058,-1.40025 -3.20058,-3.20058 0,-1.70032 1.40025,-3.10057 3.20058,-3.10057 z m 0,27.10496 v 0 c 0.70013,0 1.20022,0.60011 1.20022,1.30024 0,0.70013 -0.50009,1.30024 -1.20022,1.30024 -0.70012,0 -1.30023,-0.60011 -1.30023,-1.30024 0,-0.70013 0.60011,-1.30024 1.30023,-1.30024 z m -25.30463,-75.71386 v 0 c 0.70013,0 1.30024,0.60011 1.30024,1.30024 0,0.70012 -0.60011,1.20022 -1.30024,1.20022 -0.70013,0 -1.30024,-0.5001 -1.30024,-1.20022 0,-0.70013 0.60011,-1.30024 1.30024,-1.30024 z m 0,25.20461 v 0 c 0.70013,0 1.30024,0.60011 1.30024,1.30024 0,0.70013 -0.60011,1.30024 -1.30024,1.30024 -0.70013,0 -1.30024,-0.60011 -1.30024,-1.30024 0,-0.70013 0.60011,-1.30024 1.30024,-1.30024 z m 0,25.30464 v 0 c 0.70013,0 1.30024,0.50009 1.30024,1.20022 0,0.70012 -0.60011,1.30023 -1.30024,1.30023 -0.70013,0 -1.30024,-0.60011 -1.30024,-1.30023 0,-0.70013 0.60011,-1.20022 1.30024,-1.20022 z m 0,18.90346 v 0 c 4.20077,0 7.60139,3.40062 7.60139,7.60139 0,4.20077 -3.40062,7.50137 -7.60139,7.50137 -4.20077,0 -7.50137,-3.3006 -7.50137,-7.50137 0,-4.20077 3.3006,-7.60139 7.50137,-7.60139 z m 176.73236,-71.31306 v 0 c 1.70031,0 3.20059,1.40026 3.20059,3.20059 0,1.70031 -1.50028,3.10056 -3.20059,3.10056 -1.80033,0 -3.20058,-1.40025 -3.20058,-3.10056 0,-1.80033 1.40025,-3.20059 3.20058,-3.20059 z m 0,25.20461 v 0 c 1.70031,0 3.20059,1.40026 3.20059,3.20059 0,1.70031 -1.50028,3.20059 -3.20059,3.20059 -1.80033,0 -3.20058,-1.50028 -3.20058,-3.20059 0,-1.80033 1.40025,-3.20059 3.20058,-3.20059 z m 0,25.30464 v 0 c 1.70031,0 3.20059,1.40025 3.20059,3.10057 0,1.80033 -1.50028,3.20058 -3.20059,3.20058 -1.80033,0 -3.20058,-1.40025 -3.20058,-3.20058 0,-1.70032 1.40025,-3.10057 3.20058,-3.10057 z m 0,27.10496 v 0 c 0.70013,0 1.30024,0.60011 1.30024,1.30024 0,0.70013 -0.60011,1.30024 -1.30024,1.30024 -0.70013,0 -1.30024,-0.60011 -1.30024,-1.30024 0,-0.70013 0.60011,-1.30024 1.30024,-1.30024 z M 360.9661,230.84227 v 0 c 1.70031,0 3.10056,1.40026 3.10056,3.20059 0,1.70031 -1.40025,3.10056 -3.10056,3.10056 -1.80033,0 -3.20059,-1.40025 -3.20059,-3.10056 0,-1.80033 1.40026,-3.20059 3.20059,-3.20059 z m 0,25.20461 v 0 c 1.70031,0 3.10056,1.40026 3.10056,3.20059 0,1.70031 -1.40025,3.20059 -3.10056,3.20059 -1.80033,0 -3.20059,-1.50028 -3.20059,-3.20059 0,-1.80033 1.40026,-3.20059 3.20059,-3.20059 z m 0,25.30464 v 0 c 1.70031,0 3.10056,1.40025 3.10056,3.10057 0,1.80033 -1.40025,3.20058 -3.10056,3.20058 -1.80033,0 -3.20059,-1.40025 -3.20059,-3.20058 0,-1.70032 1.40026,-3.10057 3.20059,-3.10057 z m 0,27.10496 v 0 c 0.70012,0 1.20022,0.60011 1.20022,1.30024 0,0.70013 -0.5001,1.30024 -1.20022,1.30024 -0.70013,0 -1.30024,-0.60011 -1.30024,-1.30024 0,-0.70013 0.60011,-1.30024 1.30024,-1.30024 z m -25.30464,-77.61421 v 0 c 1.80033,0 3.20059,1.40026 3.20059,3.20059 0,1.70031 -1.40026,3.10056 -3.20059,3.10056 -1.70031,0 -3.20058,-1.40025 -3.20058,-3.10056 0,-1.80033 1.50027,-3.20059 3.20058,-3.20059 z m 0,25.20461 v 0 c 1.80033,0 3.20059,1.40026 3.20059,3.20059 0,1.70031 -1.40026,3.20059 -3.20059,3.20059 -1.70031,0 -3.20058,-1.50028 -3.20058,-3.20059 0,-1.80033 1.50027,-3.20059 3.20058,-3.20059 z m 0,25.30464 v 0 c 1.80033,0 3.20059,1.40025 3.20059,3.10057 0,1.80033 -1.40026,3.20058 -3.20059,3.20058 -1.70031,0 -3.20058,-1.40025 -3.20058,-3.20058 0,-1.70032 1.50027,-3.10057 3.20058,-3.10057 z m 0,27.10496 v 0 c 0.70013,0 1.30024,0.60011 1.30024,1.30024 0,0.70013 -0.60011,1.30024 -1.30024,1.30024 -0.70013,0 -1.30024,-0.60011 -1.30024,-1.30024 0,-0.70013 0.60011,-1.30024 1.30024,-1.30024 z m -25.20461,-75.71386 v 0 c 0.70013,0 1.20022,0.60011 1.20022,1.30024 0,0.70012 -0.50009,1.20022 -1.20022,1.20022 -0.70013,0 -1.30024,-0.5001 -1.30024,-1.20022 0,-0.70013 0.60011,-1.30024 1.30024,-1.30024 z m 0,25.20461 v 0 c 0.70013,0 1.20022,0.60011 1.20022,1.30024 0,0.70013 -0.50009,1.30024 -1.20022,1.30024 -0.70013,0 -1.30024,-0.60011 -1.30024,-1.30024 0,-0.70013 0.60011,-1.30024 1.30024,-1.30024 z m 0,25.30464 v 0 c 0.70013,0 1.20022,0.50009 1.20022,1.20022 0,0.70012 -0.50009,1.30023 -1.20022,1.30023 -0.70013,0 -1.30024,-0.60011 -1.30024,-1.30023 0,-0.70013 0.60011,-1.20022 1.30024,-1.20022 z m 0,18.90346 v 0 c 4.10075,0 7.50137,3.40062 7.50137,7.60139 0,4.20077 -3.40062,7.50137 -7.50137,7.50137 -4.20077,0 -7.60139,-3.3006 -7.60139,-7.50137 0,-4.20077 3.40062,-7.60139 7.60139,-7.60139 z m 176.73236,-71.31306 v 0 c 1.70031,0 3.10057,1.40026 3.10057,3.20059 0,1.70031 -1.40026,3.10056 -3.10057,3.10056 -1.80033,0 -3.20059,-1.40025 -3.20059,-3.10056 0,-1.80033 1.40026,-3.20059 3.20059,-3.20059 z m 0,25.20461 v 0 c 1.70031,0 3.10057,1.40026 3.10057,3.20059 0,1.70031 -1.40026,3.20059 -3.10057,3.20059 -1.80033,0 -3.20059,-1.50028 -3.20059,-3.20059 0,-1.80033 1.40026,-3.20059 3.20059,-3.20059 z m 0,25.30464 v 0 c 1.70031,0 3.10057,1.40025 3.10057,3.10057 0,1.80033 -1.40026,3.20058 -3.10057,3.20058 -1.80033,0 -3.20059,-1.40025 -3.20059,-3.20058 0,-1.70032 1.40026,-3.10057 3.20059,-3.10057 z m 0,27.10496 v 0 c 0.70013,0 1.20022,0.60011 1.20022,1.30024 0,0.70013 -0.50009,1.30024 -1.20022,1.30024 -0.70013,0 -1.30024,-0.60011 -1.30024,-1.30024 0,-0.70013 0.60011,-1.30024 1.30024,-1.30024 z m -25.30463,-77.61421 v 0 c 1.80033,0 3.20058,1.40026 3.20058,3.20059 0,1.70031 -1.40025,3.10056 -3.20058,3.10056 -1.70032,0 -3.20059,-1.40025 -3.20059,-3.10056 0,-1.80033 1.50027,-3.20059 3.20059,-3.20059 z m 0,25.20461 v 0 c 1.80033,0 3.20058,1.40026 3.20058,3.20059 0,1.70031 -1.40025,3.20059 -3.20058,3.20059 -1.70032,0 -3.20059,-1.50028 -3.20059,-3.20059 0,-1.80033 1.50027,-3.20059 3.20059,-3.20059 z m 0,25.30464 v 0 c 1.80033,0 3.20058,1.40025 3.20058,3.10057 0,1.80033 -1.40025,3.20058 -3.20058,3.20058 -1.70032,0 -3.20059,-1.40025 -3.20059,-3.20058 0,-1.70032 1.50027,-3.10057 3.20059,-3.10057 z m 0,27.10496 v 0 c 0.70012,0 1.30023,0.60011 1.30023,1.30024 0,0.70013 -0.60011,1.30024 -1.30023,1.30024 -0.70013,0 -1.30024,-0.60011 -1.30024,-1.30024 0,-0.70013 0.60011,-1.30024 1.30024,-1.30024 z m -25.20462,-77.61421 v 0 c 1.70031,0 3.10057,1.40026 3.10057,3.20059 0,1.70031 -1.40026,3.10056 -3.10057,3.10056 -1.80033,0 -3.20059,-1.40025 -3.20059,-3.10056 0,-1.80033 1.40026,-3.20059 3.20059,-3.20059 z m 0,25.20461 v 0 c 1.70031,0 3.10057,1.40026 3.10057,3.20059 0,1.70031 -1.40026,3.20059 -3.10057,3.20059 -1.80033,0 -3.20059,-1.50028 -3.20059,-3.20059 0,-1.80033 1.40026,-3.20059 3.20059,-3.20059 z m 0,25.30464 v 0 c 1.70031,0 3.10057,1.40025 3.10057,3.10057 0,1.80033 -1.40026,3.20058 -3.10057,3.20058 -1.80033,0 -3.20059,-1.40025 -3.20059,-3.20058 0,-1.70032 1.40026,-3.10057 3.20059,-3.10057 z m 0,27.10496 v 0 c 0.70013,0 1.20022,0.60011 1.20022,1.30024 0,0.70013 -0.50009,1.30024 -1.20022,1.30024 -0.70013,0 -1.30024,-0.60011 -1.30024,-1.30024 0,-0.70013 0.60011,-1.30024 1.30024,-1.30024 z m 75.71386,-75.71386 v 0 c 0.70013,0 1.30024,0.60011 1.30024,1.30024 0,0.70012 -0.60011,1.20022 -1.30024,1.20022 -0.70012,0 -1.30023,-0.5001 -1.30023,-1.20022 0,-0.70013 0.60011,-1.30024 1.30023,-1.30024 z m 0,25.20461 v 0 c 0.70013,0 1.30024,0.60011 1.30024,1.30024 0,0.70013 -0.60011,1.30024 -1.30024,1.30024 -0.70012,0 -1.30023,-0.60011 -1.30023,-1.30024 0,-0.70013 0.60011,-1.30024 1.30023,-1.30024 z m 0,25.30464 v 0 c 0.70013,0 1.30024,0.50009 1.30024,1.20022 0,0.70012 -0.60011,1.30023 -1.30024,1.30023 -0.70012,0 -1.30023,-0.60011 -1.30023,-1.30023 0,-0.70013 0.60011,-1.20022 1.30023,-1.20022 z m 0,18.90346 v 0 c 4.20077,0 7.50138,3.40062 7.50138,7.60139 0,4.20077 -3.30061,7.50137 -7.50138,7.50137 -4.20076,0 -7.60139,-3.3006 -7.60139,-7.50137 0,-4.20077 3.40063,-7.60139 7.60139,-7.60139 z M 411.37533,232.74262 v 0 c 0.70013,0 1.30024,0.60011 1.30024,1.30024 0,0.70012 -0.60011,1.20022 -1.30024,1.20022 -0.70013,0 -1.20022,-0.5001 -1.20022,-1.20022 0,-0.70013 0.50009,-1.30024 1.20022,-1.30024 z m 0,25.20461 v 0 c 0.70013,0 1.30024,0.60011 1.30024,1.30024 0,0.70013 -0.60011,1.30024 -1.30024,1.30024 -0.70013,0 -1.20022,-0.60011 -1.20022,-1.30024 0,-0.70013 0.50009,-1.30024 1.20022,-1.30024 z m 0,25.30464 v 0 c 0.70013,0 1.30024,0.50009 1.30024,1.20022 0,0.70012 -0.60011,1.30023 -1.30024,1.30023 -0.70013,0 -1.20022,-0.60011 -1.20022,-1.30023 0,-0.70013 0.50009,-1.20022 1.20022,-1.20022 z m 0,18.90346 v 0 c 4.20077,0 7.60139,3.40062 7.60139,7.60139 0,4.20077 -3.40062,7.50137 -7.60139,7.50137 -4.10075,0 -7.50138,-3.3006 -7.50138,-7.50137 0,-4.20077 3.40063,-7.60139 7.50138,-7.60139 z M 83.215238,129.82377 v 0 c 1.800329,0 3.200586,1.40026 3.200586,3.20059 0,1.70031 -1.400257,3.20058 -3.200586,3.20058 -1.700312,0 -3.200587,-1.50027 -3.200587,-3.20058 0,-1.80033 1.500275,-3.20059 3.200587,-3.20059 z m 0,25.30464 v 0 c 1.800329,0 3.200586,1.40025 3.200586,3.10056 0,1.80033 -1.400257,3.20059 -3.200586,3.20059 -1.700312,0 -3.200587,-1.40026 -3.200587,-3.20059 0,-1.70031 1.500275,-3.10056 3.200587,-3.10056 z m 0,25.20461 v 0 c 1.800329,0 3.200586,1.40026 3.200586,3.20059 0,1.70031 -1.400257,3.10056 -3.200586,3.10056 -1.700312,0 -3.200587,-1.40025 -3.200587,-3.10056 0,-1.80033 1.500275,-3.20059 3.200587,-3.20059 z m 0,27.20498 v 0 c 0.700128,0 1.300238,0.50009 1.300238,1.20022 0,0.70013 -0.60011,1.30024 -1.300238,1.30024 -0.700129,0 -1.300239,-0.60011 -1.300239,-1.30024 0,-0.70013 0.60011,-1.20022 1.300239,-1.20022 z M 58.010622,129.82377 v 0 c 1.700312,0 3.100568,1.40026 3.100568,3.20059 0,1.70031 -1.400256,3.20058 -3.100568,3.20058 -1.800329,0 -3.200586,-1.50027 -3.200586,-3.20058 0,-1.80033 1.400257,-3.20059 3.200586,-3.20059 z m 0,25.30464 v 0 c 1.700312,0 3.100568,1.40025 3.100568,3.10056 0,1.80033 -1.400256,3.20059 -3.100568,3.20059 -1.800329,0 -3.200586,-1.40026 -3.200586,-3.20059 0,-1.70031 1.400257,-3.10056 3.200586,-3.10056 z m 0,25.20461 v 0 c 1.700312,0 3.100568,1.40026 3.100568,3.20059 0,1.70031 -1.400256,3.10056 -3.100568,3.10056 -1.800329,0 -3.200586,-1.40025 -3.200586,-3.10056 0,-1.80033 1.400257,-3.20059 3.200586,-3.20059 z m 0,27.20498 v 0 c 0.700129,0 1.20022,0.50009 1.20022,1.20022 0,0.70013 -0.500091,1.30024 -1.20022,1.30024 -0.700128,0 -1.300238,-0.60011 -1.300238,-1.30024 0,-0.70013 0.60011,-1.20022 1.300238,-1.20022 z M 32.705989,129.82377 v 0 c 1.800329,0 3.200586,1.40026 3.200586,3.20059 0,1.70031 -1.400257,3.20058 -3.200586,3.20058 -1.700312,0 -3.100568,-1.50027 -3.100568,-3.20058 0,-1.80033 1.400256,-3.20059 3.100568,-3.20059 z m 0,25.30464 v 0 c 1.800329,0 3.200586,1.40025 3.200586,3.10056 0,1.80033 -1.400257,3.20059 -3.200586,3.20059 -1.700312,0 -3.100568,-1.40026 -3.100568,-3.20059 0,-1.70031 1.400256,-3.10056 3.100568,-3.10056 z m 0,25.20461 v 0 c 1.800329,0 3.200586,1.40026 3.200586,3.20059 0,1.70031 -1.400257,3.10056 -3.200586,3.10056 -1.700312,0 -3.100568,-1.40025 -3.100568,-3.10056 0,-1.80033 1.400256,-3.20059 3.100568,-3.20059 z m 0,27.20498 v 0 c 0.700128,0 1.300238,0.50009 1.300238,1.20022 0,0.70013 -0.60011,1.30024 -1.300238,1.30024 -0.700128,0 -1.20022,-0.60011 -1.20022,-1.30024 0,-0.70013 0.500092,-1.20022 1.20022,-1.20022 z M 7.5013736,131.72412 v 0 c 0.7001282,0 1.3002381,0.60011 1.3002381,1.30024 0,0.70013 -0.6001099,1.30024 -1.3002381,1.30024 -0.7001282,0 -1.3002381,-0.60011 -1.3002381,-1.30024 0,-0.70013 0.6001099,-1.30024 1.3002381,-1.30024 z m 0,25.30463 v 0 c 0.7001282,0 1.3002381,0.5001 1.3002381,1.20022 0,0.70013 -0.6001099,1.30024 -1.3002381,1.30024 -0.7001282,0 -1.3002381,-0.60011 -1.3002381,-1.30024 0,-0.70012 0.6001099,-1.20022 1.3002381,-1.20022 z m 0,25.20462 v 0 c 0.7001282,0 1.3002381,0.60011 1.3002381,1.30024 0,0.70013 -0.6001099,1.20022 -1.3002381,1.20022 -0.7001282,0 -1.3002381,-0.50009 -1.3002381,-1.20022 0,-0.70013 0.6001099,-1.30024 1.3002381,-1.30024 z m 0,19.00348 v 0 c 4.2007694,0 7.5013734,3.40062 7.5013734,7.50137 0,4.20077 -3.300604,7.60139 -7.5013734,7.60139 C 3.3006044,216.33961 0,212.93899 0,208.73822 c 0,-4.10075 3.3006044,-7.50137 7.5013736,-7.50137 z M 184.23374,129.82377 v 0 c 1.70031,0 3.10056,1.40026 3.10056,3.20059 0,1.70031 -1.40025,3.20058 -3.10056,3.20058 -1.80033,0 -3.20059,-1.50027 -3.20059,-3.20058 0,-1.80033 1.40026,-3.20059 3.20059,-3.20059 z m 0,25.30464 v 0 c 1.70031,0 3.10056,1.40025 3.10056,3.10056 0,1.80033 -1.40025,3.20059 -3.10056,3.20059 -1.80033,0 -3.20059,-1.40026 -3.20059,-3.20059 0,-1.70031 1.40026,-3.10056 3.20059,-3.10056 z m 0,25.20461 v 0 c 1.70031,0 3.10056,1.40026 3.10056,3.20059 0,1.70031 -1.40025,3.10056 -3.10056,3.10056 -1.80033,0 -3.20059,-1.40025 -3.20059,-3.10056 0,-1.80033 1.40026,-3.20059 3.20059,-3.20059 z m 0,27.20498 v 0 c 0.70012,0 1.20021,0.50009 1.20021,1.20022 0,0.70013 -0.50009,1.30024 -1.20021,1.30024 -0.70013,0 -1.30024,-0.60011 -1.30024,-1.30024 0,-0.70013 0.60011,-1.20022 1.30024,-1.20022 z M 158.9291,129.82377 v 0 c 1.80033,0 3.20059,1.40026 3.20059,3.20059 0,1.70031 -1.40026,3.20058 -3.20059,3.20058 -1.70031,0 -3.10057,-1.50027 -3.10057,-3.20058 0,-1.80033 1.40026,-3.20059 3.10057,-3.20059 z m 0,25.30464 v 0 c 1.80033,0 3.20059,1.40025 3.20059,3.10056 0,1.80033 -1.40026,3.20059 -3.20059,3.20059 -1.70031,0 -3.10057,-1.40026 -3.10057,-3.20059 0,-1.70031 1.40026,-3.10056 3.10057,-3.10056 z m 0,25.20461 v 0 c 1.80033,0 3.20059,1.40026 3.20059,3.20059 0,1.70031 -1.40026,3.10056 -3.20059,3.10056 -1.70031,0 -3.10057,-1.40025 -3.10057,-3.10056 0,-1.80033 1.40026,-3.20059 3.10057,-3.20059 z m 0,27.20498 v 0 c 0.70013,0 1.30024,0.50009 1.30024,1.20022 0,0.70013 -0.60011,1.30024 -1.30024,1.30024 -0.70013,0 -1.20022,-0.60011 -1.20022,-1.30024 0,-0.70013 0.50009,-1.20022 1.20022,-1.20022 z m -25.20461,-77.71423 v 0 c 1.70031,0 3.20058,1.40026 3.20058,3.20059 0,1.70031 -1.50027,3.20058 -3.20058,3.20058 -1.80033,0 -3.20059,-1.50027 -3.20059,-3.20058 0,-1.80033 1.40026,-3.20059 3.20059,-3.20059 z m 0,25.30464 v 0 c 1.70031,0 3.20058,1.40025 3.20058,3.10056 0,1.80033 -1.50027,3.20059 -3.20058,3.20059 -1.80033,0 -3.20059,-1.40026 -3.20059,-3.20059 0,-1.70031 1.40026,-3.10056 3.20059,-3.10056 z m 0,25.20461 v 0 c 1.70031,0 3.20058,1.40026 3.20058,3.20059 0,1.70031 -1.50027,3.10056 -3.20058,3.10056 -1.80033,0 -3.20059,-1.40025 -3.20059,-3.10056 0,-1.80033 1.40026,-3.20059 3.20059,-3.20059 z m 0,27.20498 v 0 c 0.70012,0 1.30023,0.50009 1.30023,1.20022 0,0.70013 -0.60011,1.30024 -1.30023,1.30024 -0.70013,0 -1.30024,-0.60011 -1.30024,-1.30024 0,-0.70013 0.60011,-1.20022 1.30024,-1.20022 z m -25.20462,-75.81388 v 0 c 0.70013,0 1.20022,0.60011 1.20022,1.30024 0,0.70013 -0.50009,1.30024 -1.20022,1.30024 -0.70013,0 -1.30024,-0.60011 -1.30024,-1.30024 0,-0.70013 0.60011,-1.30024 1.30024,-1.30024 z m 0,25.30463 v 0 c 0.70013,0 1.20022,0.5001 1.20022,1.20022 0,0.70013 -0.50009,1.30024 -1.20022,1.30024 -0.70013,0 -1.30024,-0.60011 -1.30024,-1.30024 0,-0.70012 0.60011,-1.20022 1.30024,-1.20022 z m 0,25.20462 v 0 c 0.70013,0 1.20022,0.60011 1.20022,1.30024 0,0.70013 -0.50009,1.20022 -1.20022,1.20022 -0.70013,0 -1.30024,-0.50009 -1.30024,-1.20022 0,-0.70013 0.60011,-1.30024 1.30024,-1.30024 z m 0,19.00348 v 0 c 4.10075,0 7.50137,3.40062 7.50137,7.50137 0,4.20077 -3.40062,7.60139 -7.50137,7.60139 -4.20077,0 -7.60139,-3.40062 -7.60139,-7.60139 0,-4.10075 3.40062,-7.50137 7.60139,-7.50137 z m 176.63234,-71.41308 v 0 c 1.80033,0 3.20059,1.40026 3.20059,3.20059 0,1.70031 -1.40026,3.20058 -3.20059,3.20058 -1.70031,0 -3.10056,-1.50027 -3.10056,-3.20058 0,-1.80033 1.40025,-3.20059 3.10056,-3.20059 z m 0,25.30464 v 0 c 1.80033,0 3.20059,1.40025 3.20059,3.10056 0,1.80033 -1.40026,3.20059 -3.20059,3.20059 -1.70031,0 -3.10056,-1.40026 -3.10056,-3.20059 0,-1.70031 1.40025,-3.10056 3.10056,-3.10056 z m 0,25.20461 v 0 c 1.80033,0 3.20059,1.40026 3.20059,3.20059 0,1.70031 -1.40026,3.10056 -3.20059,3.10056 -1.70031,0 -3.10056,-1.40025 -3.10056,-3.10056 0,-1.80033 1.40025,-3.20059 3.10056,-3.20059 z m 0,27.20498 v 0 c 0.70013,0 1.30024,0.50009 1.30024,1.20022 0,0.70013 -0.60011,1.30024 -1.30024,1.30024 -0.70012,0 -1.20022,-0.60011 -1.20022,-1.30024 0,-0.70013 0.5001,-1.20022 1.20022,-1.20022 z M 259.9476,129.82377 v 0 c 1.70031,0 3.20059,1.40026 3.20059,3.20059 0,1.70031 -1.50028,3.20058 -3.20059,3.20058 -1.80033,0 -3.20059,-1.50027 -3.20059,-3.20058 0,-1.80033 1.40026,-3.20059 3.20059,-3.20059 z m 0,25.30464 v 0 c 1.70031,0 3.20059,1.40025 3.20059,3.10056 0,1.80033 -1.50028,3.20059 -3.20059,3.20059 -1.80033,0 -3.20059,-1.40026 -3.20059,-3.20059 0,-1.70031 1.40026,-3.10056 3.20059,-3.10056 z m 0,25.20461 v 0 c 1.70031,0 3.20059,1.40026 3.20059,3.20059 0,1.70031 -1.50028,3.10056 -3.20059,3.10056 -1.80033,0 -3.20059,-1.40025 -3.20059,-3.10056 0,-1.80033 1.40026,-3.20059 3.20059,-3.20059 z m 0,27.20498 v 0 c 0.70013,0 1.30024,0.50009 1.30024,1.20022 0,0.70013 -0.60011,1.30024 -1.30024,1.30024 -0.70013,0 -1.30024,-0.60011 -1.30024,-1.30024 0,-0.70013 0.60011,-1.20022 1.30024,-1.20022 z m -25.20462,-77.71423 v 0 c 1.70032,0 3.10057,1.40026 3.10057,3.20059 0,1.70031 -1.40025,3.20058 -3.10057,3.20058 -1.80033,0 -3.20058,-1.50027 -3.20058,-3.20058 0,-1.80033 1.40025,-3.20059 3.20058,-3.20059 z m 0,25.30464 v 0 c 1.70032,0 3.10057,1.40025 3.10057,3.10056 0,1.80033 -1.40025,3.20059 -3.10057,3.20059 -1.80033,0 -3.20058,-1.40026 -3.20058,-3.20059 0,-1.70031 1.40025,-3.10056 3.20058,-3.10056 z m 0,25.20461 v 0 c 1.70032,0 3.10057,1.40026 3.10057,3.20059 0,1.70031 -1.40025,3.10056 -3.10057,3.10056 -1.80033,0 -3.20058,-1.40025 -3.20058,-3.10056 0,-1.80033 1.40025,-3.20059 3.20058,-3.20059 z m 0,27.20498 v 0 c 0.70013,0 1.20022,0.50009 1.20022,1.20022 0,0.70013 -0.50009,1.30024 -1.20022,1.30024 -0.70012,0 -1.30023,-0.60011 -1.30023,-1.30024 0,-0.70013 0.60011,-1.20022 1.30023,-1.20022 z m -25.30463,-75.81388 v 0 c 0.70013,0 1.30024,0.60011 1.30024,1.30024 0,0.70013 -0.60011,1.30024 -1.30024,1.30024 -0.70013,0 -1.30024,-0.60011 -1.30024,-1.30024 0,-0.70013 0.60011,-1.30024 1.30024,-1.30024 z m 0,25.30463 v 0 c 0.70013,0 1.30024,0.5001 1.30024,1.20022 0,0.70013 -0.60011,1.30024 -1.30024,1.30024 -0.70013,0 -1.30024,-0.60011 -1.30024,-1.30024 0,-0.70012 0.60011,-1.20022 1.30024,-1.20022 z m 0,25.20462 v 0 c 0.70013,0 1.30024,0.60011 1.30024,1.30024 0,0.70013 -0.60011,1.20022 -1.30024,1.20022 -0.70013,0 -1.30024,-0.50009 -1.30024,-1.20022 0,-0.70013 0.60011,-1.30024 1.30024,-1.30024 z m 0,19.00348 v 0 c 4.20077,0 7.60139,3.40062 7.60139,7.50137 0,4.20077 -3.40062,7.60139 -7.60139,7.60139 -4.20077,0 -7.50137,-3.40062 -7.50137,-7.60139 0,-4.10075 3.3006,-7.50137 7.50137,-7.50137 z m 176.73236,-71.41308 v 0 c 1.70031,0 3.20059,1.40026 3.20059,3.20059 0,1.70031 -1.50028,3.20058 -3.20059,3.20058 -1.80033,0 -3.20058,-1.50027 -3.20058,-3.20058 0,-1.80033 1.40025,-3.20059 3.20058,-3.20059 z m 0,25.30464 v 0 c 1.70031,0 3.20059,1.40025 3.20059,3.10056 0,1.80033 -1.50028,3.20059 -3.20059,3.20059 -1.80033,0 -3.20058,-1.40026 -3.20058,-3.20059 0,-1.70031 1.40025,-3.10056 3.20058,-3.10056 z m 0,25.20461 v 0 c 1.70031,0 3.20059,1.40026 3.20059,3.20059 0,1.70031 -1.50028,3.10056 -3.20059,3.10056 -1.80033,0 -3.20058,-1.40025 -3.20058,-3.10056 0,-1.80033 1.40025,-3.20059 3.20058,-3.20059 z m 0,27.20498 v 0 c 0.70013,0 1.30024,0.50009 1.30024,1.20022 0,0.70013 -0.60011,1.30024 -1.30024,1.30024 -0.70013,0 -1.30024,-0.60011 -1.30024,-1.30024 0,-0.70013 0.60011,-1.20022 1.30024,-1.20022 z M 360.9661,129.82377 v 0 c 1.70031,0 3.10056,1.40026 3.10056,3.20059 0,1.70031 -1.40025,3.20058 -3.10056,3.20058 -1.80033,0 -3.20059,-1.50027 -3.20059,-3.20058 0,-1.80033 1.40026,-3.20059 3.20059,-3.20059 z m 0,25.30464 v 0 c 1.70031,0 3.10056,1.40025 3.10056,3.10056 0,1.80033 -1.40025,3.20059 -3.10056,3.20059 -1.80033,0 -3.20059,-1.40026 -3.20059,-3.20059 0,-1.70031 1.40026,-3.10056 3.20059,-3.10056 z m 0,25.20461 v 0 c 1.70031,0 3.10056,1.40026 3.10056,3.20059 0,1.70031 -1.40025,3.10056 -3.10056,3.10056 -1.80033,0 -3.20059,-1.40025 -3.20059,-3.10056 0,-1.80033 1.40026,-3.20059 3.20059,-3.20059 z m 0,27.20498 v 0 c 0.70012,0 1.20022,0.50009 1.20022,1.20022 0,0.70013 -0.5001,1.30024 -1.20022,1.30024 -0.70013,0 -1.30024,-0.60011 -1.30024,-1.30024 0,-0.70013 0.60011,-1.20022 1.30024,-1.20022 z m -25.30464,-77.71423 v 0 c 1.80033,0 3.20059,1.40026 3.20059,3.20059 0,1.70031 -1.40026,3.20058 -3.20059,3.20058 -1.70031,0 -3.20058,-1.50027 -3.20058,-3.20058 0,-1.80033 1.50027,-3.20059 3.20058,-3.20059 z m 0,25.30464 v 0 c 1.80033,0 3.20059,1.40025 3.20059,3.10056 0,1.80033 -1.40026,3.20059 -3.20059,3.20059 -1.70031,0 -3.20058,-1.40026 -3.20058,-3.20059 0,-1.70031 1.50027,-3.10056 3.20058,-3.10056 z m 0,25.20461 v 0 c 1.80033,0 3.20059,1.40026 3.20059,3.20059 0,1.70031 -1.40026,3.10056 -3.20059,3.10056 -1.70031,0 -3.20058,-1.40025 -3.20058,-3.10056 0,-1.80033 1.50027,-3.20059 3.20058,-3.20059 z m 0,27.20498 v 0 c 0.70013,0 1.30024,0.50009 1.30024,1.20022 0,0.70013 -0.60011,1.30024 -1.30024,1.30024 -0.70013,0 -1.30024,-0.60011 -1.30024,-1.30024 0,-0.70013 0.60011,-1.20022 1.30024,-1.20022 z m -25.20461,-75.81388 v 0 c 0.70013,0 1.20022,0.60011 1.20022,1.30024 0,0.70013 -0.50009,1.30024 -1.20022,1.30024 -0.70013,0 -1.30024,-0.60011 -1.30024,-1.30024 0,-0.70013 0.60011,-1.30024 1.30024,-1.30024 z m 0,25.30463 v 0 c 0.70013,0 1.20022,0.5001 1.20022,1.20022 0,0.70013 -0.50009,1.30024 -1.20022,1.30024 -0.70013,0 -1.30024,-0.60011 -1.30024,-1.30024 0,-0.70012 0.60011,-1.20022 1.30024,-1.20022 z m 0,25.20462 v 0 c 0.70013,0 1.20022,0.60011 1.20022,1.30024 0,0.70013 -0.50009,1.20022 -1.20022,1.20022 -0.70013,0 -1.30024,-0.50009 -1.30024,-1.20022 0,-0.70013 0.60011,-1.30024 1.30024,-1.30024 z m 0,19.00348 v 0 c 4.10075,0 7.50137,3.40062 7.50137,7.50137 0,4.20077 -3.40062,7.60139 -7.50137,7.60139 -4.20077,0 -7.60139,-3.40062 -7.60139,-7.60139 0,-4.10075 3.40062,-7.50137 7.60139,-7.50137 z m 176.73236,-71.41308 v 0 c 1.70031,0 3.10057,1.40026 3.10057,3.20059 0,1.70031 -1.40026,3.20058 -3.10057,3.20058 -1.80033,0 -3.20059,-1.50027 -3.20059,-3.20058 0,-1.80033 1.40026,-3.20059 3.20059,-3.20059 z m 0,25.30464 v 0 c 1.70031,0 3.10057,1.40025 3.10057,3.10056 0,1.80033 -1.40026,3.20059 -3.10057,3.20059 -1.80033,0 -3.20059,-1.40026 -3.20059,-3.20059 0,-1.70031 1.40026,-3.10056 3.20059,-3.10056 z m 0,25.20461 v 0 c 1.70031,0 3.10057,1.40026 3.10057,3.20059 0,1.70031 -1.40026,3.10056 -3.10057,3.10056 -1.80033,0 -3.20059,-1.40025 -3.20059,-3.10056 0,-1.80033 1.40026,-3.20059 3.20059,-3.20059 z m 0,27.20498 v 0 c 0.70013,0 1.20022,0.50009 1.20022,1.20022 0,0.70013 -0.50009,1.30024 -1.20022,1.30024 -0.70013,0 -1.30024,-0.60011 -1.30024,-1.30024 0,-0.70013 0.60011,-1.20022 1.30024,-1.20022 z m -25.30463,-77.71423 v 0 c 1.80033,0 3.20058,1.40026 3.20058,3.20059 0,1.70031 -1.40025,3.20058 -3.20058,3.20058 -1.70032,0 -3.20059,-1.50027 -3.20059,-3.20058 0,-1.80033 1.50027,-3.20059 3.20059,-3.20059 z m 0,25.30464 v 0 c 1.80033,0 3.20058,1.40025 3.20058,3.10056 0,1.80033 -1.40025,3.20059 -3.20058,3.20059 -1.70032,0 -3.20059,-1.40026 -3.20059,-3.20059 0,-1.70031 1.50027,-3.10056 3.20059,-3.10056 z m 0,25.20461 v 0 c 1.80033,0 3.20058,1.40026 3.20058,3.20059 0,1.70031 -1.40025,3.10056 -3.20058,3.10056 -1.70032,0 -3.20059,-1.40025 -3.20059,-3.10056 0,-1.80033 1.50027,-3.20059 3.20059,-3.20059 z m 0,27.20498 v 0 c 0.70012,0 1.30023,0.50009 1.30023,1.20022 0,0.70013 -0.60011,1.30024 -1.30023,1.30024 -0.70013,0 -1.30024,-0.60011 -1.30024,-1.30024 0,-0.70013 0.60011,-1.20022 1.30024,-1.20022 z m -25.20462,-77.71423 v 0 c 1.70031,0 3.10057,1.40026 3.10057,3.20059 0,1.70031 -1.40026,3.20058 -3.10057,3.20058 -1.80033,0 -3.20059,-1.50027 -3.20059,-3.20058 0,-1.80033 1.40026,-3.20059 3.20059,-3.20059 z m 0,25.30464 v 0 c 1.70031,0 3.10057,1.40025 3.10057,3.10056 0,1.80033 -1.40026,3.20059 -3.10057,3.20059 -1.80033,0 -3.20059,-1.40026 -3.20059,-3.20059 0,-1.70031 1.40026,-3.10056 3.20059,-3.10056 z m 0,25.20461 v 0 c 1.70031,0 3.10057,1.40026 3.10057,3.20059 0,1.70031 -1.40026,3.10056 -3.10057,3.10056 -1.80033,0 -3.20059,-1.40025 -3.20059,-3.10056 0,-1.80033 1.40026,-3.20059 3.20059,-3.20059 z m 0,27.20498 v 0 c 0.70013,0 1.20022,0.50009 1.20022,1.20022 0,0.70013 -0.50009,1.30024 -1.20022,1.30024 -0.70013,0 -1.30024,-0.60011 -1.30024,-1.30024 0,-0.70013 0.60011,-1.20022 1.30024,-1.20022 z m 75.71386,-75.81388 v 0 c 0.70013,0 1.30024,0.60011 1.30024,1.30024 0,0.70013 -0.60011,1.30024 -1.30024,1.30024 -0.70012,0 -1.30023,-0.60011 -1.30023,-1.30024 0,-0.70013 0.60011,-1.30024 1.30023,-1.30024 z m 0,25.30463 v 0 c 0.70013,0 1.30024,0.5001 1.30024,1.20022 0,0.70013 -0.60011,1.30024 -1.30024,1.30024 -0.70012,0 -1.30023,-0.60011 -1.30023,-1.30024 0,-0.70012 0.60011,-1.20022 1.30023,-1.20022 z m 0,25.20462 v 0 c 0.70013,0 1.30024,0.60011 1.30024,1.30024 0,0.70013 -0.60011,1.20022 -1.30024,1.20022 -0.70012,0 -1.30023,-0.50009 -1.30023,-1.20022 0,-0.70013 0.60011,-1.30024 1.30023,-1.30024 z m 0,19.00348 v 0 c 4.20077,0 7.50138,3.40062 7.50138,7.50137 0,4.20077 -3.30061,7.60139 -7.50138,7.60139 -4.20076,0 -7.60139,-3.40062 -7.60139,-7.60139 0,-4.10075 3.40063,-7.50137 7.60139,-7.50137 z M 411.37533,131.72412 v 0 c 0.70013,0 1.30024,0.60011 1.30024,1.30024 0,0.70013 -0.60011,1.30024 -1.30024,1.30024 -0.70013,0 -1.20022,-0.60011 -1.20022,-1.30024 0,-0.70013 0.50009,-1.30024 1.20022,-1.30024 z m 0,25.30463 v 0 c 0.70013,0 1.30024,0.5001 1.30024,1.20022 0,0.70013 -0.60011,1.30024 -1.30024,1.30024 -0.70013,0 -1.20022,-0.60011 -1.20022,-1.30024 0,-0.70012 0.50009,-1.20022 1.20022,-1.20022 z m 0,25.20462 v 0 c 0.70013,0 1.30024,0.60011 1.30024,1.30024 0,0.70013 -0.60011,1.20022 -1.30024,1.20022 -0.70013,0 -1.20022,-0.50009 -1.20022,-1.20022 0,-0.70013 0.50009,-1.30024 1.20022,-1.30024 z m 0,19.00348 v 0 c 4.20077,0 7.60139,3.40062 7.60139,7.50137 0,4.20077 -3.40062,7.60139 -7.60139,7.60139 -4.10075,0 -7.50138,-3.40062 -7.50138,-7.60139 0,-4.10075 3.40063,-7.50137 7.50138,-7.50137 z M 108.51987,100.21835 v 0 c 4.10075,0 7.50137,3.40062 7.50137,7.60139 0,4.10075 -3.40062,7.50138 -7.50137,7.50138 -4.20077,0 -7.60139,-3.40063 -7.60139,-7.50138 0,-4.20077 3.40062,-7.60139 7.60139,-7.60139 z M 285.15221,28.905293 v 0 c 1.80033,0 3.20059,1.400256 3.20059,3.100568 0,1.800329 -1.40026,3.200586 -3.20059,3.200586 -1.70031,0 -3.10056,-1.400257 -3.10056,-3.200586 0,-1.700312 1.40025,-3.100568 3.10056,-3.100568 z m 0,-23.4042857 v 0 c 0.70013,0 1.30024,0.6001099 1.30024,1.3002381 0,0.7001282 -0.60011,1.3002381 -1.30024,1.3002381 -0.70012,0 -1.20022,-0.6001099 -1.20022,-1.3002381 0,-0.7001282 0.5001,-1.3002381 1.20022,-1.3002381 z m 0,48.6089007 v 0 c 1.80033,0 3.20059,1.400256 3.20059,3.200586 0,1.700311 -1.40026,3.100568 -3.20059,3.100568 -1.70031,0 -3.10056,-1.400257 -3.10056,-3.100568 0,-1.80033 1.40025,-3.200586 3.10056,-3.200586 z m 0,25.204615 v 0 c 1.80033,0 3.20059,1.500275 3.20059,3.200586 0,1.80033 -1.40026,3.200586 -3.20059,3.200586 -1.70031,0 -3.10056,-1.400256 -3.10056,-3.200586 0,-1.700311 1.40025,-3.200586 3.10056,-3.200586 z m 0,27.204977 v 0 c 0.70013,0 1.30024,0.60011 1.30024,1.30024 0,0.70013 -0.60011,1.20022 -1.30024,1.20022 -0.70012,0 -1.20022,-0.50009 -1.20022,-1.20022 0,-0.70013 0.5001,-1.30024 1.20022,-1.30024 z M 259.9476,28.905293 v 0 c 1.70031,0 3.20059,1.400256 3.20059,3.100568 0,1.800329 -1.50028,3.200586 -3.20059,3.200586 -1.80033,0 -3.20059,-1.400257 -3.20059,-3.200586 0,-1.700312 1.40026,-3.100568 3.20059,-3.100568 z m 0,-23.4042857 v 0 c 0.70013,0 1.30024,0.6001099 1.30024,1.3002381 0,0.7001282 -0.60011,1.3002381 -1.30024,1.3002381 -0.70013,0 -1.30024,-0.6001099 -1.30024,-1.3002381 0,-0.7001282 0.60011,-1.3002381 1.30024,-1.3002381 z m 0,48.6089007 v 0 c 1.70031,0 3.20059,1.400256 3.20059,3.200586 0,1.700311 -1.50028,3.100568 -3.20059,3.100568 -1.80033,0 -3.20059,-1.400257 -3.20059,-3.100568 0,-1.80033 1.40026,-3.200586 3.20059,-3.200586 z m 0,25.204615 v 0 c 1.70031,0 3.20059,1.500275 3.20059,3.200586 0,1.80033 -1.50028,3.200586 -3.20059,3.200586 -1.80033,0 -3.20059,-1.400256 -3.20059,-3.200586 0,-1.700311 1.40026,-3.200586 3.20059,-3.200586 z m 0,27.204977 v 0 c 0.70013,0 1.30024,0.60011 1.30024,1.30024 0,0.70013 -0.60011,1.20022 -1.30024,1.20022 -0.70013,0 -1.30024,-0.50009 -1.30024,-1.20022 0,-0.70013 0.60011,-1.30024 1.30024,-1.30024 z M 234.74298,28.905293 v 0 c 1.70032,0 3.10057,1.400256 3.10057,3.100568 0,1.800329 -1.40025,3.200586 -3.10057,3.200586 -1.80033,0 -3.20058,-1.400257 -3.20058,-3.200586 0,-1.700312 1.40025,-3.100568 3.20058,-3.100568 z m 0,-23.4042857 v 0 c 0.70013,0 1.20022,0.6001099 1.20022,1.3002381 0,0.7001282 -0.50009,1.3002381 -1.20022,1.3002381 -0.70012,0 -1.30023,-0.6001099 -1.30023,-1.3002381 0,-0.7001282 0.60011,-1.3002381 1.30023,-1.3002381 z m 0,48.6089007 v 0 c 1.70032,0 3.10057,1.400256 3.10057,3.200586 0,1.700311 -1.40025,3.100568 -3.10057,3.100568 -1.80033,0 -3.20058,-1.400257 -3.20058,-3.100568 0,-1.80033 1.40025,-3.200586 3.20058,-3.200586 z m 0,25.204615 v 0 c 1.70032,0 3.10057,1.500275 3.10057,3.200586 0,1.80033 -1.40025,3.200586 -3.10057,3.200586 -1.80033,0 -3.20058,-1.400256 -3.20058,-3.200586 0,-1.700311 1.40025,-3.200586 3.20058,-3.200586 z m 0,27.204977 v 0 c 0.70013,0 1.20022,0.60011 1.20022,1.30024 0,0.70013 -0.50009,1.20022 -1.20022,1.20022 -0.70012,0 -1.30023,-0.50009 -1.30023,-1.20022 0,-0.70013 0.60011,-1.30024 1.30023,-1.30024 z M 209.43835,30.805641 v 0 c 0.70013,0 1.30024,0.500091 1.30024,1.20022 0,0.700128 -0.60011,1.300238 -1.30024,1.300238 -0.70013,0 -1.30024,-0.60011 -1.30024,-1.300238 0,-0.700129 0.60011,-1.20022 1.30024,-1.20022 z m 0,-31.40575089 v 0 c 4.20077,0 7.60139,3.20058609 7.60139,7.40135529 0,4.2007696 -3.40062,7.5013736 -7.60139,7.5013736 -4.20077,0 -7.50137,-3.300604 -7.50137,-7.5013736 0,-4.2007692 3.3006,-7.40135529 7.50137,-7.40135529 z m 0,56.61036589 v 0 c 0.70013,0 1.30024,0.60011 1.30024,1.300238 0,0.700128 -0.60011,1.20022 -1.30024,1.20022 -0.70013,0 -1.30024,-0.500092 -1.30024,-1.20022 0,-0.700128 0.60011,-1.300238 1.30024,-1.300238 z m 0,25.204615 v 0 c 0.70013,0 1.30024,0.60011 1.30024,1.300238 0,0.700129 -0.60011,1.300238 -1.30024,1.300238 -0.70013,0 -1.30024,-0.600109 -1.30024,-1.300238 0,-0.700128 0.60011,-1.300238 1.30024,-1.300238 z m 0,19.003479 v 0 c 4.20077,0 7.60139,3.40062 7.60139,7.60139 0,4.10075 -3.40062,7.50138 -7.60139,7.50138 -4.20077,0 -7.50137,-3.40063 -7.50137,-7.50138 0,-4.20077 3.3006,-7.60139 7.50137,-7.60139 z M 386.17071,28.905293 v 0 c 1.70031,0 3.20059,1.400256 3.20059,3.100568 0,1.800329 -1.50028,3.200586 -3.20059,3.200586 -1.80033,0 -3.20058,-1.400257 -3.20058,-3.200586 0,-1.700312 1.40025,-3.100568 3.20058,-3.100568 z m 0,-23.4042857 v 0 c 0.70013,0 1.30024,0.6001099 1.30024,1.3002381 0,0.7001282 -0.60011,1.3002381 -1.30024,1.3002381 -0.70013,0 -1.30024,-0.6001099 -1.30024,-1.3002381 0,-0.7001282 0.60011,-1.3002381 1.30024,-1.3002381 z m 0,73.8135157 v 0 c 1.70031,0 3.20059,1.500275 3.20059,3.200586 0,1.80033 -1.50028,3.200586 -3.20059,3.200586 -1.80033,0 -3.20058,-1.400256 -3.20058,-3.200586 0,-1.700311 1.40025,-3.200586 3.20058,-3.200586 z m 0,-25.204615 v 0 c 1.70031,0 3.20059,1.400256 3.20059,3.200586 0,1.700311 -1.50028,3.100568 -3.20059,3.100568 -1.80033,0 -3.20058,-1.400257 -3.20058,-3.100568 0,-1.80033 1.40025,-3.200586 3.20058,-3.200586 z M 57.910604,125.22293 v 0 c 0.200037,0 0.500092,0.20004 0.500092,0.40007 0,0.30006 -0.300055,0.50009 -0.500092,0.50009 -0.300055,0 -0.500092,-0.20003 -0.500092,-0.50009 0,-0.20003 0.200037,-0.40007 0.500092,-0.40007 z M 360.9661,28.905293 v 0 c 1.70031,0 3.10056,1.400256 3.10056,3.100568 0,1.800329 -1.40025,3.200586 -3.10056,3.200586 -1.80033,0 -3.20059,-1.400257 -3.20059,-3.200586 0,-1.700312 1.40026,-3.100568 3.20059,-3.100568 z m 0,-23.4042857 v 0 c 0.70012,0 1.20022,0.6001099 1.20022,1.3002381 0,0.7001282 -0.5001,1.3002381 -1.20022,1.3002381 -0.70013,0 -1.30024,-0.6001099 -1.30024,-1.3002381 0,-0.7001282 0.60011,-1.3002381 1.30024,-1.3002381 z m 0,48.6089007 v 0 c 1.70031,0 3.10056,1.400256 3.10056,3.200586 0,1.700311 -1.40025,3.100568 -3.10056,3.100568 -1.80033,0 -3.20059,-1.400257 -3.20059,-3.100568 0,-1.80033 1.40026,-3.200586 3.20059,-3.200586 z m 0,25.204615 v 0 c 1.70031,0 3.10056,1.500275 3.10056,3.200586 0,1.80033 -1.40025,3.200586 -3.10056,3.200586 -1.80033,0 -3.20059,-1.400256 -3.20059,-3.200586 0,-1.700311 1.40026,-3.200586 3.20059,-3.200586 z m 0,27.204977 v 0 c 0.70012,0 1.20022,0.60011 1.20022,1.30024 0,0.70013 -0.5001,1.20022 -1.20022,1.20022 -0.70013,0 -1.30024,-0.50009 -1.30024,-1.20022 0,-0.70013 0.60011,-1.30024 1.30024,-1.30024 z M 335.66146,28.905293 v 0 c 1.80033,0 3.20059,1.400256 3.20059,3.100568 0,1.800329 -1.40026,3.200586 -3.20059,3.200586 -1.70031,0 -3.20058,-1.400257 -3.20058,-3.200586 0,-1.700312 1.50027,-3.100568 3.20058,-3.100568 z m 0,-23.4042857 v 0 c 0.70013,0 1.30024,0.6001099 1.30024,1.3002381 0,0.7001282 -0.60011,1.3002381 -1.30024,1.3002381 -0.70013,0 -1.30024,-0.6001099 -1.30024,-1.3002381 0,-0.7001282 0.60011,-1.3002381 1.30024,-1.3002381 z m 0,48.6089007 v 0 c 1.80033,0 3.20059,1.400256 3.20059,3.200586 0,1.700311 -1.40026,3.100568 -3.20059,3.100568 -1.70031,0 -3.20058,-1.400257 -3.20058,-3.100568 0,-1.80033 1.50027,-3.200586 3.20058,-3.200586 z m 0,25.204615 v 0 c 1.80033,0 3.20059,1.500275 3.20059,3.200586 0,1.80033 -1.40026,3.200586 -3.20059,3.200586 -1.70031,0 -3.20058,-1.400256 -3.20058,-3.200586 0,-1.700311 1.50027,-3.200586 3.20058,-3.200586 z m 0,27.204977 v 0 c 0.70013,0 1.30024,0.60011 1.30024,1.30024 0,0.70013 -0.60011,1.20022 -1.30024,1.20022 -0.70013,0 -1.30024,-0.50009 -1.30024,-1.20022 0,-0.70013 0.60011,-1.30024 1.30024,-1.30024 z M 310.45685,30.805641 v 0 c 0.70013,0 1.20022,0.500091 1.20022,1.20022 0,0.700128 -0.50009,1.300238 -1.20022,1.300238 -0.70013,0 -1.30024,-0.60011 -1.30024,-1.300238 0,-0.700129 0.60011,-1.20022 1.30024,-1.20022 z m 0,-31.40575089 v 0 c 4.10075,0 7.50137,3.20058609 7.50137,7.40135529 0,4.2007696 -3.40062,7.5013736 -7.50137,7.5013736 -4.20077,0 -7.60139,-3.300604 -7.60139,-7.5013736 0,-4.2007692 3.40062,-7.40135529 7.60139,-7.40135529 z m 0,56.61036589 v 0 c 0.70013,0 1.20022,0.60011 1.20022,1.300238 0,0.700128 -0.50009,1.20022 -1.20022,1.20022 -0.70013,0 -1.30024,-0.500092 -1.30024,-1.20022 0,-0.700128 0.60011,-1.300238 1.30024,-1.300238 z m 0,25.204615 v 0 c 0.70013,0 1.20022,0.60011 1.20022,1.300238 0,0.700129 -0.50009,1.300238 -1.20022,1.300238 -0.70013,0 -1.30024,-0.600109 -1.30024,-1.300238 0,-0.700128 0.60011,-1.300238 1.30024,-1.300238 z m 0,19.003479 v 0 c 4.10075,0 7.50137,3.40062 7.50137,7.60139 0,4.10075 -3.40062,7.50138 -7.50137,7.50138 -4.20077,0 -7.60139,-3.40063 -7.60139,-7.50138 0,-4.20077 3.40062,-7.60139 7.60139,-7.60139 z M 487.18921,28.905293 v 0 c 1.70031,0 3.10057,1.400256 3.10057,3.100568 0,1.800329 -1.40026,3.200586 -3.10057,3.200586 -1.80033,0 -3.20059,-1.400257 -3.20059,-3.200586 0,-1.700312 1.40026,-3.100568 3.20059,-3.100568 z m 0,-23.4042857 v 0 c 0.70013,0 1.20022,0.6001099 1.20022,1.3002381 0,0.7001282 -0.50009,1.3002381 -1.20022,1.3002381 -0.70013,0 -1.30024,-0.6001099 -1.30024,-1.3002381 0,-0.7001282 0.60011,-1.3002381 1.30024,-1.3002381 z m 0,48.6089007 v 0 c 1.70031,0 3.10057,1.400256 3.10057,3.200586 0,1.700311 -1.40026,3.100568 -3.10057,3.100568 -1.80033,0 -3.20059,-1.400257 -3.20059,-3.100568 0,-1.80033 1.40026,-3.200586 3.20059,-3.200586 z m 0,25.204615 v 0 c 1.70031,0 3.10057,1.500275 3.10057,3.200586 0,1.80033 -1.40026,3.200586 -3.10057,3.200586 -1.80033,0 -3.20059,-1.400256 -3.20059,-3.200586 0,-1.700311 1.40026,-3.200586 3.20059,-3.200586 z m 0,27.204977 v 0 c 0.70013,0 1.20022,0.60011 1.20022,1.30024 0,0.70013 -0.50009,1.20022 -1.20022,1.20022 -0.70013,0 -1.30024,-0.50009 -1.30024,-1.20022 0,-0.70013 0.60011,-1.30024 1.30024,-1.30024 z M 461.88458,28.905293 v 0 c 1.80033,0 3.20058,1.400256 3.20058,3.100568 0,1.800329 -1.40025,3.200586 -3.20058,3.200586 -1.70032,0 -3.20059,-1.400257 -3.20059,-3.200586 0,-1.700312 1.50027,-3.100568 3.20059,-3.100568 z m 0,-23.4042857 v 0 c 0.70012,0 1.30023,0.6001099 1.30023,1.3002381 0,0.7001282 -0.60011,1.3002381 -1.30023,1.3002381 -0.70013,0 -1.30024,-0.6001099 -1.30024,-1.3002381 0,-0.7001282 0.60011,-1.3002381 1.30024,-1.3002381 z m 0,48.6089007 v 0 c 1.80033,0 3.20058,1.400256 3.20058,3.200586 0,1.700311 -1.40025,3.100568 -3.20058,3.100568 -1.70032,0 -3.20059,-1.400257 -3.20059,-3.100568 0,-1.80033 1.50027,-3.200586 3.20059,-3.200586 z m 0,25.204615 v 0 c 1.80033,0 3.20058,1.500275 3.20058,3.200586 0,1.80033 -1.40025,3.200586 -3.20058,3.200586 -1.70032,0 -3.20059,-1.400256 -3.20059,-3.200586 0,-1.700311 1.50027,-3.200586 3.20059,-3.200586 z m 0,27.204977 v 0 c 0.70012,0 1.30023,0.60011 1.30023,1.30024 0,0.70013 -0.60011,1.20022 -1.30023,1.20022 -0.70013,0 -1.30024,-0.50009 -1.30024,-1.20022 0,-0.70013 0.60011,-1.30024 1.30024,-1.30024 z M 436.67996,28.905293 v 0 c 1.70031,0 3.10057,1.400256 3.10057,3.100568 0,1.800329 -1.40026,3.200586 -3.10057,3.200586 -1.80033,0 -3.20059,-1.400257 -3.20059,-3.200586 0,-1.700312 1.40026,-3.100568 3.20059,-3.100568 z m 0,-23.4042857 v 0 c 0.70013,0 1.20022,0.6001099 1.20022,1.3002381 0,0.7001282 -0.50009,1.3002381 -1.20022,1.3002381 -0.70013,0 -1.30024,-0.6001099 -1.30024,-1.3002381 0,-0.7001282 0.60011,-1.3002381 1.30024,-1.3002381 z m 0,48.6089007 v 0 c 1.70031,0 3.10057,1.400256 3.10057,3.200586 0,1.700311 -1.40026,3.100568 -3.10057,3.100568 -1.80033,0 -3.20059,-1.400257 -3.20059,-3.100568 0,-1.80033 1.40026,-3.200586 3.20059,-3.200586 z m 0,25.204615 v 0 c 1.70031,0 3.10057,1.500275 3.10057,3.200586 0,1.80033 -1.40026,3.200586 -3.10057,3.200586 -1.80033,0 -3.20059,-1.400256 -3.20059,-3.200586 0,-1.700311 1.40026,-3.200586 3.20059,-3.200586 z M 386.17071,106.5195 v 0 c 0.70013,0 1.30024,0.60011 1.30024,1.30024 0,0.70013 -0.60011,1.20022 -1.30024,1.20022 -0.70013,0 -1.30024,-0.50009 -1.30024,-1.20022 0,-0.70013 0.60011,-1.30024 1.30024,-1.30024 z m 50.50925,0 v 0 c 0.70013,0 1.20022,0.60011 1.20022,1.30024 0,0.70013 -0.50009,1.20022 -1.20022,1.20022 -0.70013,0 -1.30024,-0.50009 -1.30024,-1.20022 0,-0.70013 0.60011,-1.30024 1.30024,-1.30024 z m 75.71386,-75.713859 v 0 c 0.70013,0 1.30024,0.500091 1.30024,1.20022 0,0.700128 -0.60011,1.300238 -1.30024,1.300238 -0.70012,0 -1.30023,-0.60011 -1.30023,-1.300238 0,-0.700129 0.60011,-1.20022 1.30023,-1.20022 z m 0,-31.40575089 v 0 c 4.20077,0 7.50138,3.20058609 7.50138,7.40135529 0,4.2007696 -3.30061,7.5013736 -7.50138,7.5013736 -4.20076,0 -7.60139,-3.300604 -7.60139,-7.5013736 0,-4.2007692 3.40063,-7.40135529 7.60139,-7.40135529 z m 0,56.61036589 v 0 c 0.70013,0 1.30024,0.60011 1.30024,1.300238 0,0.700128 -0.60011,1.20022 -1.30024,1.20022 -0.70012,0 -1.30023,-0.500092 -1.30023,-1.20022 0,-0.700128 0.60011,-1.300238 1.30023,-1.300238 z m 0,25.204615 v 0 c 0.70013,0 1.30024,0.60011 1.30024,1.300238 0,0.700129 -0.60011,1.300238 -1.30024,1.300238 -0.70012,0 -1.30023,-0.600109 -1.30023,-1.300238 0,-0.700128 0.60011,-1.300238 1.30023,-1.300238 z m 0,19.003479 v 0 c 4.20077,0 7.50138,3.40062 7.50138,7.60139 0,4.10075 -3.30061,7.50138 -7.50138,7.50138 -4.20076,0 -7.60139,-3.40063 -7.60139,-7.50138 0,-4.20077 3.40063,-7.60139 7.60139,-7.60139 z M 411.37533,30.805641 v 0 c 0.70013,0 1.30024,0.500091 1.30024,1.20022 0,0.700128 -0.60011,1.300238 -1.30024,1.300238 -0.70013,0 -1.20022,-0.60011 -1.20022,-1.300238 0,-0.700129 0.50009,-1.20022 1.20022,-1.20022 z m 0,-31.40575089 v 0 c 4.20077,0 7.60139,3.20058609 7.60139,7.40135529 0,4.2007696 -3.40062,7.5013736 -7.60139,7.5013736 -4.10075,0 -7.50138,-3.300604 -7.50138,-7.5013736 0,-4.2007692 3.40063,-7.40135529 7.50138,-7.40135529 z m 0,56.61036589 v 0 c 0.70013,0 1.30024,0.60011 1.30024,1.300238 0,0.700128 -0.60011,1.20022 -1.30024,1.20022 -0.70013,0 -1.20022,-0.500092 -1.20022,-1.20022 0,-0.700128 0.50009,-1.300238 1.20022,-1.300238 z m 0,25.204615 v 0 c 0.70013,0 1.30024,0.60011 1.30024,1.300238 0,0.700129 -0.60011,1.300238 -1.30024,1.300238 -0.70013,0 -1.20022,-0.600109 -1.20022,-1.300238 0,-0.700128 0.50009,-1.300238 1.20022,-1.300238 z m 0,19.003479 v 0 c 4.20077,0 7.60139,3.40062 7.60139,7.60139 0,4.10075 -3.40062,7.50138 -7.60139,7.50138 -4.10075,0 -7.50138,-3.40063 -7.50138,-7.50138 0,-4.20077 3.40063,-7.60139 7.50138,-7.60139 z" /><rect
       style="fill:none;stroke:#ffffff;stroke-width:0.5;stroke-dasharray:6, 6;stroke-dashoffset:2.5"
       id="rect5375"
       width="72.246742"
       height="72.246742"
       x="293.3002"
       y="84.224503" /><path
       style="fill:none;stroke:#ffffff;stroke-width:0.499999;stroke-dasharray:6.00001, 6.00001;stroke-dashoffset:2.5"
       d="m 293.20515,120.34787 h 72.43686"
       id="path6166" /><path
       style="fill:none;stroke:#ffffff;stroke-width:0.499999;stroke-dasharray:6.00001, 6.00001;stroke-dashoffset:2.5"
       d="M 329.42358,84.129442 V 156.56631"
       id="path6168" /></g></svg>
