<?xml version="1.0" encoding="utf-8" standalone="no"?>
<!DOCTYPE svg PUBLIC "-//W3C//DTD SVG 1.1//EN"
  "http://www.w3.org/Graphics/SVG/1.1/DTD/svg11.dtd">
<!-- Created with matplotlib (https://matplotlib.org/) -->
<svg height="345.6pt" version="1.1" viewBox="0 0 720 345.6" width="720pt" xmlns="http://www.w3.org/2000/svg" xmlns:xlink="http://www.w3.org/1999/xlink">
 <metadata>
  <rdf:RDF xmlns:cc="http://creativecommons.org/ns#" xmlns:dc="http://purl.org/dc/elements/1.1/" xmlns:rdf="http://www.w3.org/1999/02/22-rdf-syntax-ns#">
   <cc:Work>
    <dc:type rdf:resource="http://purl.org/dc/dcmitype/StillImage"/>
    <dc:date>2022-08-17T14:59:03.010283</dc:date>
    <dc:format>image/svg+xml</dc:format>
    <dc:creator>
     <cc:Agent>
      <dc:title>Matplotlib v3.3.4, https://matplotlib.org/</dc:title>
     </cc:Agent>
    </dc:creator>
   </cc:Work>
  </rdf:RDF>
 </metadata>
 <defs>
  <style type="text/css">*{stroke-linecap:butt;stroke-linejoin:round;}</style>
 </defs>
 <g id="figure_1">
  <g id="patch_1">
   <path d="M 0 345.6 
L 720 345.6 
L 720 0 
L 0 0 
z
" style="fill:none;"/>
  </g>
  <g id="axes_1">
   <g id="patch_2">
    <path d="M 206.110689 153.734949 
L 700.56 153.734949 
L 700.56 19.44 
L 206.110689 19.44 
z
" style="fill:none;"/>
   </g>
   <g id="patch_3">
    <path clip-path="url(#p8296bd54ec)" d="M 228.585658 153.734949 
L 281.467937 153.734949 
L 281.467937 25.834998 
L 228.585658 25.834998 
z
" style="fill:#8dd3c7;"/>
   </g>
   <g id="patch_4">
    <path clip-path="url(#p8296bd54ec)" d="M 294.688507 153.734949 
L 347.570786 153.734949 
L 347.570786 40.791814 
L 294.688507 40.791814 
z
" style="fill:#feffb3;"/>
   </g>
   <g id="patch_5">
    <path clip-path="url(#p8296bd54ec)" d="M 360.791356 153.734949 
L 413.673635 153.734949 
L 413.673635 80.676656 
L 360.791356 80.676656 
z
" style="fill:#bfbbd9;"/>
   </g>
   <g id="patch_6">
    <path clip-path="url(#p8296bd54ec)" d="M 426.894205 153.734949 
L 479.776484 153.734949 
L 479.776484 107.905731 
L 426.894205 107.905731 
z
" style="fill:#fa8174;"/>
   </g>
   <g id="patch_7">
    <path clip-path="url(#p8296bd54ec)" d="M 492.997054 153.734949 
L 545.879333 153.734949 
L 545.879333 149.899868 
L 492.997054 149.899868 
z
" style="fill:#81b1d2;"/>
   </g>
   <g id="patch_8">
    <path clip-path="url(#p8296bd54ec)" d="M 559.099903 153.734949 
L 611.982182 153.734949 
L 611.982182 100.619077 
L 559.099903 100.619077 
z
" style="fill:#fdb462;"/>
   </g>
   <g id="patch_9">
    <path clip-path="url(#p8296bd54ec)" d="M 625.202752 153.734949 
L 678.085031 153.734949 
L 678.085031 153.351441 
L 625.202752 153.351441 
z
" style="fill:#b3de69;"/>
   </g>
   <g id="matplotlib.axis_1">
    <g id="xtick_1">
     <g id="line2d_1">
      <defs>
       <path d="M 0 0 
L 0 3.5 
" id="m23382e1027" style="stroke:#000000;stroke-width:0.8;"/>
      </defs>
      <g>
       <use style="fill:#000000;stroke:#000000;stroke-width:0.8;" x="255.026798" xlink:href="#m23382e1027" y="153.734949"/>
      </g>
     </g>
     <g id="text_1">
      <!-- Non-crosslisted preprints in 2021 -->
      <g style="fill:#000000;" transform="translate(20.344785 307.739774)rotate(-30)scale(0.18 -0.18)">
       <defs>
        <path d="M 9.03125 0 
L 9.03125 80.515625 
L 64.015625 23 
L 64.015625 75.390625 
L 75.390625 75.390625 
L 75.390625 -4.59375 
L 20.40625 52.78125 
L 20.40625 0 
z
" id="Futura-Medium-78"/>
        <path d="M 4.6875 24.125 
Q 4.6875 34.421875 12.0625 41.640625 
Q 19.4375 48.875 30.03125 48.875 
Q 40.671875 48.875 48.09375 41.609375 
Q 55.421875 34.328125 55.421875 23.734375 
Q 55.421875 13.03125 48.046875 5.8125 
Q 40.625 -1.375 29.828125 -1.375 
Q 19.140625 -1.375 11.921875 5.953125 
Q 4.6875 13.1875 4.6875 24.125 
z
M 15.921875 23.921875 
Q 15.921875 16.796875 19.734375 12.640625 
Q 23.640625 8.453125 30.03125 8.453125 
Q 36.46875 8.453125 40.328125 12.59375 
Q 44.1875 16.75 44.1875 23.6875 
Q 44.1875 30.609375 40.328125 34.765625 
Q 36.421875 38.96875 30.03125 38.96875 
Q 23.734375 38.96875 19.828125 34.765625 
Q 15.921875 30.5625 15.921875 23.921875 
z
" id="Futura-Medium-111"/>
        <path d="M 6.9375 47.5625 
L 17.96875 47.5625 
L 17.96875 43.171875 
Q 23.734375 48.875 30.953125 48.875 
Q 39.265625 48.875 43.890625 43.65625 
Q 47.90625 39.203125 47.90625 29.15625 
L 47.90625 0 
L 36.859375 0 
L 36.859375 26.5625 
Q 36.859375 33.59375 34.90625 36.28125 
Q 33.015625 39.015625 27.984375 39.015625 
Q 22.515625 39.015625 20.21875 35.40625 
Q 17.96875 31.84375 17.96875 22.953125 
L 17.96875 0 
L 6.9375 0 
z
" id="Futura-Medium-110"/>
        <path d="M 0 28.953125 
L 21.78125 28.953125 
L 21.78125 19.390625 
L 0 19.390625 
z
" id="Futura-Medium-45"/>
        <path d="M 43.953125 45.515625 
L 43.953125 30.90625 
Q 40.1875 35.5 37.203125 37.203125 
Q 34.28125 38.96875 30.328125 38.96875 
Q 24.125 38.96875 20.015625 34.625 
Q 15.921875 30.28125 15.921875 23.734375 
Q 15.921875 17.046875 19.875 12.75 
Q 23.875 8.453125 30.078125 8.453125 
Q 34.03125 8.453125 37.0625 10.15625 
Q 39.984375 11.8125 43.953125 16.609375 
L 43.953125 2.09375 
Q 37.25 -1.375 30.5625 -1.375 
Q 19.53125 -1.375 12.109375 5.765625 
Q 4.6875 12.9375 4.6875 23.578125 
Q 4.6875 34.234375 12.203125 41.546875 
Q 19.734375 48.875 30.671875 48.875 
Q 37.703125 48.875 43.953125 45.515625 
z
" id="Futura-Medium-99"/>
        <path d="M 6.9375 47.5625 
L 17.921875 47.5625 
L 17.921875 43.3125 
Q 20.953125 46.484375 23.296875 47.65625 
Q 25.6875 48.875 28.953125 48.875 
Q 33.296875 48.875 38.03125 46.046875 
L 33.015625 35.984375 
Q 29.890625 38.234375 26.90625 38.234375 
Q 17.921875 38.234375 17.921875 24.65625 
L 17.921875 0 
L 6.9375 0 
z
" id="Futura-Medium-114"/>
        <path d="M 34.578125 39.453125 
L 25.484375 34.625 
Q 23.34375 39.015625 20.171875 39.015625 
Q 18.65625 39.015625 17.578125 38.015625 
Q 16.5 37.015625 16.5 35.453125 
Q 16.5 32.71875 22.859375 30.03125 
Q 31.59375 26.265625 34.609375 23.09375 
Q 37.640625 19.921875 37.640625 14.546875 
Q 37.640625 7.671875 32.5625 3.03125 
Q 27.640625 -1.375 20.65625 -1.375 
Q 8.6875 -1.375 3.71875 10.296875 
L 13.09375 14.65625 
Q 15.046875 11.234375 16.0625 10.296875 
Q 18.0625 8.453125 20.84375 8.453125 
Q 26.421875 8.453125 26.421875 13.53125 
Q 26.421875 16.453125 22.125 19 
Q 20.453125 19.828125 18.796875 20.609375 
Q 17.140625 21.390625 15.4375 22.21875 
Q 10.640625 24.5625 8.6875 26.90625 
Q 6.203125 29.890625 6.203125 34.578125 
Q 6.203125 40.765625 10.453125 44.828125 
Q 14.796875 48.875 21 48.875 
Q 30.125 48.875 34.578125 39.453125 
z
" id="Futura-Medium-115"/>
        <path d="M 17.921875 82.46875 
L 17.921875 0 
L 6.9375 0 
L 6.9375 82.46875 
z
" id="Futura-Medium-108"/>
        <path d="M 17.921875 47.5625 
L 17.921875 0 
L 6.9375 0 
L 6.9375 47.5625 
z
M 5.28125 67.328125 
Q 5.28125 70.21875 7.375 72.3125 
Q 9.46875 74.421875 12.40625 74.421875 
Q 15.375 74.421875 17.484375 72.3125 
Q 19.578125 70.265625 19.578125 67.28125 
Q 19.578125 64.3125 17.484375 62.203125 
Q 15.4375 60.109375 12.453125 60.109375 
Q 9.46875 60.109375 7.375 62.203125 
Q 5.28125 64.3125 5.28125 67.328125 
z
" id="Futura-Medium-105"/>
        <path d="M 18.265625 37.3125 
L 18.265625 0 
L 7.28125 0 
L 7.28125 37.3125 
L 2.59375 37.3125 
L 2.59375 47.5625 
L 7.28125 47.5625 
L 7.28125 64.984375 
L 18.265625 64.984375 
L 18.265625 47.5625 
L 26.8125 47.5625 
L 26.8125 37.3125 
z
" id="Futura-Medium-116"/>
        <path d="M 50.25 21.1875 
L 16.15625 21.1875 
Q 16.609375 15.328125 19.96875 11.859375 
Q 23.34375 8.453125 28.609375 8.453125 
Q 32.71875 8.453125 35.40625 10.40625 
Q 38.03125 12.359375 41.40625 17.625 
L 50.6875 12.453125 
Q 48.53125 8.796875 46.140625 6.171875 
Q 43.75 3.5625 41.015625 1.875 
Q 38.28125 0.203125 35.109375 -0.578125 
Q 31.9375 -1.375 28.21875 -1.375 
Q 17.578125 -1.375 11.140625 5.46875 
Q 4.6875 12.359375 4.6875 23.734375 
Q 4.6875 35.015625 10.9375 42 
Q 17.234375 48.875 27.640625 48.875 
Q 38.140625 48.875 44.234375 42.1875 
Q 50.296875 35.546875 50.296875 23.78125 
z
M 38.96875 30.171875 
Q 36.671875 38.96875 27.875 38.96875 
Q 25.875 38.96875 24.109375 38.359375 
Q 22.359375 37.75 20.921875 36.59375 
Q 19.484375 35.453125 18.453125 33.84375 
Q 17.4375 32.234375 16.890625 30.171875 
z
" id="Futura-Medium-101"/>
        <path d="M 42 82.46875 
L 53.03125 82.46875 
L 53.03125 0 
L 42 0 
L 42 4.984375 
Q 35.5 -1.375 27.296875 -1.375 
Q 17.53125 -1.375 11.078125 5.765625 
Q 4.6875 13.03125 4.6875 23.921875 
Q 4.6875 34.578125 11.078125 41.703125 
Q 17.4375 48.875 27.046875 48.875 
Q 35.40625 48.875 42 42.046875 
z
M 15.921875 23.921875 
Q 15.921875 17.09375 19.578125 12.796875 
Q 23.34375 8.453125 29.046875 8.453125 
Q 35.15625 8.453125 38.921875 12.640625 
Q 42.671875 17 42.671875 23.6875 
Q 42.671875 30.375 38.921875 34.71875 
Q 35.15625 38.96875 29.15625 38.96875 
Q 23.484375 38.96875 19.671875 34.671875 
Q 15.921875 30.328125 15.921875 23.921875 
z
" id="Futura-Medium-100"/>
        <path id="Futura-Medium-32"/>
        <path d="M 17.921875 -25.875 
L 6.9375 -25.875 
L 6.9375 47.5625 
L 17.921875 47.5625 
L 17.921875 42.390625 
Q 24.421875 48.875 32.671875 48.875 
Q 42.484375 48.875 48.828125 41.65625 
Q 55.28125 34.46875 55.28125 23.53125 
Q 55.28125 12.84375 48.875 5.71875 
Q 42.53125 -1.375 32.859375 -1.375 
Q 24.515625 -1.375 17.921875 5.328125 
z
M 44.046875 23.484375 
Q 44.046875 30.328125 40.328125 34.625 
Q 36.578125 38.96875 30.859375 38.96875 
Q 24.8125 38.96875 21.046875 34.765625 
Q 17.28125 30.5625 17.28125 23.734375 
Q 17.28125 17.046875 21.046875 12.703125 
Q 24.75 8.453125 30.8125 8.453125 
Q 36.53125 8.453125 40.234375 12.75 
Q 44.046875 17.046875 44.046875 23.484375 
z
" id="Futura-Medium-112"/>
        <path d="M 25.046875 10.6875 
L 53.125 10.6875 
L 53.125 0 
L 2.484375 0 
L 28.65625 31.6875 
Q 32.515625 36.421875 35.125 39.890625 
Q 37.75 43.359375 39.109375 45.703125 
Q 41.890625 50.296875 41.890625 53.953125 
Q 41.890625 59.234375 38.171875 62.796875 
Q 34.46875 66.359375 29 66.359375 
Q 17.578125 66.359375 15.921875 52.828125 
L 4.59375 52.828125 
Q 7.328125 76.65625 28.65625 76.65625 
Q 38.96875 76.65625 45.953125 70.125 
Q 52.984375 63.578125 52.984375 53.90625 
Q 52.984375 47.75 49.703125 41.84375 
Q 48.046875 38.765625 44.84375 34.546875 
Q 41.65625 30.328125 36.765625 24.5625 
z
" id="Futura-Medium-50"/>
        <path d="M 4.25 38.1875 
Q 4.25 56.203125 12.640625 66.9375 
Q 20.171875 76.65625 30.859375 76.65625 
Q 41.546875 76.65625 49.078125 66.9375 
Q 57.46875 56.203125 57.46875 37.703125 
Q 57.46875 19.234375 49.078125 8.5 
Q 41.546875 -1.21875 30.90625 -1.21875 
Q 20.265625 -1.21875 12.640625 8.5 
Q 4.25 19.234375 4.25 38.1875 
z
M 15.4375 38.140625 
Q 15.4375 25.59375 19.78125 17.28125 
Q 24.125 9.125 30.859375 9.125 
Q 37.546875 9.125 41.9375 17.28125 
Q 46.34375 25.390625 46.34375 37.75 
Q 46.34375 50.09375 41.9375 58.25 
Q 37.546875 66.359375 30.859375 66.359375 
Q 24.21875 66.359375 19.828125 58.25 
Q 15.4375 50.203125 15.4375 38.140625 
z
" id="Futura-Medium-48"/>
        <path d="M 27.09375 64.75 
L 14.0625 64.75 
L 20.3125 75.390625 
L 38.484375 75.390625 
L 38.484375 0 
L 27.09375 0 
z
" id="Futura-Medium-49"/>
       </defs>
       <use xlink:href="#Futura-Medium-78"/>
       <use x="85.048828" xlink:href="#Futura-Medium-111"/>
       <use x="145.15625" xlink:href="#Futura-Medium-110"/>
       <use x="199.990234" xlink:href="#Futura-Medium-45"/>
       <use x="221.767578" xlink:href="#Futura-Medium-99"/>
       <use x="269.423828" xlink:href="#Futura-Medium-114"/>
       <use x="305.951172" xlink:href="#Futura-Medium-111"/>
       <use x="366.058594" xlink:href="#Futura-Medium-115"/>
       <use x="406.634766" xlink:href="#Futura-Medium-115"/>
       <use x="447.210938" xlink:href="#Futura-Medium-108"/>
       <use x="472.113281" xlink:href="#Futura-Medium-105"/>
       <use x="497.015625" xlink:href="#Futura-Medium-115"/>
       <use x="537.591797" xlink:href="#Futura-Medium-116"/>
       <use x="565.810547" xlink:href="#Futura-Medium-101"/>
       <use x="621.132812" xlink:href="#Futura-Medium-100"/>
       <use x="681.09375" xlink:href="#Futura-Medium-32"/>
       <use x="711.953125" xlink:href="#Futura-Medium-112"/>
       <use x="771.914062" xlink:href="#Futura-Medium-114"/>
       <use x="808.691406" xlink:href="#Futura-Medium-101"/>
       <use x="864.013672" xlink:href="#Futura-Medium-112"/>
       <use x="923.974609" xlink:href="#Futura-Medium-114"/>
       <use x="962.876953" xlink:href="#Futura-Medium-105"/>
       <use x="987.779297" xlink:href="#Futura-Medium-110"/>
       <use x="1042.613281" xlink:href="#Futura-Medium-116"/>
       <use x="1069.957031" xlink:href="#Futura-Medium-115"/>
       <use x="1110.533203" xlink:href="#Futura-Medium-32"/>
       <use x="1141.392578" xlink:href="#Futura-Medium-105"/>
       <use x="1166.294922" xlink:href="#Futura-Medium-110"/>
       <use x="1221.128906" xlink:href="#Futura-Medium-32"/>
       <use x="1251.988281" xlink:href="#Futura-Medium-50"/>
       <use x="1313.707031" xlink:href="#Futura-Medium-48"/>
       <use x="1375.425781" xlink:href="#Futura-Medium-50"/>
       <use x="1428.769531" xlink:href="#Futura-Medium-49"/>
      </g>
     </g>
    </g>
    <g id="xtick_2">
     <g id="line2d_2">
      <g>
       <use style="fill:#000000;stroke:#000000;stroke-width:0.8;" x="321.129647" xlink:href="#m23382e1027" y="153.734949"/>
      </g>
     </g>
     <g id="text_2">
      <!-- Generated numerical data -->
      <g style="fill:#000000;" transform="translate(131.749152 281.58493)rotate(-30)scale(0.18 -0.18)">
       <defs>
        <path d="M 47.796875 39.265625 
L 78.953125 39.265625 
L 78.953125 36.765625 
Q 78.953125 28.265625 76.953125 21.734375 
Q 75 15.671875 70.359375 10.40625 
Q 59.859375 -1.421875 43.65625 -1.421875 
Q 27.828125 -1.421875 16.546875 10.015625 
Q 5.28125 21.484375 5.28125 37.546875 
Q 5.28125 53.953125 16.75 65.375 
Q 28.21875 76.859375 44.671875 76.859375 
Q 53.515625 76.859375 61.1875 73.25 
Q 68.5 69.625 75.59375 61.53125 
L 67.484375 53.765625 
Q 58.203125 66.109375 44.875 66.109375 
Q 32.90625 66.109375 24.8125 57.859375 
Q 16.703125 49.75 16.703125 37.546875 
Q 16.703125 24.953125 25.734375 16.796875 
Q 34.1875 9.234375 44.046875 9.234375 
Q 52.4375 9.234375 59.125 14.890625 
Q 65.828125 20.609375 66.609375 28.5625 
L 47.796875 28.5625 
z
" id="Futura-Medium-71"/>
        <path d="M 42 47.5625 
L 53.03125 47.5625 
L 53.03125 0 
L 42 0 
L 42 4.984375 
Q 35.203125 -1.375 27.390625 -1.375 
Q 17.53125 -1.375 11.078125 5.765625 
Q 4.6875 13.03125 4.6875 23.921875 
Q 4.6875 34.625 11.078125 41.75 
Q 17.484375 48.875 27.09375 48.875 
Q 35.40625 48.875 42 42.046875 
z
M 15.921875 23.921875 
Q 15.921875 17.09375 19.578125 12.796875 
Q 23.34375 8.453125 29.046875 8.453125 
Q 35.15625 8.453125 38.921875 12.640625 
Q 42.671875 17 42.671875 23.6875 
Q 42.671875 30.375 38.921875 34.71875 
Q 35.15625 38.96875 29.15625 38.96875 
Q 23.484375 38.96875 19.671875 34.671875 
Q 15.921875 30.328125 15.921875 23.921875 
z
" id="Futura-Medium-97"/>
        <path d="M 17.921875 47.5625 
L 17.921875 20.265625 
Q 17.921875 8.453125 27.25 8.453125 
Q 36.578125 8.453125 36.578125 20.265625 
L 36.578125 47.5625 
L 47.5625 47.5625 
L 47.5625 20.015625 
Q 47.5625 14.3125 46.140625 10.15625 
Q 44.78125 6.453125 41.40625 3.46875 
Q 35.84375 -1.375 27.25 -1.375 
Q 18.703125 -1.375 13.140625 3.46875 
Q 9.71875 6.453125 8.296875 10.15625 
Q 6.9375 13.484375 6.9375 20.015625 
L 6.9375 47.5625 
z
" id="Futura-Medium-117"/>
        <path d="M 6.9375 47.5625 
L 17.921875 47.5625 
L 17.921875 43.171875 
Q 21.09375 46.484375 23.34375 47.65625 
Q 25.734375 48.875 29.34375 48.875 
Q 37.40625 48.875 42.09375 41.84375 
Q 47.265625 48.875 56.109375 48.875 
Q 72.171875 48.875 72.171875 29.390625 
L 72.171875 0 
L 61.140625 0 
L 61.140625 26.421875 
Q 61.140625 33.25 59.46875 36.078125 
Q 57.765625 38.96875 53.859375 38.96875 
Q 49.3125 38.96875 47.234375 35.546875 
Q 45.171875 32.125 45.171875 24.5625 
L 45.171875 0 
L 34.125 0 
L 34.125 26.265625 
Q 34.125 38.96875 26.8125 38.96875 
Q 22.171875 38.96875 20.046875 35.5 
Q 17.921875 32.03125 17.921875 24.5625 
L 17.921875 0 
L 6.9375 0 
z
" id="Futura-Medium-109"/>
       </defs>
       <use xlink:href="#Futura-Medium-71"/>
       <use x="84.228516" xlink:href="#Futura-Medium-101"/>
       <use x="139.550781" xlink:href="#Futura-Medium-110"/>
       <use x="194.384766" xlink:href="#Futura-Medium-101"/>
       <use x="249.707031" xlink:href="#Futura-Medium-114"/>
       <use x="286.484375" xlink:href="#Futura-Medium-97"/>
       <use x="346.445312" xlink:href="#Futura-Medium-116"/>
       <use x="374.664062" xlink:href="#Futura-Medium-101"/>
       <use x="429.986328" xlink:href="#Futura-Medium-100"/>
       <use x="489.947266" xlink:href="#Futura-Medium-32"/>
       <use x="520.806641" xlink:href="#Futura-Medium-110"/>
       <use x="575.640625" xlink:href="#Futura-Medium-117"/>
       <use x="630.132812" xlink:href="#Futura-Medium-109"/>
       <use x="709.234375" xlink:href="#Futura-Medium-101"/>
       <use x="764.556641" xlink:href="#Futura-Medium-114"/>
       <use x="803.458984" xlink:href="#Futura-Medium-105"/>
       <use x="828.361328" xlink:href="#Futura-Medium-99"/>
       <use x="876.017578" xlink:href="#Futura-Medium-97"/>
       <use x="935.978516" xlink:href="#Futura-Medium-108"/>
       <use x="960.880859" xlink:href="#Futura-Medium-32"/>
       <use x="991.740234" xlink:href="#Futura-Medium-100"/>
       <use x="1051.701172" xlink:href="#Futura-Medium-97"/>
       <use x="1111.662109" xlink:href="#Futura-Medium-116"/>
       <use x="1139.880859" xlink:href="#Futura-Medium-97"/>
      </g>
     </g>
    </g>
    <g id="xtick_3">
     <g id="line2d_3">
      <g>
       <use style="fill:#000000;stroke:#000000;stroke-width:0.8;" x="387.232496" xlink:href="#m23382e1027" y="153.734949"/>
      </g>
     </g>
     <g id="text_3">
      <!-- Acknowledges an HPC centre -->
      <g style="fill:#000000;" transform="translate(175.538485 294.461961)rotate(-30)scale(0.18 -0.18)">
       <defs>
        <path d="M 53.328125 18.3125 
L 21.046875 18.3125 
L 12.640625 0 
L 0.390625 0 
L 37.703125 80.125 
L 73.6875 0 
L 61.234375 0 
z
M 48.6875 29 
L 37.5 54.640625 
L 25.78125 29 
z
" id="Futura-Medium-65"/>
        <path d="M 17.921875 82.46875 
L 17.921875 32.171875 
L 33.40625 47.5625 
L 48.140625 47.5625 
L 27.484375 27.59375 
L 49.65625 0 
L 35.40625 0 
L 19.671875 20.0625 
L 17.921875 18.3125 
L 17.921875 0 
L 6.9375 0 
L 6.9375 82.46875 
z
" id="Futura-Medium-107"/>
        <path d="M 12.890625 47.5625 
L 25.34375 20.40625 
L 38.765625 51.90625 
L 52.296875 20.40625 
L 64.59375 47.5625 
L 76.90625 47.5625 
L 52 -3.5625 
L 38.765625 27.046875 
L 25.390625 -3.5625 
L 0.53125 47.5625 
z
" id="Futura-Medium-119"/>
        <path d="M 52.9375 1.125 
Q 52.9375 -2.25 52.703125 -4.8125 
Q 52.484375 -7.375 52.09375 -9.328125 
Q 50.921875 -14.703125 47.515625 -18.5625 
Q 41.0625 -25.984375 29.78125 -25.984375 
Q 20.265625 -25.984375 14.109375 -20.84375 
Q 7.765625 -15.578125 6.78125 -6.25 
L 17.828125 -6.25 
Q 18.453125 -9.765625 19.921875 -11.671875 
Q 23.34375 -16.109375 29.890625 -16.109375 
Q 41.9375 -16.109375 41.9375 -1.3125 
L 41.9375 5.328125 
Q 35.40625 -1.375 26.859375 -1.375 
Q 17.140625 -1.375 10.9375 5.671875 
Q 4.6875 12.796875 4.6875 23.484375 
Q 4.6875 33.890625 10.5 41.15625 
Q 16.75 48.875 27 48.875 
Q 35.984375 48.875 41.9375 42.1875 
L 41.9375 47.5625 
L 52.9375 47.5625 
z
M 42.390625 23.6875 
Q 42.390625 30.609375 38.671875 34.765625 
Q 34.90625 39.015625 29.046875 39.015625 
Q 22.796875 39.015625 19.1875 34.375 
Q 15.921875 30.21875 15.921875 23.640625 
Q 15.921875 17.140625 19.1875 12.984375 
Q 22.75 8.453125 29.046875 8.453125 
Q 35.359375 8.453125 39.015625 13.03125 
Q 42.390625 17.1875 42.390625 23.6875 
z
" id="Futura-Medium-103"/>
        <path d="M 20.40625 45.90625 
L 52.9375 45.90625 
L 52.9375 75.390625 
L 64.3125 75.390625 
L 64.3125 0 
L 52.9375 0 
L 52.9375 35.203125 
L 20.40625 35.203125 
L 20.40625 0 
L 9.03125 0 
L 9.03125 75.390625 
L 20.40625 75.390625 
z
" id="Futura-Medium-72"/>
        <path d="M 20.40625 30.609375 
L 20.40625 0 
L 9.03125 0 
L 9.03125 75.390625 
L 21.921875 75.390625 
Q 31.390625 75.390625 36.234375 74.078125 
Q 41.109375 72.75 44.828125 69.09375 
Q 51.3125 62.75 51.3125 53.078125 
Q 51.3125 42.71875 44.375 36.65625 
Q 37.453125 30.609375 25.6875 30.609375 
z
M 20.40625 41.15625 
L 24.65625 41.15625 
Q 40.328125 41.15625 40.328125 53.21875 
Q 40.328125 64.890625 24.171875 64.890625 
L 20.40625 64.890625 
z
" id="Futura-Medium-80"/>
        <path d="M 64.75 71.34375 
L 64.75 57.859375 
Q 54.890625 66.109375 44.34375 66.109375 
Q 32.71875 66.109375 24.75 57.765625 
Q 16.75 49.46875 16.75 37.453125 
Q 16.75 25.59375 24.75 17.4375 
Q 32.765625 9.28125 44.390625 9.28125 
Q 50.390625 9.28125 54.59375 11.234375 
Q 56.9375 12.203125 59.453125 13.859375 
Q 61.96875 15.53125 64.75 17.875 
L 64.75 4.15625 
Q 54.984375 -1.375 44.234375 -1.375 
Q 28.078125 -1.375 16.65625 9.90625 
Q 5.28125 21.296875 5.28125 37.359375 
Q 5.28125 51.765625 14.796875 63.03125 
Q 26.515625 76.859375 45.125 76.859375 
Q 55.28125 76.859375 64.75 71.34375 
z
" id="Futura-Medium-67"/>
       </defs>
       <use xlink:href="#Futura-Medium-65"/>
       <use x="73.572266" xlink:href="#Futura-Medium-99"/>
       <use x="123.853516" xlink:href="#Futura-Medium-107"/>
       <use x="173.658203" xlink:href="#Futura-Medium-110"/>
       <use x="228.492188" xlink:href="#Futura-Medium-111"/>
       <use x="286.724609" xlink:href="#Futura-Medium-119"/>
       <use x="364.992188" xlink:href="#Futura-Medium-108"/>
       <use x="389.894531" xlink:href="#Futura-Medium-101"/>
       <use x="445.216797" xlink:href="#Futura-Medium-100"/>
       <use x="505.177734" xlink:href="#Futura-Medium-103"/>
       <use x="565.041016" xlink:href="#Futura-Medium-101"/>
       <use x="620.363281" xlink:href="#Futura-Medium-115"/>
       <use x="660.939453" xlink:href="#Futura-Medium-32"/>
       <use x="691.798828" xlink:href="#Futura-Medium-97"/>
       <use x="751.759766" xlink:href="#Futura-Medium-110"/>
       <use x="806.59375" xlink:href="#Futura-Medium-32"/>
       <use x="837.453125" xlink:href="#Futura-Medium-72"/>
       <use x="910.792969" xlink:href="#Futura-Medium-80"/>
       <use x="964.796875" xlink:href="#Futura-Medium-67"/>
       <use x="1034.865234" xlink:href="#Futura-Medium-32"/>
       <use x="1065.724609" xlink:href="#Futura-Medium-99"/>
       <use x="1113.380859" xlink:href="#Futura-Medium-101"/>
       <use x="1168.703125" xlink:href="#Futura-Medium-110"/>
       <use x="1223.537109" xlink:href="#Futura-Medium-116"/>
       <use x="1250.880859" xlink:href="#Futura-Medium-114"/>
       <use x="1287.658203" xlink:href="#Futura-Medium-101"/>
      </g>
     </g>
    </g>
    <g id="xtick_4">
     <g id="line2d_4">
      <g>
       <use style="fill:#000000;stroke:#000000;stroke-width:0.8;" x="453.335345" xlink:href="#m23382e1027" y="153.734949"/>
      </g>
     </g>
     <g id="text_4">
      <!-- Specifies any software used -->
      <g style="fill:#000000;" transform="translate(254.835603 287.056964)rotate(-30)scale(0.18 -0.18)">
       <defs>
        <path d="M 51.65625 64.15625 
L 42.4375 58.6875 
Q 39.84375 63.1875 37.5 64.546875 
Q 35.0625 66.109375 31.203125 66.109375 
Q 26.46875 66.109375 23.34375 63.421875 
Q 20.21875 60.796875 20.21875 56.78125 
Q 20.21875 51.265625 28.421875 47.90625 
L 35.9375 44.828125 
Q 45.125 41.109375 49.359375 35.765625 
Q 53.609375 30.421875 53.609375 22.65625 
Q 53.609375 12.25 46.6875 5.46875 
Q 39.703125 -1.375 29.34375 -1.375 
Q 19.53125 -1.375 13.140625 4.4375 
Q 6.84375 10.25 5.28125 20.796875 
L 16.796875 23.34375 
Q 17.578125 16.703125 19.53125 14.15625 
Q 23.046875 9.28125 29.78125 9.28125 
Q 35.109375 9.28125 38.625 12.84375 
Q 42.140625 16.40625 42.140625 21.875 
Q 42.140625 24.078125 41.53125 25.90625 
Q 40.921875 27.734375 39.625 29.265625 
Q 38.328125 30.8125 36.28125 32.15625 
Q 34.234375 33.5 31.390625 34.71875 
L 24.125 37.75 
Q 8.640625 44.28125 8.640625 56.890625 
Q 8.640625 65.375 15.140625 71.09375 
Q 21.625 76.859375 31.296875 76.859375 
Q 44.34375 76.859375 51.65625 64.15625 
z
" id="Futura-Medium-83"/>
        <path d="M 18.3125 37.3125 
L 18.3125 0 
L 7.28125 0 
L 7.28125 37.3125 
L 3.375 37.3125 
L 3.375 47.5625 
L 7.28125 47.5625 
L 7.28125 65.921875 
Q 7.28125 74.90625 10.40625 78.609375 
Q 14.703125 83.796875 22.90625 83.796875 
Q 25.828125 83.796875 30.28125 82.078125 
L 30.28125 70.84375 
L 29.15625 71.4375 
Q 25.59375 73.25 23.296875 73.25 
Q 20.359375 73.25 19.34375 71.140625 
Q 18.3125 69.09375 18.3125 63.234375 
L 18.3125 47.5625 
L 30.28125 47.5625 
L 30.28125 37.3125 
z
" id="Futura-Medium-102"/>
        <path d="M 21.921875 8.84375 
L 0.53125 47.5625 
L 13.28125 47.5625 
L 27.828125 20.21875 
L 41.40625 47.5625 
L 53.8125 47.5625 
L 15.921875 -25.875 
L 3.375 -25.875 
z
" id="Futura-Medium-121"/>
       </defs>
       <use xlink:href="#Futura-Medium-83"/>
       <use x="58.300781" xlink:href="#Futura-Medium-112"/>
       <use x="118.261719" xlink:href="#Futura-Medium-101"/>
       <use x="173.583984" xlink:href="#Futura-Medium-99"/>
       <use x="221.240234" xlink:href="#Futura-Medium-105"/>
       <use x="246.142578" xlink:href="#Futura-Medium-102"/>
       <use x="277.955078" xlink:href="#Futura-Medium-105"/>
       <use x="302.857422" xlink:href="#Futura-Medium-101"/>
       <use x="358.179688" xlink:href="#Futura-Medium-115"/>
       <use x="398.755859" xlink:href="#Futura-Medium-32"/>
       <use x="429.615234" xlink:href="#Futura-Medium-97"/>
       <use x="489.576172" xlink:href="#Futura-Medium-110"/>
       <use x="542.785156" xlink:href="#Futura-Medium-121"/>
       <use x="597.130859" xlink:href="#Futura-Medium-32"/>
       <use x="627.990234" xlink:href="#Futura-Medium-115"/>
       <use x="668.566406" xlink:href="#Futura-Medium-111"/>
       <use x="728.673828" xlink:href="#Futura-Medium-102"/>
       <use x="761.986328" xlink:href="#Futura-Medium-116"/>
       <use x="789.330078" xlink:href="#Futura-Medium-119"/>
       <use x="865.097656" xlink:href="#Futura-Medium-97"/>
       <use x="925.058594" xlink:href="#Futura-Medium-114"/>
       <use x="961.835938" xlink:href="#Futura-Medium-101"/>
       <use x="1017.158203" xlink:href="#Futura-Medium-32"/>
       <use x="1048.017578" xlink:href="#Futura-Medium-117"/>
       <use x="1102.509766" xlink:href="#Futura-Medium-115"/>
       <use x="1143.085938" xlink:href="#Futura-Medium-101"/>
       <use x="1198.408203" xlink:href="#Futura-Medium-100"/>
      </g>
     </g>
    </g>
    <g id="xtick_5">
     <g id="line2d_5">
      <g>
       <use style="fill:#000000;stroke:#000000;stroke-width:0.8;" x="519.438194" xlink:href="#m23382e1027" y="153.734949"/>
      </g>
     </g>
     <g id="text_5">
      <!-- Publishes any data -->
      <g style="fill:#000000;" transform="translate(385.082518 249.816336)rotate(-30)scale(0.18 -0.18)">
       <defs>
        <path d="M 17.921875 82.46875 
L 17.921875 42.046875 
Q 24.515625 48.875 32.859375 48.875 
Q 42.484375 48.875 48.875 41.703125 
Q 55.28125 34.578125 55.28125 23.921875 
Q 55.28125 12.9375 48.828125 5.765625 
Q 42.4375 -1.375 32.671875 -1.375 
Q 24.421875 -1.375 17.921875 4.984375 
L 17.921875 0 
L 6.9375 0 
L 6.9375 82.46875 
z
M 44.046875 23.4375 
Q 44.046875 30.28125 40.328125 34.578125 
Q 36.578125 38.96875 30.90625 38.96875 
Q 24.859375 38.96875 21.046875 34.71875 
Q 17.28125 30.515625 17.28125 23.78125 
Q 17.28125 16.84375 21 12.703125 
Q 24.703125 8.453125 30.765625 8.453125 
Q 36.46875 8.453125 40.234375 12.703125 
Q 44.046875 17 44.046875 23.4375 
z
" id="Futura-Medium-98"/>
        <path d="M 6.9375 82.46875 
L 17.921875 82.46875 
L 17.921875 43.609375 
Q 23.78125 48.875 30.859375 48.875 
Q 38.921875 48.875 43.75 43.65625 
Q 47.859375 39.109375 47.859375 29.15625 
L 47.859375 0 
L 36.859375 0 
L 36.859375 28.125 
Q 36.859375 33.84375 34.828125 36.40625 
Q 32.8125 38.96875 28.328125 38.96875 
Q 22.5625 38.96875 20.21875 35.40625 
Q 17.921875 31.78125 17.921875 23 
L 17.921875 0 
L 6.9375 0 
z
" id="Futura-Medium-104"/>
       </defs>
       <use xlink:href="#Futura-Medium-80"/>
       <use x="54.003906" xlink:href="#Futura-Medium-117"/>
       <use x="108.496094" xlink:href="#Futura-Medium-98"/>
       <use x="168.457031" xlink:href="#Futura-Medium-108"/>
       <use x="193.359375" xlink:href="#Futura-Medium-105"/>
       <use x="218.261719" xlink:href="#Futura-Medium-115"/>
       <use x="258.837891" xlink:href="#Futura-Medium-104"/>
       <use x="313.671875" xlink:href="#Futura-Medium-101"/>
       <use x="368.994141" xlink:href="#Futura-Medium-115"/>
       <use x="409.570312" xlink:href="#Futura-Medium-32"/>
       <use x="440.429688" xlink:href="#Futura-Medium-97"/>
       <use x="500.390625" xlink:href="#Futura-Medium-110"/>
       <use x="553.599609" xlink:href="#Futura-Medium-121"/>
       <use x="607.945312" xlink:href="#Futura-Medium-32"/>
       <use x="638.804688" xlink:href="#Futura-Medium-100"/>
       <use x="698.765625" xlink:href="#Futura-Medium-97"/>
       <use x="758.726562" xlink:href="#Futura-Medium-116"/>
       <use x="786.945312" xlink:href="#Futura-Medium-97"/>
      </g>
     </g>
    </g>
    <g id="xtick_6">
     <g id="line2d_6">
      <g>
       <use style="fill:#000000;stroke:#000000;stroke-width:0.8;" x="585.541043" xlink:href="#m23382e1027" y="153.734949"/>
      </g>
     </g>
     <g id="text_6">
      <!-- Cites existing data -->
      <g style="fill:#000000;" transform="translate(453.720826 248.346805)rotate(-30)scale(0.18 -0.18)">
       <defs>
        <path d="M 21.6875 25.734375 
L 4.59375 47.5625 
L 17.671875 47.5625 
L 28.265625 33.6875 
L 39.0625 47.5625 
L 52.546875 47.5625 
L 34.96875 25.734375 
L 55.328125 0 
L 42.234375 0 
L 28.265625 17.78125 
L 13.96875 0 
L 0.53125 0 
z
" id="Futura-Medium-120"/>
       </defs>
       <use xlink:href="#Futura-Medium-67"/>
       <use x="70.068359" xlink:href="#Futura-Medium-105"/>
       <use x="94.970703" xlink:href="#Futura-Medium-116"/>
       <use x="123.189453" xlink:href="#Futura-Medium-101"/>
       <use x="178.511719" xlink:href="#Futura-Medium-115"/>
       <use x="219.087891" xlink:href="#Futura-Medium-32"/>
       <use x="249.947266" xlink:href="#Futura-Medium-101"/>
       <use x="303.394531" xlink:href="#Futura-Medium-120"/>
       <use x="359.205078" xlink:href="#Futura-Medium-105"/>
       <use x="384.107422" xlink:href="#Futura-Medium-115"/>
       <use x="424.683594" xlink:href="#Futura-Medium-116"/>
       <use x="452.027344" xlink:href="#Futura-Medium-105"/>
       <use x="476.929688" xlink:href="#Futura-Medium-110"/>
       <use x="531.763672" xlink:href="#Futura-Medium-103"/>
       <use x="591.626953" xlink:href="#Futura-Medium-32"/>
       <use x="622.486328" xlink:href="#Futura-Medium-100"/>
       <use x="682.447266" xlink:href="#Futura-Medium-97"/>
       <use x="742.408203" xlink:href="#Futura-Medium-116"/>
       <use x="770.626953" xlink:href="#Futura-Medium-97"/>
      </g>
     </g>
    </g>
    <g id="xtick_7">
     <g id="line2d_7">
      <g>
       <use style="fill:#000000;stroke:#000000;stroke-width:0.8;" x="651.643892" xlink:href="#m23382e1027" y="153.734949"/>
      </g>
     </g>
     <g id="text_7">
      <!-- Publishes full data analysis workflow -->
      <g style="fill:#000000;" transform="translate(391.728064 322.515558)rotate(-30)scale(0.18 -0.18)">
       <use xlink:href="#Futura-Medium-80"/>
       <use x="54.003906" xlink:href="#Futura-Medium-117"/>
       <use x="108.496094" xlink:href="#Futura-Medium-98"/>
       <use x="168.457031" xlink:href="#Futura-Medium-108"/>
       <use x="193.359375" xlink:href="#Futura-Medium-105"/>
       <use x="218.261719" xlink:href="#Futura-Medium-115"/>
       <use x="258.837891" xlink:href="#Futura-Medium-104"/>
       <use x="313.671875" xlink:href="#Futura-Medium-101"/>
       <use x="368.994141" xlink:href="#Futura-Medium-115"/>
       <use x="409.570312" xlink:href="#Futura-Medium-32"/>
       <use x="440.429688" xlink:href="#Futura-Medium-102"/>
       <use x="470.117188" xlink:href="#Futura-Medium-117"/>
       <use x="524.609375" xlink:href="#Futura-Medium-108"/>
       <use x="549.511719" xlink:href="#Futura-Medium-108"/>
       <use x="574.414062" xlink:href="#Futura-Medium-32"/>
       <use x="605.273438" xlink:href="#Futura-Medium-100"/>
       <use x="665.234375" xlink:href="#Futura-Medium-97"/>
       <use x="725.195312" xlink:href="#Futura-Medium-116"/>
       <use x="753.414062" xlink:href="#Futura-Medium-97"/>
       <use x="813.375" xlink:href="#Futura-Medium-32"/>
       <use x="844.234375" xlink:href="#Futura-Medium-97"/>
       <use x="904.195312" xlink:href="#Futura-Medium-110"/>
       <use x="959.029297" xlink:href="#Futura-Medium-97"/>
       <use x="1018.990234" xlink:href="#Futura-Medium-108"/>
       <use x="1044.767578" xlink:href="#Futura-Medium-121"/>
       <use x="1099.113281" xlink:href="#Futura-Medium-115"/>
       <use x="1139.689453" xlink:href="#Futura-Medium-105"/>
       <use x="1164.591797" xlink:href="#Futura-Medium-115"/>
       <use x="1205.167969" xlink:href="#Futura-Medium-32"/>
       <use x="1236.027344" xlink:href="#Futura-Medium-119"/>
       <use x="1311.669922" xlink:href="#Futura-Medium-111"/>
       <use x="1371.777344" xlink:href="#Futura-Medium-114"/>
       <use x="1410.679688" xlink:href="#Futura-Medium-107"/>
       <use x="1460.484375" xlink:href="#Futura-Medium-102"/>
       <use x="1491.796875" xlink:href="#Futura-Medium-108"/>
       <use x="1516.699219" xlink:href="#Futura-Medium-111"/>
       <use x="1574.931641" xlink:href="#Futura-Medium-119"/>
      </g>
     </g>
    </g>
   </g>
   <g id="matplotlib.axis_2">
    <g id="ytick_1">
     <g id="line2d_8">
      <defs>
       <path d="M 0 0 
L -3.5 0 
" id="med636db399" style="stroke:#000000;stroke-width:0.8;"/>
      </defs>
      <g>
       <use style="fill:#000000;stroke:#000000;stroke-width:0.8;" x="206.110689" xlink:href="#med636db399" y="153.734949"/>
      </g>
     </g>
     <g id="text_8">
      <!-- 0 -->
      <g style="fill:#000000;" transform="translate(188.001314 161.157137)scale(0.18 -0.18)">
       <use xlink:href="#Futura-Medium-48"/>
      </g>
     </g>
    </g>
    <g id="ytick_2">
     <g id="line2d_9">
      <g>
       <use style="fill:#000000;stroke:#000000;stroke-width:0.8;" x="206.110689" xlink:href="#med636db399" y="105.796437"/>
      </g>
     </g>
     <g id="text_9">
      <!-- 250 -->
      <g style="fill:#000000;" transform="translate(165.782564 113.218624)scale(0.18 -0.18)">
       <defs>
        <path d="M 52.59375 64.75 
L 29.34375 64.75 
L 25.640625 52.25 
Q 26.46875 52.34375 27.21875 52.390625 
Q 27.984375 52.4375 28.609375 52.4375 
Q 39.59375 52.4375 46.625 45.015625 
Q 53.71875 37.640625 53.71875 26.125 
Q 53.71875 14.203125 45.703125 6.484375 
Q 37.703125 -1.21875 25.53125 -1.21875 
Q 10.546875 -1.21875 1.90625 12.84375 
L 10.5 20.125 
Q 14.0625 14.0625 17.671875 11.578125 
Q 21.296875 9.125 26.515625 9.125 
Q 33.34375 9.125 37.984375 13.921875 
Q 42.625 18.84375 42.625 25.875 
Q 42.625 33.109375 38.03125 37.703125 
Q 33.453125 42.4375 26.5625 42.4375 
Q 18.890625 42.4375 13.328125 35.75 
L 9.578125 35.75 
L 21.4375 75.390625 
L 52.59375 75.390625 
z
" id="Futura-Medium-53"/>
       </defs>
       <use xlink:href="#Futura-Medium-50"/>
       <use x="61.71875" xlink:href="#Futura-Medium-53"/>
       <use x="123.4375" xlink:href="#Futura-Medium-48"/>
      </g>
     </g>
    </g>
    <g id="ytick_3">
     <g id="line2d_10">
      <g>
       <use style="fill:#000000;stroke:#000000;stroke-width:0.8;" x="206.110689" xlink:href="#med636db399" y="57.857924"/>
      </g>
     </g>
     <g id="text_10">
      <!-- 500 -->
      <g style="fill:#000000;" transform="translate(165.782564 65.280112)scale(0.18 -0.18)">
       <use xlink:href="#Futura-Medium-53"/>
       <use x="61.71875" xlink:href="#Futura-Medium-48"/>
       <use x="123.4375" xlink:href="#Futura-Medium-48"/>
      </g>
     </g>
    </g>
   </g>
   <g id="patch_10">
    <path d="M 206.110689 153.734949 
L 206.110689 19.44 
" style="fill:none;stroke:#000000;stroke-linecap:square;stroke-linejoin:miter;stroke-width:0.8;"/>
   </g>
   <g id="patch_11">
    <path d="M 700.56 153.734949 
L 700.56 19.44 
" style="fill:none;stroke:#000000;stroke-linecap:square;stroke-linejoin:miter;stroke-width:0.8;"/>
   </g>
   <g id="patch_12">
    <path d="M 206.110689 153.734949 
L 700.56 153.734949 
" style="fill:none;stroke:#000000;stroke-linecap:square;stroke-linejoin:miter;stroke-width:0.8;"/>
   </g>
   <g id="patch_13">
    <path d="M 206.110689 19.44 
L 700.56 19.44 
" style="fill:none;stroke:#000000;stroke-linecap:square;stroke-linejoin:miter;stroke-width:0.8;"/>
   </g>
  </g>
 </g>
 <defs>
  <clipPath id="p8296bd54ec">
   <rect height="134.294949" width="494.449311" x="206.110689" y="19.44"/>
  </clipPath>
 </defs>
</svg>
